{"glyphs":{"0":{"ha":1261,"x_min":0,"x_max":0,"o":"m 35 721 l 17 721 l 32 803 b 54 804 39 804 46 804 b 76 799 61 804 71 803 b 86 782 82 796 86 789 b 75 757 86 771 81 763 b 47 751 68 753 57 751 b 42 751 46 751 43 751 m 44 765 b 50 764 46 764 46 764 b 68 781 61 764 68 771 b 54 790 68 788 61 790 b 47 789 51 790 49 790 m 117 788 l 114 771 l 144 771 l 140 756 l 111 756 l 107 736 l 140 736 l 138 721 l 86 721 l 101 804 l 150 804 l 149 788 m 168 721 l 150 721 l 167 803 b 188 804 171 804 179 804 b 210 800 196 804 203 803 b 219 785 215 796 219 790 b 200 760 219 771 210 764 b 208 744 204 757 207 753 b 210 721 208 735 210 725 l 193 721 b 190 740 193 724 192 731 b 179 754 190 751 186 754 l 174 754 m 176 767 l 183 767 b 201 782 193 767 201 774 b 188 790 201 788 194 790 b 181 789 183 790 182 790 m 244 735 b 258 744 251 735 258 738 b 247 756 258 749 256 753 b 231 778 238 761 231 767 b 263 806 231 796 244 806 b 282 801 272 806 278 803 l 276 788 b 261 789 274 788 268 790 b 249 782 253 789 249 786 b 261 769 249 776 253 774 b 278 749 271 764 278 757 b 243 719 278 729 263 719 b 219 726 232 719 224 722 l 226 739 b 244 735 231 738 236 735 m 333 806 b 367 771 354 806 367 790 b 350 731 367 756 361 740 b 321 719 344 725 333 719 b 288 754 300 719 288 735 b 303 793 288 768 294 785 b 333 806 311 801 321 806 m 338 740 b 347 771 344 747 347 760 b 331 790 347 781 344 790 b 317 785 325 790 321 788 b 307 756 310 778 307 764 b 324 735 307 743 311 735 b 338 740 329 735 333 736 m 386 721 l 371 721 l 386 804 l 407 804 l 418 772 b 425 744 421 761 422 753 b 429 774 425 753 426 761 l 435 804 l 451 804 l 436 721 l 418 721 l 406 754 b 397 783 401 765 400 774 b 393 750 396 775 394 763 m 465 721 l 447 721 l 486 804 l 510 804 l 519 721 l 500 721 l 499 742 l 476 742 m 481 756 l 499 756 l 496 774 b 496 790 496 779 496 786 b 489 774 493 786 490 779 m 563 804 l 549 736 l 581 736 l 578 721 l 529 721 l 544 804 m 635 756 b 635 746 635 753 635 750 b 644 735 635 739 639 735 b 664 756 654 735 661 740 l 672 804 l 692 804 l 682 756 b 643 719 676 731 667 719 b 617 746 626 719 617 729 b 617 757 617 750 617 754 l 625 804 l 643 804 m 714 735 b 728 744 721 735 728 738 b 717 756 728 749 724 753 b 699 778 707 761 699 767 b 732 806 699 796 714 806 b 751 801 742 806 749 803 l 746 788 b 731 789 743 788 736 790 b 717 782 722 789 717 786 b 731 769 717 776 724 774 b 746 749 739 764 746 757 b 713 719 746 729 731 719 b 689 726 701 719 692 722 l 694 739 b 714 735 700 738 706 735 m 785 788 l 782 771 l 811 771 l 808 756 l 778 756 l 775 736 l 808 736 l 804 721 l 754 721 l 769 804 l 818 804 l 815 788 m 907 731 b 876 719 899 725 890 719 b 843 754 856 719 843 735 b 860 793 843 768 849 785 b 889 806 865 801 876 806 b 922 771 911 806 922 790 b 907 731 922 756 918 740 m 861 756 b 879 735 861 743 867 735 b 892 740 885 735 890 736 b 904 771 899 747 904 760 b 886 790 904 781 899 790 b 872 785 882 790 876 788 b 861 756 865 778 861 764 m 954 783 b 949 750 954 775 951 763 l 943 721 l 925 721 l 942 804 l 963 804 l 974 772 b 983 744 978 761 981 753 b 986 774 983 753 985 761 l 990 804 l 1008 804 l 992 721 l 974 721 l 961 754 b 954 783 958 765 956 774 m 1042 804 l 1029 736 l 1060 736 l 1058 721 l 1008 721 l 1025 804 m 1090 721 l 1072 721 l 1079 756 l 1061 804 l 1082 804 l 1086 783 b 1090 768 1088 776 1089 772 b 1099 783 1093 772 1096 778 l 1110 804 l 1132 804 l 1096 756 m 1149 729 b 1161 742 1149 736 1153 742 b 1171 731 1167 742 1171 738 b 1158 719 1171 725 1165 719 b 1149 729 1151 719 1149 725 m 1169 749 l 1156 749 l 1164 804 l 1182 804 m 32 408 l 32 385 l 58 385 l 58 378 l 32 378 l 32 346 l 22 346 l 22 415 l 61 415 l 61 408 m 115 372 b 90 346 115 353 101 346 b 67 371 76 346 67 354 b 90 397 67 388 76 397 b 115 372 106 397 115 388 m 76 371 b 90 351 76 360 81 351 b 106 372 100 351 106 360 b 90 390 106 381 101 390 b 76 371 79 390 76 381 m 125 346 l 125 381 b 125 397 125 386 125 392 l 133 397 l 135 386 b 149 397 138 393 143 397 b 150 397 150 397 150 397 l 150 388 b 149 389 150 389 150 389 b 136 378 142 389 138 383 b 135 374 135 376 135 375 l 135 346 m 178 381 b 215 417 178 403 193 417 b 232 414 224 417 229 415 l 229 407 b 215 410 226 408 221 410 b 188 381 199 410 188 399 b 215 351 188 363 197 351 b 229 356 219 351 226 354 l 232 349 b 213 346 229 347 222 346 b 178 381 193 346 178 357 m 263 346 b 236 371 249 346 236 354 b 263 397 236 388 249 397 b 288 372 276 397 288 388 b 263 346 288 353 274 346 m 263 390 b 246 371 251 390 246 381 b 263 351 246 360 253 351 b 278 372 271 351 278 360 b 263 390 278 381 272 390 m 360 346 l 360 375 b 349 390 360 383 357 390 b 339 381 344 390 340 386 b 338 378 339 381 338 379 l 338 346 l 329 346 l 329 378 b 319 390 329 383 325 390 b 307 381 314 390 308 385 b 307 378 307 381 307 379 l 307 346 l 297 346 l 297 382 b 297 397 297 388 297 392 l 306 397 l 306 388 l 307 388 b 322 397 308 393 314 397 b 336 388 329 397 333 393 b 343 394 338 390 340 392 b 353 397 344 397 347 397 b 369 376 360 397 369 393 l 369 346 m 456 346 l 447 346 l 447 375 b 436 390 447 383 443 390 b 424 381 431 390 426 386 b 424 378 424 381 424 379 l 424 346 l 415 346 l 415 378 b 404 390 415 383 411 390 b 393 381 399 390 394 385 b 393 378 393 381 393 379 l 393 346 l 385 346 l 385 382 b 383 397 385 388 385 392 l 392 397 l 392 388 l 393 388 b 408 397 394 393 400 397 b 421 388 415 397 421 393 b 428 394 424 390 425 392 b 439 397 431 397 433 397 b 456 376 446 397 456 393 m 513 375 b 511 369 513 372 511 371 l 476 369 b 493 351 476 357 485 351 b 507 354 499 351 503 353 l 508 349 b 492 346 506 347 500 346 b 467 371 476 346 467 354 b 490 397 467 385 476 397 b 513 375 507 397 513 383 m 503 376 b 489 390 503 381 500 390 b 476 376 481 390 476 382 m 522 381 b 522 397 522 386 522 392 l 529 397 l 531 386 b 544 397 533 393 539 397 b 547 397 544 397 546 397 l 547 388 b 543 389 546 389 544 389 b 532 378 539 389 533 383 b 532 374 532 376 532 375 l 532 346 l 522 346 l 522 381 m 592 349 b 576 346 589 347 583 346 b 551 371 561 346 551 356 b 578 397 551 386 563 397 b 592 394 583 397 589 396 l 589 388 b 578 390 588 389 583 390 b 561 371 567 390 561 381 b 578 351 561 360 567 351 b 590 354 583 351 588 354 l 592 349 m 606 417 b 613 410 610 417 613 414 b 606 406 613 408 610 406 b 600 410 603 406 600 408 b 606 417 600 414 603 417 m 601 397 l 611 397 l 611 346 l 601 346 m 636 346 b 621 358 626 346 621 351 b 651 379 621 372 632 379 b 640 390 651 383 650 390 b 628 388 636 390 631 389 l 625 393 b 640 397 629 396 636 397 b 661 378 657 397 661 388 l 661 358 b 661 346 661 354 661 349 l 653 346 l 651 351 b 636 346 649 349 643 346 m 651 372 b 631 361 642 372 631 369 b 639 351 631 354 635 351 b 651 360 644 351 649 356 b 651 363 651 361 651 363 l 651 372 m 675 419 l 685 419 l 685 346 l 675 346 m 710 358 b 700 333 707 350 703 339 l 693 333 b 699 358 696 339 699 350 m 743 414 b 760 417 747 415 753 417 b 779 410 768 417 775 414 b 786 397 785 408 786 403 b 781 381 786 390 785 385 b 760 374 775 376 768 374 b 751 375 757 374 754 374 l 751 346 l 743 346 m 751 381 b 760 381 754 381 757 381 b 776 396 769 381 776 385 b 761 410 776 406 769 410 b 751 410 757 410 753 410 m 797 419 l 806 419 l 806 346 l 797 346 m 860 349 b 842 346 856 347 850 346 b 817 371 826 346 817 354 b 840 397 817 385 826 397 b 861 375 857 397 861 383 b 861 369 861 372 861 371 l 826 369 b 843 351 826 357 835 351 b 857 354 850 351 854 353 l 860 349 m 839 390 b 826 376 831 390 826 382 l 853 376 b 839 390 853 381 850 390 m 900 346 l 899 351 b 883 346 897 349 892 346 b 868 358 874 346 868 351 b 899 379 868 372 879 379 b 889 390 899 383 897 390 b 875 388 883 390 878 389 l 872 393 b 889 397 876 396 883 397 b 908 378 904 397 908 388 l 908 358 b 908 346 908 354 908 349 m 899 372 b 878 361 890 372 878 369 b 886 351 878 354 882 351 b 899 360 892 351 897 356 b 899 363 899 361 899 363 m 953 360 b 933 346 953 351 946 346 b 919 349 928 346 922 347 l 922 356 b 933 351 924 354 928 351 b 943 358 940 351 943 354 b 933 368 943 363 940 365 b 921 382 924 372 921 378 b 938 397 921 390 926 397 b 951 394 943 397 949 396 l 949 388 b 938 390 947 389 942 390 b 929 383 932 390 929 388 b 939 375 929 381 932 378 b 953 360 949 372 953 368 m 1004 375 b 1004 369 1004 372 1004 371 l 969 369 b 986 351 969 357 978 351 b 1000 354 993 351 997 353 l 1003 349 b 985 346 999 347 993 346 b 960 371 969 346 960 354 b 985 397 960 385 969 397 b 1004 375 1000 397 1004 383 m 996 376 b 983 390 996 381 993 390 b 969 376 974 390 969 382 m 1083 415 l 1058 346 l 1049 346 l 1026 415 l 1036 415 l 1047 381 b 1056 356 1050 372 1053 363 b 1063 381 1057 363 1060 372 l 1075 415 m 1094 417 b 1100 410 1097 417 1100 414 b 1093 406 1100 408 1097 406 b 1089 410 1090 406 1089 408 b 1094 417 1089 414 1090 417 m 1089 397 l 1099 397 l 1099 346 l 1089 346 m 1125 351 b 1135 358 1132 351 1135 354 b 1125 368 1135 363 1132 365 b 1111 382 1115 372 1111 378 b 1129 397 1111 390 1118 397 b 1142 394 1135 397 1139 396 l 1140 388 b 1129 390 1138 389 1133 390 b 1119 383 1124 390 1119 388 b 1131 375 1119 381 1124 378 b 1143 360 1139 372 1143 368 b 1125 346 1143 351 1136 346 b 1110 349 1118 346 1113 347 l 1113 356 b 1125 351 1115 354 1119 351 m 1160 417 b 1165 410 1163 417 1165 414 b 1160 406 1165 408 1163 406 b 1153 410 1156 406 1153 408 b 1160 417 1153 414 1156 417 m 1165 346 l 1156 346 l 1156 397 l 1165 397 m 1190 389 l 1190 363 b 1197 351 1190 356 1192 351 b 1204 353 1200 351 1201 353 l 1204 347 b 1194 346 1201 346 1199 346 b 1185 349 1190 346 1188 347 b 1181 361 1182 351 1181 356 l 1181 389 l 1174 389 l 1174 397 l 1181 397 l 1181 408 l 1190 410 l 1190 397 l 1204 397 l 1204 389 m 308 194 l 308 206 b 286 193 301 196 294 193 b 264 219 272 193 264 203 b 308 267 264 244 282 267 b 318 265 311 267 315 267 l 324 297 l 346 297 l 331 222 b 326 194 329 213 328 203 m 296 210 b 311 229 301 210 308 215 l 315 249 b 307 251 314 250 311 251 b 285 222 294 251 285 238 b 296 210 285 214 289 210 m 382 288 b 371 274 382 279 376 274 b 360 285 364 274 360 278 b 371 296 360 290 365 296 b 382 288 378 296 382 292 m 365 194 l 343 194 l 357 265 l 378 265 m 433 235 b 433 242 433 236 433 239 b 426 250 433 247 431 250 b 408 226 421 250 411 242 l 401 194 l 382 194 l 392 242 b 394 265 393 251 393 260 l 414 265 l 411 254 l 413 254 b 438 267 419 263 426 267 b 456 247 450 267 456 261 b 453 236 456 244 454 239 l 447 194 l 425 194 m 469 240 l 507 240 l 504 225 l 465 225 m 547 251 b 539 246 543 251 539 249 b 547 238 539 242 542 240 b 564 218 556 235 564 228 b 531 193 564 201 550 193 b 510 199 521 193 514 196 l 515 213 b 532 208 518 213 525 208 b 542 214 539 208 542 213 b 533 224 542 218 540 219 b 517 242 525 228 517 235 b 549 267 517 258 531 267 b 567 263 557 267 564 265 l 563 249 b 547 251 560 250 554 251 m 600 225 b 599 215 600 222 599 218 b 606 211 599 213 600 211 b 613 211 607 211 610 211 l 610 194 b 596 193 606 193 600 193 b 578 208 583 193 578 199 b 579 221 578 213 578 215 l 585 249 l 576 249 l 578 265 l 588 265 l 592 281 l 613 286 l 608 265 l 622 265 l 619 249 l 606 249 m 669 194 l 671 207 b 644 193 663 196 654 193 b 626 213 633 193 626 199 b 628 226 626 217 628 221 l 636 265 l 656 265 l 649 228 b 647 218 649 225 647 219 b 656 210 647 213 650 210 b 672 233 664 210 671 218 l 678 265 l 701 265 l 692 218 b 688 194 690 210 688 200 m 751 194 l 753 206 b 729 193 746 196 736 193 b 706 219 717 193 706 203 b 751 267 706 244 725 267 b 763 265 756 267 758 267 l 767 297 l 788 297 l 774 222 b 769 194 772 213 771 203 m 738 210 b 756 229 744 210 753 215 l 758 249 b 750 251 757 250 754 251 b 729 222 736 251 729 238 b 738 210 729 214 733 210 m 826 288 b 813 274 826 279 819 274 b 803 285 808 274 803 278 b 814 296 803 290 808 296 b 826 288 821 296 826 292 m 808 194 l 786 194 l 800 265 l 821 265 m 857 193 b 828 222 839 193 828 206 b 869 267 828 247 844 267 b 900 238 889 267 900 254 b 857 193 900 213 882 193 m 867 251 b 849 222 856 251 849 235 b 861 210 849 214 853 210 b 879 238 872 210 879 225 b 867 251 879 244 875 251 m 918 193 b 906 206 910 193 906 199 b 919 219 906 213 911 219 b 932 207 926 219 932 214 b 918 193 932 199 925 193 m 990 250 b 967 225 976 250 967 238 b 982 210 967 214 974 210 b 996 213 986 210 992 213 l 996 196 b 976 193 990 194 985 193 b 946 222 957 193 946 204 b 992 267 946 247 964 267 b 1007 264 997 267 1003 265 l 1001 249 b 990 250 999 249 996 250 m 1038 193 b 1008 222 1019 193 1008 206 b 1050 267 1008 247 1025 267 b 1081 238 1068 267 1081 254 b 1038 193 1081 213 1061 193 m 1047 251 b 1029 222 1035 251 1029 235 b 1039 210 1029 214 1033 210 b 1058 238 1051 210 1058 225 b 1047 251 1058 244 1056 251 m 1176 235 b 1178 242 1178 236 1178 239 b 1172 250 1178 247 1175 250 b 1154 228 1165 250 1157 240 l 1149 194 l 1128 194 l 1136 235 b 1136 242 1136 236 1136 239 b 1129 250 1136 247 1135 250 b 1111 226 1122 250 1115 240 l 1107 194 l 1086 194 l 1096 242 b 1099 265 1097 251 1097 260 l 1117 265 l 1115 254 b 1140 267 1122 263 1132 267 b 1157 254 1151 267 1157 261 b 1182 267 1164 263 1174 267 b 1200 249 1193 267 1200 261 b 1199 236 1200 244 1199 239 l 1190 194 l 1171 194 m 99 456 b 14 522 44 457 14 485 b 42 561 14 553 32 561 b 60 528 64 561 71 538 b 26 519 60 546 26 549 b 99 468 26 488 56 468 b 165 567 154 468 165 525 b 125 657 165 596 167 657 b 119 642 124 657 119 656 l 119 597 b 119 596 119 597 119 596 l 119 521 b 129 504 119 504 129 504 l 129 499 l 68 499 l 68 504 b 78 518 68 504 76 504 b 78 518 78 518 78 518 l 78 644 b 63 664 78 656 76 664 b 49 656 54 664 49 658 b 61 646 49 644 61 646 b 44 628 61 631 50 628 b 25 646 26 628 25 643 b 63 674 25 664 47 674 b 125 664 88 674 96 664 b 206 567 168 664 206 642 b 99 456 206 514 174 453 m 282 499 l 219 499 l 219 504 b 231 518 219 504 229 504 l 231 585 b 219 600 229 600 219 600 l 219 604 l 269 614 l 269 521 b 282 504 269 504 282 504 m 251 660 b 269 642 263 660 269 651 b 251 622 269 631 263 622 b 233 642 240 622 233 631 b 251 660 233 651 240 660 m 346 600 b 379 615 351 606 363 615 b 414 579 397 615 414 603 b 414 521 414 579 414 521 b 424 504 414 506 421 504 l 424 499 l 363 499 l 363 504 b 372 518 363 504 371 504 l 372 583 b 346 579 372 603 346 600 l 346 521 b 357 504 346 504 357 504 l 357 499 l 296 499 l 296 504 b 306 518 296 504 304 504 l 306 585 b 296 600 304 600 296 600 l 296 604 l 346 614 l 346 600 m 535 622 b 596 664 535 622 535 664 b 644 660 626 664 632 651 b 653 663 647 661 649 663 b 653 621 653 656 653 621 l 647 619 b 596 654 647 619 642 654 b 576 611 567 654 557 619 b 672 539 601 600 674 597 b 603 499 671 515 647 499 b 547 499 560 499 556 510 b 542 499 547 499 543 499 l 542 542 l 547 542 b 601 511 547 524 576 511 b 613 560 646 511 644 550 b 535 622 583 568 535 578 m 742 608 b 731 597 742 608 733 610 l 731 518 b 742 504 732 504 742 504 l 742 499 l 725 499 b 690 531 711 499 690 499 l 690 596 b 678 608 689 610 678 608 l 678 614 b 731 629 707 614 714 629 l 731 614 l 742 614 l 742 608 m 753 615 l 813 615 l 813 608 b 804 596 813 608 804 610 l 804 535 b 831 535 804 507 831 517 l 831 593 b 821 608 831 610 821 608 l 821 615 l 882 615 l 882 608 b 869 596 882 608 871 610 l 869 518 b 882 504 871 504 882 504 l 882 499 l 853 499 b 831 517 839 499 831 510 b 801 499 826 510 818 499 b 764 535 785 499 764 510 b 764 593 764 535 764 593 b 753 608 764 608 754 608 m 1054 472 b 1032 456 1054 463 1047 456 b 967 503 1018 456 974 460 b 947 499 960 500 954 499 b 890 557 917 499 890 525 b 947 615 890 589 917 615 b 965 611 954 615 960 613 l 965 664 l 1017 656 l 1017 650 b 1006 635 1017 650 1007 651 b 1006 514 1006 635 1006 515 b 1033 463 1007 479 1017 465 b 1029 472 1031 465 1029 469 b 1042 485 1029 479 1033 485 b 1054 472 1049 485 1054 479 m 947 508 b 965 557 963 508 965 531 b 947 607 965 585 963 607 b 929 557 932 607 929 585 b 947 508 929 531 932 508 m 1085 499 l 1024 499 l 1024 504 b 1033 518 1024 504 1033 504 l 1033 585 b 1024 600 1033 600 1024 600 l 1024 604 l 1075 614 l 1075 521 b 1085 504 1075 504 1085 504 m 1036 642 b 1056 660 1036 651 1044 660 b 1074 642 1065 660 1074 651 b 1056 622 1074 631 1065 622 b 1036 642 1044 622 1036 631 m 1201 557 b 1143 499 1201 525 1175 499 b 1086 557 1111 499 1086 525 b 1143 614 1086 589 1111 614 b 1201 557 1175 614 1201 589 m 1143 508 b 1161 557 1160 508 1161 531 b 1143 606 1161 585 1160 606 b 1126 557 1128 606 1126 585 b 1143 508 1126 531 1128 508 m 22 238 l 236 238 l 236 210 l 22 210 m 496 840 l 593 964 l 725 964 l 625 840 m 1079 840 l 1178 964 l 1203 964 l 1203 840 m 106 840 l 206 964 l 336 964 l 236 840 m 690 840 l 789 964 l 919 964 l 819 840 m 42 840 l 22 840 l 22 964 l 142 964 m 301 840 l 400 964 l 531 964 l 431 840 m 885 840 l 985 964 l 1113 964 l 1015 840 m 725 157 l 625 32 l 496 32 l 593 157 m 1178 157 l 1203 157 l 1203 32 l 1079 32 m 336 157 l 236 32 l 106 32 l 206 157 m 919 157 l 819 32 l 690 32 l 789 157 m 142 157 l 42 32 l 22 32 l 22 157 m 531 157 l 431 32 l 301 32 l 400 157 m 1113 157 l 1015 32 l 885 32 l 985 157 "},"1":{"ha":1261,"x_min":0,"x_max":0,"o":"m 35 721 l 17 721 l 32 803 b 54 804 39 804 46 804 b 76 799 61 804 71 803 b 86 782 82 796 86 789 b 75 757 86 771 81 763 b 47 751 68 753 57 751 b 42 751 46 751 43 751 m 44 765 b 50 764 46 764 46 764 b 68 781 61 764 68 771 b 54 790 68 788 61 790 b 47 789 51 790 49 790 m 117 788 l 114 771 l 144 771 l 140 756 l 111 756 l 107 736 l 140 736 l 138 721 l 86 721 l 101 804 l 150 804 l 149 788 m 168 721 l 150 721 l 167 803 b 188 804 171 804 179 804 b 210 800 196 804 203 803 b 219 785 215 796 219 790 b 200 760 219 771 210 764 b 208 744 204 757 207 753 b 210 721 208 735 210 725 l 193 721 b 190 740 193 724 192 731 b 179 754 190 751 186 754 l 174 754 m 176 767 l 183 767 b 201 782 193 767 201 774 b 188 790 201 788 194 790 b 181 789 183 790 182 790 m 244 735 b 258 744 251 735 258 738 b 247 756 258 749 256 753 b 231 778 238 761 231 767 b 263 806 231 796 244 806 b 282 801 272 806 278 803 l 276 788 b 261 789 274 788 268 790 b 249 782 253 789 249 786 b 261 769 249 776 253 774 b 278 749 271 764 278 757 b 243 719 278 729 263 719 b 219 726 232 719 224 722 l 226 739 b 244 735 231 738 236 735 m 333 806 b 367 771 354 806 367 790 b 350 731 367 756 361 740 b 321 719 344 725 333 719 b 288 754 300 719 288 735 b 303 793 288 768 294 785 b 333 806 311 801 321 806 m 338 740 b 347 771 344 747 347 760 b 331 790 347 781 344 790 b 317 785 325 790 321 788 b 307 756 310 778 307 764 b 324 735 307 743 311 735 b 338 740 329 735 333 736 m 386 721 l 371 721 l 386 804 l 407 804 l 418 772 b 425 744 421 761 422 753 b 429 774 425 753 426 761 l 435 804 l 451 804 l 436 721 l 418 721 l 406 754 b 397 783 401 765 400 774 b 393 750 396 775 394 763 m 465 721 l 447 721 l 486 804 l 510 804 l 519 721 l 500 721 l 499 742 l 476 742 m 481 756 l 499 756 l 496 774 b 496 790 496 779 496 786 b 489 774 493 786 490 779 m 563 804 l 549 736 l 581 736 l 578 721 l 529 721 l 544 804 m 635 756 b 635 746 635 753 635 750 b 644 735 635 739 639 735 b 664 756 654 735 661 740 l 672 804 l 692 804 l 682 756 b 643 719 676 731 667 719 b 617 746 626 719 617 729 b 617 757 617 750 617 754 l 625 804 l 643 804 m 714 735 b 728 744 721 735 728 738 b 717 756 728 749 724 753 b 699 778 707 761 699 767 b 732 806 699 796 714 806 b 751 801 742 806 749 803 l 746 788 b 731 789 743 788 736 790 b 717 782 722 789 717 786 b 731 769 717 776 724 774 b 746 749 739 764 746 757 b 713 719 746 729 731 719 b 689 726 701 719 692 722 l 694 739 b 714 735 700 738 706 735 m 785 788 l 782 771 l 811 771 l 808 756 l 778 756 l 775 736 l 808 736 l 804 721 l 754 721 l 769 804 l 818 804 l 815 788 m 907 731 b 876 719 899 725 890 719 b 843 754 856 719 843 735 b 860 793 843 768 849 785 b 889 806 865 801 876 806 b 922 771 911 806 922 790 b 907 731 922 756 918 740 m 861 756 b 879 735 861 743 867 735 b 892 740 885 735 890 736 b 904 771 899 747 904 760 b 886 790 904 781 899 790 b 872 785 882 790 876 788 b 861 756 865 778 861 764 m 954 783 b 949 750 954 775 951 763 l 943 721 l 925 721 l 942 804 l 963 804 l 974 772 b 983 744 978 761 981 753 b 986 774 983 753 985 761 l 990 804 l 1008 804 l 992 721 l 974 721 l 961 754 b 954 783 958 765 956 774 m 1042 804 l 1029 736 l 1060 736 l 1058 721 l 1008 721 l 1025 804 m 1090 721 l 1072 721 l 1079 756 l 1061 804 l 1082 804 l 1086 783 b 1090 768 1088 776 1089 772 b 1099 783 1093 772 1096 778 l 1110 804 l 1132 804 l 1096 756 m 1149 729 b 1161 742 1149 736 1153 742 b 1171 731 1167 742 1171 738 b 1158 719 1171 725 1165 719 b 1149 729 1151 719 1149 725 m 1169 749 l 1156 749 l 1164 804 l 1182 804 m 32 408 l 32 385 l 58 385 l 58 378 l 32 378 l 32 346 l 22 346 l 22 415 l 61 415 l 61 408 m 115 372 b 90 346 115 353 101 346 b 67 371 76 346 67 354 b 90 397 67 388 76 397 b 115 372 106 397 115 388 m 76 371 b 90 351 76 360 81 351 b 106 372 100 351 106 360 b 90 390 106 381 101 390 b 76 371 79 390 76 381 m 125 346 l 125 381 b 125 397 125 386 125 392 l 133 397 l 135 386 b 149 397 138 393 143 397 b 150 397 150 397 150 397 l 150 388 b 149 389 150 389 150 389 b 136 378 142 389 138 383 b 135 374 135 376 135 375 l 135 346 m 178 381 b 215 417 178 403 193 417 b 232 414 224 417 229 415 l 229 407 b 215 410 226 408 221 410 b 188 381 199 410 188 399 b 215 351 188 363 197 351 b 229 356 219 351 226 354 l 232 349 b 213 346 229 347 222 346 b 178 381 193 346 178 357 m 263 346 b 236 371 249 346 236 354 b 263 397 236 388 249 397 b 288 372 276 397 288 388 b 263 346 288 353 274 346 m 263 390 b 246 371 251 390 246 381 b 263 351 246 360 253 351 b 278 372 271 351 278 360 b 263 390 278 381 272 390 m 360 346 l 360 375 b 349 390 360 383 357 390 b 339 381 344 390 340 386 b 338 378 339 381 338 379 l 338 346 l 329 346 l 329 378 b 319 390 329 383 325 390 b 307 381 314 390 308 385 b 307 378 307 381 307 379 l 307 346 l 297 346 l 297 382 b 297 397 297 388 297 392 l 306 397 l 306 388 l 307 388 b 322 397 308 393 314 397 b 336 388 329 397 333 393 b 343 394 338 390 340 392 b 353 397 344 397 347 397 b 369 376 360 397 369 393 l 369 346 m 456 346 l 447 346 l 447 375 b 436 390 447 383 443 390 b 424 381 431 390 426 386 b 424 378 424 381 424 379 l 424 346 l 415 346 l 415 378 b 404 390 415 383 411 390 b 393 381 399 390 394 385 b 393 378 393 381 393 379 l 393 346 l 385 346 l 385 382 b 383 397 385 388 385 392 l 392 397 l 392 388 l 393 388 b 408 397 394 393 400 397 b 421 388 415 397 421 393 b 428 394 424 390 425 392 b 439 397 431 397 433 397 b 456 376 446 397 456 393 m 513 375 b 511 369 513 372 511 371 l 476 369 b 493 351 476 357 485 351 b 507 354 499 351 503 353 l 508 349 b 492 346 506 347 500 346 b 467 371 476 346 467 354 b 490 397 467 385 476 397 b 513 375 507 397 513 383 m 503 376 b 489 390 503 381 500 390 b 476 376 481 390 476 382 m 522 381 b 522 397 522 386 522 392 l 529 397 l 531 386 b 544 397 533 393 539 397 b 547 397 544 397 546 397 l 547 388 b 543 389 546 389 544 389 b 532 378 539 389 533 383 b 532 374 532 376 532 375 l 532 346 l 522 346 l 522 381 m 592 349 b 576 346 589 347 583 346 b 551 371 561 346 551 356 b 578 397 551 386 563 397 b 592 394 583 397 589 396 l 589 388 b 578 390 588 389 583 390 b 561 371 567 390 561 381 b 578 351 561 360 567 351 b 590 354 583 351 588 354 l 592 349 m 606 417 b 613 410 610 417 613 414 b 606 406 613 408 610 406 b 600 410 603 406 600 408 b 606 417 600 414 603 417 m 601 397 l 611 397 l 611 346 l 601 346 m 636 346 b 621 358 626 346 621 351 b 651 379 621 372 632 379 b 640 390 651 383 650 390 b 628 388 636 390 631 389 l 625 393 b 640 397 629 396 636 397 b 661 378 657 397 661 388 l 661 358 b 661 346 661 354 661 349 l 653 346 l 651 351 b 636 346 649 349 643 346 m 651 372 b 631 361 642 372 631 369 b 639 351 631 354 635 351 b 651 360 644 351 649 356 b 651 363 651 361 651 363 l 651 372 m 675 419 l 685 419 l 685 346 l 675 346 m 710 358 b 700 333 707 350 703 339 l 693 333 b 699 358 696 339 699 350 m 743 414 b 760 417 747 415 753 417 b 779 410 768 417 775 414 b 786 397 785 408 786 403 b 781 381 786 390 785 385 b 760 374 775 376 768 374 b 751 375 757 374 754 374 l 751 346 l 743 346 m 751 381 b 760 381 754 381 757 381 b 776 396 769 381 776 385 b 761 410 776 406 769 410 b 751 410 757 410 753 410 m 797 419 l 806 419 l 806 346 l 797 346 m 860 349 b 842 346 856 347 850 346 b 817 371 826 346 817 354 b 840 397 817 385 826 397 b 861 375 857 397 861 383 b 861 369 861 372 861 371 l 826 369 b 843 351 826 357 835 351 b 857 354 850 351 854 353 l 860 349 m 839 390 b 826 376 831 390 826 382 l 853 376 b 839 390 853 381 850 390 m 900 346 l 899 351 b 883 346 897 349 892 346 b 868 358 874 346 868 351 b 899 379 868 372 879 379 b 889 390 899 383 897 390 b 875 388 883 390 878 389 l 872 393 b 889 397 876 396 883 397 b 908 378 904 397 908 388 l 908 358 b 908 346 908 354 908 349 m 899 372 b 878 361 890 372 878 369 b 886 351 878 354 882 351 b 899 360 892 351 897 356 b 899 363 899 361 899 363 m 953 360 b 933 346 953 351 946 346 b 919 349 928 346 922 347 l 922 356 b 933 351 924 354 928 351 b 943 358 940 351 943 354 b 933 368 943 363 940 365 b 921 382 924 372 921 378 b 938 397 921 390 926 397 b 951 394 943 397 949 396 l 949 388 b 938 390 947 389 942 390 b 929 383 932 390 929 388 b 939 375 929 381 932 378 b 953 360 949 372 953 368 m 1004 375 b 1004 369 1004 372 1004 371 l 969 369 b 986 351 969 357 978 351 b 1000 354 993 351 997 353 l 1003 349 b 985 346 999 347 993 346 b 960 371 969 346 960 354 b 985 397 960 385 969 397 b 1004 375 1000 397 1004 383 m 996 376 b 983 390 996 381 993 390 b 969 376 974 390 969 382 m 1083 415 l 1058 346 l 1049 346 l 1026 415 l 1036 415 l 1047 381 b 1056 356 1050 372 1053 363 b 1063 381 1057 363 1060 372 l 1075 415 m 1094 417 b 1100 410 1097 417 1100 414 b 1093 406 1100 408 1097 406 b 1089 410 1090 406 1089 408 b 1094 417 1089 414 1090 417 m 1089 397 l 1099 397 l 1099 346 l 1089 346 m 1125 351 b 1135 358 1132 351 1135 354 b 1125 368 1135 363 1132 365 b 1111 382 1115 372 1111 378 b 1129 397 1111 390 1118 397 b 1142 394 1135 397 1139 396 l 1140 388 b 1129 390 1138 389 1133 390 b 1119 383 1124 390 1119 388 b 1131 375 1119 381 1124 378 b 1143 360 1139 372 1143 368 b 1125 346 1143 351 1136 346 b 1110 349 1118 346 1113 347 l 1113 356 b 1125 351 1115 354 1119 351 m 1160 417 b 1165 410 1163 417 1165 414 b 1160 406 1165 408 1163 406 b 1153 410 1156 406 1153 408 b 1160 417 1153 414 1156 417 m 1165 346 l 1156 346 l 1156 397 l 1165 397 m 1190 389 l 1190 363 b 1197 351 1190 356 1192 351 b 1204 353 1200 351 1201 353 l 1204 347 b 1194 346 1201 346 1199 346 b 1185 349 1190 346 1188 347 b 1181 361 1182 351 1181 356 l 1181 389 l 1174 389 l 1174 397 l 1181 397 l 1181 408 l 1190 410 l 1190 397 l 1204 397 l 1204 389 m 308 194 l 308 206 b 286 193 301 196 294 193 b 264 219 272 193 264 203 b 308 267 264 244 282 267 b 318 265 311 267 315 267 l 324 297 l 346 297 l 331 222 b 326 194 329 213 328 203 m 296 210 b 311 229 301 210 308 215 l 315 249 b 307 251 314 250 311 251 b 285 222 294 251 285 238 b 296 210 285 214 289 210 m 382 288 b 371 274 382 279 376 274 b 360 285 364 274 360 278 b 371 296 360 290 365 296 b 382 288 378 296 382 292 m 365 194 l 343 194 l 357 265 l 378 265 m 433 235 b 433 242 433 236 433 239 b 426 250 433 247 431 250 b 408 226 421 250 411 242 l 401 194 l 382 194 l 392 242 b 394 265 393 251 393 260 l 414 265 l 411 254 l 413 254 b 438 267 419 263 426 267 b 456 247 450 267 456 261 b 453 236 456 244 454 239 l 447 194 l 425 194 m 469 240 l 507 240 l 504 225 l 465 225 m 547 251 b 539 246 543 251 539 249 b 547 238 539 242 542 240 b 564 218 556 235 564 228 b 531 193 564 201 550 193 b 510 199 521 193 514 196 l 515 213 b 532 208 518 213 525 208 b 542 214 539 208 542 213 b 533 224 542 218 540 219 b 517 242 525 228 517 235 b 549 267 517 258 531 267 b 567 263 557 267 564 265 l 563 249 b 547 251 560 250 554 251 m 600 225 b 599 215 600 222 599 218 b 606 211 599 213 600 211 b 613 211 607 211 610 211 l 610 194 b 596 193 606 193 600 193 b 578 208 583 193 578 199 b 579 221 578 213 578 215 l 585 249 l 576 249 l 578 265 l 588 265 l 592 281 l 613 286 l 608 265 l 622 265 l 619 249 l 606 249 m 669 194 l 671 207 b 644 193 663 196 654 193 b 626 213 633 193 626 199 b 628 226 626 217 628 221 l 636 265 l 656 265 l 649 228 b 647 218 649 225 647 219 b 656 210 647 213 650 210 b 672 233 664 210 671 218 l 678 265 l 701 265 l 692 218 b 688 194 690 210 688 200 m 751 194 l 753 206 b 729 193 746 196 736 193 b 706 219 717 193 706 203 b 751 267 706 244 725 267 b 763 265 756 267 758 267 l 767 297 l 788 297 l 774 222 b 769 194 772 213 771 203 m 738 210 b 756 229 744 210 753 215 l 758 249 b 750 251 757 250 754 251 b 729 222 736 251 729 238 b 738 210 729 214 733 210 m 826 288 b 813 274 826 279 819 274 b 803 285 808 274 803 278 b 814 296 803 290 808 296 b 826 288 821 296 826 292 m 808 194 l 786 194 l 800 265 l 821 265 m 857 193 b 828 222 839 193 828 206 b 869 267 828 247 844 267 b 900 238 889 267 900 254 b 857 193 900 213 882 193 m 867 251 b 849 222 856 251 849 235 b 861 210 849 214 853 210 b 879 238 872 210 879 225 b 867 251 879 244 875 251 m 918 193 b 906 206 910 193 906 199 b 919 219 906 213 911 219 b 932 207 926 219 932 214 b 918 193 932 199 925 193 m 990 250 b 967 225 976 250 967 238 b 982 210 967 214 974 210 b 996 213 986 210 992 213 l 996 196 b 976 193 990 194 985 193 b 946 222 957 193 946 204 b 992 267 946 247 964 267 b 1007 264 997 267 1003 265 l 1001 249 b 990 250 999 249 996 250 m 1038 193 b 1008 222 1019 193 1008 206 b 1050 267 1008 247 1025 267 b 1081 238 1068 267 1081 254 b 1038 193 1081 213 1061 193 m 1047 251 b 1029 222 1035 251 1029 235 b 1039 210 1029 214 1033 210 b 1058 238 1051 210 1058 225 b 1047 251 1058 244 1056 251 m 1176 235 b 1178 242 1178 236 1178 239 b 1172 250 1178 247 1175 250 b 1154 228 1165 250 1157 240 l 1149 194 l 1128 194 l 1136 235 b 1136 242 1136 236 1136 239 b 1129 250 1136 247 1135 250 b 1111 226 1122 250 1115 240 l 1107 194 l 1086 194 l 1096 242 b 1099 265 1097 251 1097 260 l 1117 265 l 1115 254 b 1140 267 1122 263 1132 267 b 1157 254 1151 267 1157 261 b 1182 267 1164 263 1174 267 b 1200 249 1193 267 1200 261 b 1199 236 1200 244 1199 239 l 1190 194 l 1171 194 m 99 456 b 14 522 44 457 14 485 b 42 561 14 553 32 561 b 60 528 64 561 71 538 b 26 519 60 546 26 549 b 99 468 26 488 56 468 b 165 567 154 468 165 525 b 125 657 165 596 167 657 b 119 642 124 657 119 656 l 119 597 b 119 596 119 597 119 596 l 119 521 b 129 504 119 504 129 504 l 129 499 l 68 499 l 68 504 b 78 518 68 504 76 504 b 78 518 78 518 78 518 l 78 644 b 63 664 78 656 76 664 b 49 656 54 664 49 658 b 61 646 49 644 61 646 b 44 628 61 631 50 628 b 25 646 26 628 25 643 b 63 674 25 664 47 674 b 125 664 88 674 96 664 b 206 567 168 664 206 642 b 99 456 206 514 174 453 m 282 499 l 219 499 l 219 504 b 231 518 219 504 229 504 l 231 585 b 219 600 229 600 219 600 l 219 604 l 269 614 l 269 521 b 282 504 269 504 282 504 m 251 660 b 269 642 263 660 269 651 b 251 622 269 631 263 622 b 233 642 240 622 233 631 b 251 660 233 651 240 660 m 346 600 b 379 615 351 606 363 615 b 414 579 397 615 414 603 b 414 521 414 579 414 521 b 424 504 414 506 421 504 l 424 499 l 363 499 l 363 504 b 372 518 363 504 371 504 l 372 583 b 346 579 372 603 346 600 l 346 521 b 357 504 346 504 357 504 l 357 499 l 296 499 l 296 504 b 306 518 296 504 304 504 l 306 585 b 296 600 304 600 296 600 l 296 604 l 346 614 l 346 600 m 535 622 b 596 664 535 622 535 664 b 644 660 626 664 632 651 b 653 663 647 661 649 663 b 653 621 653 656 653 621 l 647 619 b 596 654 647 619 642 654 b 576 611 567 654 557 619 b 672 539 601 600 674 597 b 603 499 671 515 647 499 b 547 499 560 499 556 510 b 542 499 547 499 543 499 l 542 542 l 547 542 b 601 511 547 524 576 511 b 613 560 646 511 644 550 b 535 622 583 568 535 578 m 742 608 b 731 597 742 608 733 610 l 731 518 b 742 504 732 504 742 504 l 742 499 l 725 499 b 690 531 711 499 690 499 l 690 596 b 678 608 689 610 678 608 l 678 614 b 731 629 707 614 714 629 l 731 614 l 742 614 l 742 608 m 753 615 l 813 615 l 813 608 b 804 596 813 608 804 610 l 804 535 b 831 535 804 507 831 517 l 831 593 b 821 608 831 610 821 608 l 821 615 l 882 615 l 882 608 b 869 596 882 608 871 610 l 869 518 b 882 504 871 504 882 504 l 882 499 l 853 499 b 831 517 839 499 831 510 b 801 499 826 510 818 499 b 764 535 785 499 764 510 b 764 593 764 535 764 593 b 753 608 764 608 754 608 m 1054 472 b 1032 456 1054 463 1047 456 b 967 503 1018 456 974 460 b 947 499 960 500 954 499 b 890 557 917 499 890 525 b 947 615 890 589 917 615 b 965 611 954 615 960 613 l 965 664 l 1017 656 l 1017 650 b 1006 635 1017 650 1007 651 b 1006 514 1006 635 1006 515 b 1033 463 1007 479 1017 465 b 1029 472 1031 465 1029 469 b 1042 485 1029 479 1033 485 b 1054 472 1049 485 1054 479 m 947 508 b 965 557 963 508 965 531 b 947 607 965 585 963 607 b 929 557 932 607 929 585 b 947 508 929 531 932 508 m 1085 499 l 1024 499 l 1024 504 b 1033 518 1024 504 1033 504 l 1033 585 b 1024 600 1033 600 1024 600 l 1024 604 l 1075 614 l 1075 521 b 1085 504 1075 504 1085 504 m 1036 642 b 1056 660 1036 651 1044 660 b 1074 642 1065 660 1074 651 b 1056 622 1074 631 1065 622 b 1036 642 1044 622 1036 631 m 1201 557 b 1143 499 1201 525 1175 499 b 1086 557 1111 499 1086 525 b 1143 614 1086 589 1111 614 b 1201 557 1175 614 1201 589 m 1143 508 b 1161 557 1160 508 1161 531 b 1143 606 1161 585 1160 606 b 1126 557 1128 606 1126 585 b 1143 508 1126 531 1128 508 m 22 238 l 236 238 l 236 210 l 22 210 m 496 840 l 593 964 l 725 964 l 625 840 m 1079 840 l 1178 964 l 1203 964 l 1203 840 m 106 840 l 206 964 l 336 964 l 236 840 m 690 840 l 789 964 l 919 964 l 819 840 m 42 840 l 22 840 l 22 964 l 142 964 m 301 840 l 400 964 l 531 964 l 431 840 m 885 840 l 985 964 l 1113 964 l 1015 840 m 725 157 l 625 32 l 496 32 l 593 157 m 1178 157 l 1203 157 l 1203 32 l 1079 32 m 336 157 l 236 32 l 106 32 l 206 157 m 919 157 l 819 32 l 690 32 l 789 157 m 142 157 l 42 32 l 22 32 l 22 157 m 531 157 l 431 32 l 301 32 l 400 157 m 1113 157 l 1015 32 l 885 32 l 985 157 "},"2":{"ha":1261,"x_min":0,"x_max":0,"o":"m 35 721 l 17 721 l 32 803 b 54 804 39 804 46 804 b 76 799 61 804 71 803 b 86 782 82 796 86 789 b 75 757 86 771 81 763 b 47 751 68 753 57 751 b 42 751 46 751 43 751 m 44 765 b 50 764 46 764 46 764 b 68 781 61 764 68 771 b 54 790 68 788 61 790 b 47 789 51 790 49 790 m 117 788 l 114 771 l 144 771 l 140 756 l 111 756 l 107 736 l 140 736 l 138 721 l 86 721 l 101 804 l 150 804 l 149 788 m 168 721 l 150 721 l 167 803 b 188 804 171 804 179 804 b 210 800 196 804 203 803 b 219 785 215 796 219 790 b 200 760 219 771 210 764 b 208 744 204 757 207 753 b 210 721 208 735 210 725 l 193 721 b 190 740 193 724 192 731 b 179 754 190 751 186 754 l 174 754 m 176 767 l 183 767 b 201 782 193 767 201 774 b 188 790 201 788 194 790 b 181 789 183 790 182 790 m 244 735 b 258 744 251 735 258 738 b 247 756 258 749 256 753 b 231 778 238 761 231 767 b 263 806 231 796 244 806 b 282 801 272 806 278 803 l 276 788 b 261 789 274 788 268 790 b 249 782 253 789 249 786 b 261 769 249 776 253 774 b 278 749 271 764 278 757 b 243 719 278 729 263 719 b 219 726 232 719 224 722 l 226 739 b 244 735 231 738 236 735 m 333 806 b 367 771 354 806 367 790 b 350 731 367 756 361 740 b 321 719 344 725 333 719 b 288 754 300 719 288 735 b 303 793 288 768 294 785 b 333 806 311 801 321 806 m 338 740 b 347 771 344 747 347 760 b 331 790 347 781 344 790 b 317 785 325 790 321 788 b 307 756 310 778 307 764 b 324 735 307 743 311 735 b 338 740 329 735 333 736 m 386 721 l 371 721 l 386 804 l 407 804 l 418 772 b 425 744 421 761 422 753 b 429 774 425 753 426 761 l 435 804 l 451 804 l 436 721 l 418 721 l 406 754 b 397 783 401 765 400 774 b 393 750 396 775 394 763 m 465 721 l 447 721 l 486 804 l 510 804 l 519 721 l 500 721 l 499 742 l 476 742 m 481 756 l 499 756 l 496 774 b 496 790 496 779 496 786 b 489 774 493 786 490 779 m 563 804 l 549 736 l 581 736 l 578 721 l 529 721 l 544 804 m 635 756 b 635 746 635 753 635 750 b 644 735 635 739 639 735 b 664 756 654 735 661 740 l 672 804 l 692 804 l 682 756 b 643 719 676 731 667 719 b 617 746 626 719 617 729 b 617 757 617 750 617 754 l 625 804 l 643 804 m 714 735 b 728 744 721 735 728 738 b 717 756 728 749 724 753 b 699 778 707 761 699 767 b 732 806 699 796 714 806 b 751 801 742 806 749 803 l 746 788 b 731 789 743 788 736 790 b 717 782 722 789 717 786 b 731 769 717 776 724 774 b 746 749 739 764 746 757 b 713 719 746 729 731 719 b 689 726 701 719 692 722 l 694 739 b 714 735 700 738 706 735 m 785 788 l 782 771 l 811 771 l 808 756 l 778 756 l 775 736 l 808 736 l 804 721 l 754 721 l 769 804 l 818 804 l 815 788 m 907 731 b 876 719 899 725 890 719 b 843 754 856 719 843 735 b 860 793 843 768 849 785 b 889 806 865 801 876 806 b 922 771 911 806 922 790 b 907 731 922 756 918 740 m 861 756 b 879 735 861 743 867 735 b 892 740 885 735 890 736 b 904 771 899 747 904 760 b 886 790 904 781 899 790 b 872 785 882 790 876 788 b 861 756 865 778 861 764 m 954 783 b 949 750 954 775 951 763 l 943 721 l 925 721 l 942 804 l 963 804 l 974 772 b 983 744 978 761 981 753 b 986 774 983 753 985 761 l 990 804 l 1008 804 l 992 721 l 974 721 l 961 754 b 954 783 958 765 956 774 m 1042 804 l 1029 736 l 1060 736 l 1058 721 l 1008 721 l 1025 804 m 1090 721 l 1072 721 l 1079 756 l 1061 804 l 1082 804 l 1086 783 b 1090 768 1088 776 1089 772 b 1099 783 1093 772 1096 778 l 1110 804 l 1132 804 l 1096 756 m 1149 729 b 1161 742 1149 736 1153 742 b 1171 731 1167 742 1171 738 b 1158 719 1171 725 1165 719 b 1149 729 1151 719 1149 725 m 1169 749 l 1156 749 l 1164 804 l 1182 804 m 32 408 l 32 385 l 58 385 l 58 378 l 32 378 l 32 346 l 22 346 l 22 415 l 61 415 l 61 408 m 115 372 b 90 346 115 353 101 346 b 67 371 76 346 67 354 b 90 397 67 388 76 397 b 115 372 106 397 115 388 m 76 371 b 90 351 76 360 81 351 b 106 372 100 351 106 360 b 90 390 106 381 101 390 b 76 371 79 390 76 381 m 125 346 l 125 381 b 125 397 125 386 125 392 l 133 397 l 135 386 b 149 397 138 393 143 397 b 150 397 150 397 150 397 l 150 388 b 149 389 150 389 150 389 b 136 378 142 389 138 383 b 135 374 135 376 135 375 l 135 346 m 178 381 b 215 417 178 403 193 417 b 232 414 224 417 229 415 l 229 407 b 215 410 226 408 221 410 b 188 381 199 410 188 399 b 215 351 188 363 197 351 b 229 356 219 351 226 354 l 232 349 b 213 346 229 347 222 346 b 178 381 193 346 178 357 m 263 346 b 236 371 249 346 236 354 b 263 397 236 388 249 397 b 288 372 276 397 288 388 b 263 346 288 353 274 346 m 263 390 b 246 371 251 390 246 381 b 263 351 246 360 253 351 b 278 372 271 351 278 360 b 263 390 278 381 272 390 m 360 346 l 360 375 b 349 390 360 383 357 390 b 339 381 344 390 340 386 b 338 378 339 381 338 379 l 338 346 l 329 346 l 329 378 b 319 390 329 383 325 390 b 307 381 314 390 308 385 b 307 378 307 381 307 379 l 307 346 l 297 346 l 297 382 b 297 397 297 388 297 392 l 306 397 l 306 388 l 307 388 b 322 397 308 393 314 397 b 336 388 329 397 333 393 b 343 394 338 390 340 392 b 353 397 344 397 347 397 b 369 376 360 397 369 393 l 369 346 m 456 346 l 447 346 l 447 375 b 436 390 447 383 443 390 b 424 381 431 390 426 386 b 424 378 424 381 424 379 l 424 346 l 415 346 l 415 378 b 404 390 415 383 411 390 b 393 381 399 390 394 385 b 393 378 393 381 393 379 l 393 346 l 385 346 l 385 382 b 383 397 385 388 385 392 l 392 397 l 392 388 l 393 388 b 408 397 394 393 400 397 b 421 388 415 397 421 393 b 428 394 424 390 425 392 b 439 397 431 397 433 397 b 456 376 446 397 456 393 m 513 375 b 511 369 513 372 511 371 l 476 369 b 493 351 476 357 485 351 b 507 354 499 351 503 353 l 508 349 b 492 346 506 347 500 346 b 467 371 476 346 467 354 b 490 397 467 385 476 397 b 513 375 507 397 513 383 m 503 376 b 489 390 503 381 500 390 b 476 376 481 390 476 382 m 522 381 b 522 397 522 386 522 392 l 529 397 l 531 386 b 544 397 533 393 539 397 b 547 397 544 397 546 397 l 547 388 b 543 389 546 389 544 389 b 532 378 539 389 533 383 b 532 374 532 376 532 375 l 532 346 l 522 346 l 522 381 m 592 349 b 576 346 589 347 583 346 b 551 371 561 346 551 356 b 578 397 551 386 563 397 b 592 394 583 397 589 396 l 589 388 b 578 390 588 389 583 390 b 561 371 567 390 561 381 b 578 351 561 360 567 351 b 590 354 583 351 588 354 l 592 349 m 606 417 b 613 410 610 417 613 414 b 606 406 613 408 610 406 b 600 410 603 406 600 408 b 606 417 600 414 603 417 m 601 397 l 611 397 l 611 346 l 601 346 m 636 346 b 621 358 626 346 621 351 b 651 379 621 372 632 379 b 640 390 651 383 650 390 b 628 388 636 390 631 389 l 625 393 b 640 397 629 396 636 397 b 661 378 657 397 661 388 l 661 358 b 661 346 661 354 661 349 l 653 346 l 651 351 b 636 346 649 349 643 346 m 651 372 b 631 361 642 372 631 369 b 639 351 631 354 635 351 b 651 360 644 351 649 356 b 651 363 651 361 651 363 l 651 372 m 675 419 l 685 419 l 685 346 l 675 346 m 710 358 b 700 333 707 350 703 339 l 693 333 b 699 358 696 339 699 350 m 743 414 b 760 417 747 415 753 417 b 779 410 768 417 775 414 b 786 397 785 408 786 403 b 781 381 786 390 785 385 b 760 374 775 376 768 374 b 751 375 757 374 754 374 l 751 346 l 743 346 m 751 381 b 760 381 754 381 757 381 b 776 396 769 381 776 385 b 761 410 776 406 769 410 b 751 410 757 410 753 410 m 797 419 l 806 419 l 806 346 l 797 346 m 860 349 b 842 346 856 347 850 346 b 817 371 826 346 817 354 b 840 397 817 385 826 397 b 861 375 857 397 861 383 b 861 369 861 372 861 371 l 826 369 b 843 351 826 357 835 351 b 857 354 850 351 854 353 l 860 349 m 839 390 b 826 376 831 390 826 382 l 853 376 b 839 390 853 381 850 390 m 900 346 l 899 351 b 883 346 897 349 892 346 b 868 358 874 346 868 351 b 899 379 868 372 879 379 b 889 390 899 383 897 390 b 875 388 883 390 878 389 l 872 393 b 889 397 876 396 883 397 b 908 378 904 397 908 388 l 908 358 b 908 346 908 354 908 349 m 899 372 b 878 361 890 372 878 369 b 886 351 878 354 882 351 b 899 360 892 351 897 356 b 899 363 899 361 899 363 m 953 360 b 933 346 953 351 946 346 b 919 349 928 346 922 347 l 922 356 b 933 351 924 354 928 351 b 943 358 940 351 943 354 b 933 368 943 363 940 365 b 921 382 924 372 921 378 b 938 397 921 390 926 397 b 951 394 943 397 949 396 l 949 388 b 938 390 947 389 942 390 b 929 383 932 390 929 388 b 939 375 929 381 932 378 b 953 360 949 372 953 368 m 1004 375 b 1004 369 1004 372 1004 371 l 969 369 b 986 351 969 357 978 351 b 1000 354 993 351 997 353 l 1003 349 b 985 346 999 347 993 346 b 960 371 969 346 960 354 b 985 397 960 385 969 397 b 1004 375 1000 397 1004 383 m 996 376 b 983 390 996 381 993 390 b 969 376 974 390 969 382 m 1083 415 l 1058 346 l 1049 346 l 1026 415 l 1036 415 l 1047 381 b 1056 356 1050 372 1053 363 b 1063 381 1057 363 1060 372 l 1075 415 m 1094 417 b 1100 410 1097 417 1100 414 b 1093 406 1100 408 1097 406 b 1089 410 1090 406 1089 408 b 1094 417 1089 414 1090 417 m 1089 397 l 1099 397 l 1099 346 l 1089 346 m 1125 351 b 1135 358 1132 351 1135 354 b 1125 368 1135 363 1132 365 b 1111 382 1115 372 1111 378 b 1129 397 1111 390 1118 397 b 1142 394 1135 397 1139 396 l 1140 388 b 1129 390 1138 389 1133 390 b 1119 383 1124 390 1119 388 b 1131 375 1119 381 1124 378 b 1143 360 1139 372 1143 368 b 1125 346 1143 351 1136 346 b 1110 349 1118 346 1113 347 l 1113 356 b 1125 351 1115 354 1119 351 m 1160 417 b 1165 410 1163 417 1165 414 b 1160 406 1165 408 1163 406 b 1153 410 1156 406 1153 408 b 1160 417 1153 414 1156 417 m 1165 346 l 1156 346 l 1156 397 l 1165 397 m 1190 389 l 1190 363 b 1197 351 1190 356 1192 351 b 1204 353 1200 351 1201 353 l 1204 347 b 1194 346 1201 346 1199 346 b 1185 349 1190 346 1188 347 b 1181 361 1182 351 1181 356 l 1181 389 l 1174 389 l 1174 397 l 1181 397 l 1181 408 l 1190 410 l 1190 397 l 1204 397 l 1204 389 m 308 194 l 308 206 b 286 193 301 196 294 193 b 264 219 272 193 264 203 b 308 267 264 244 282 267 b 318 265 311 267 315 267 l 324 297 l 346 297 l 331 222 b 326 194 329 213 328 203 m 296 210 b 311 229 301 210 308 215 l 315 249 b 307 251 314 250 311 251 b 285 222 294 251 285 238 b 296 210 285 214 289 210 m 382 288 b 371 274 382 279 376 274 b 360 285 364 274 360 278 b 371 296 360 290 365 296 b 382 288 378 296 382 292 m 365 194 l 343 194 l 357 265 l 378 265 m 433 235 b 433 242 433 236 433 239 b 426 250 433 247 431 250 b 408 226 421 250 411 242 l 401 194 l 382 194 l 392 242 b 394 265 393 251 393 260 l 414 265 l 411 254 l 413 254 b 438 267 419 263 426 267 b 456 247 450 267 456 261 b 453 236 456 244 454 239 l 447 194 l 425 194 m 469 240 l 507 240 l 504 225 l 465 225 m 547 251 b 539 246 543 251 539 249 b 547 238 539 242 542 240 b 564 218 556 235 564 228 b 531 193 564 201 550 193 b 510 199 521 193 514 196 l 515 213 b 532 208 518 213 525 208 b 542 214 539 208 542 213 b 533 224 542 218 540 219 b 517 242 525 228 517 235 b 549 267 517 258 531 267 b 567 263 557 267 564 265 l 563 249 b 547 251 560 250 554 251 m 600 225 b 599 215 600 222 599 218 b 606 211 599 213 600 211 b 613 211 607 211 610 211 l 610 194 b 596 193 606 193 600 193 b 578 208 583 193 578 199 b 579 221 578 213 578 215 l 585 249 l 576 249 l 578 265 l 588 265 l 592 281 l 613 286 l 608 265 l 622 265 l 619 249 l 606 249 m 669 194 l 671 207 b 644 193 663 196 654 193 b 626 213 633 193 626 199 b 628 226 626 217 628 221 l 636 265 l 656 265 l 649 228 b 647 218 649 225 647 219 b 656 210 647 213 650 210 b 672 233 664 210 671 218 l 678 265 l 701 265 l 692 218 b 688 194 690 210 688 200 m 751 194 l 753 206 b 729 193 746 196 736 193 b 706 219 717 193 706 203 b 751 267 706 244 725 267 b 763 265 756 267 758 267 l 767 297 l 788 297 l 774 222 b 769 194 772 213 771 203 m 738 210 b 756 229 744 210 753 215 l 758 249 b 750 251 757 250 754 251 b 729 222 736 251 729 238 b 738 210 729 214 733 210 m 826 288 b 813 274 826 279 819 274 b 803 285 808 274 803 278 b 814 296 803 290 808 296 b 826 288 821 296 826 292 m 808 194 l 786 194 l 800 265 l 821 265 m 857 193 b 828 222 839 193 828 206 b 869 267 828 247 844 267 b 900 238 889 267 900 254 b 857 193 900 213 882 193 m 867 251 b 849 222 856 251 849 235 b 861 210 849 214 853 210 b 879 238 872 210 879 225 b 867 251 879 244 875 251 m 918 193 b 906 206 910 193 906 199 b 919 219 906 213 911 219 b 932 207 926 219 932 214 b 918 193 932 199 925 193 m 990 250 b 967 225 976 250 967 238 b 982 210 967 214 974 210 b 996 213 986 210 992 213 l 996 196 b 976 193 990 194 985 193 b 946 222 957 193 946 204 b 992 267 946 247 964 267 b 1007 264 997 267 1003 265 l 1001 249 b 990 250 999 249 996 250 m 1038 193 b 1008 222 1019 193 1008 206 b 1050 267 1008 247 1025 267 b 1081 238 1068 267 1081 254 b 1038 193 1081 213 1061 193 m 1047 251 b 1029 222 1035 251 1029 235 b 1039 210 1029 214 1033 210 b 1058 238 1051 210 1058 225 b 1047 251 1058 244 1056 251 m 1176 235 b 1178 242 1178 236 1178 239 b 1172 250 1178 247 1175 250 b 1154 228 1165 250 1157 240 l 1149 194 l 1128 194 l 1136 235 b 1136 242 1136 236 1136 239 b 1129 250 1136 247 1135 250 b 1111 226 1122 250 1115 240 l 1107 194 l 1086 194 l 1096 242 b 1099 265 1097 251 1097 260 l 1117 265 l 1115 254 b 1140 267 1122 263 1132 267 b 1157 254 1151 267 1157 261 b 1182 267 1164 263 1174 267 b 1200 249 1193 267 1200 261 b 1199 236 1200 244 1199 239 l 1190 194 l 1171 194 m 99 456 b 14 522 44 457 14 485 b 42 561 14 553 32 561 b 60 528 64 561 71 538 b 26 519 60 546 26 549 b 99 468 26 488 56 468 b 165 567 154 468 165 525 b 125 657 165 596 167 657 b 119 642 124 657 119 656 l 119 597 b 119 596 119 597 119 596 l 119 521 b 129 504 119 504 129 504 l 129 499 l 68 499 l 68 504 b 78 518 68 504 76 504 b 78 518 78 518 78 518 l 78 644 b 63 664 78 656 76 664 b 49 656 54 664 49 658 b 61 646 49 644 61 646 b 44 628 61 631 50 628 b 25 646 26 628 25 643 b 63 674 25 664 47 674 b 125 664 88 674 96 664 b 206 567 168 664 206 642 b 99 456 206 514 174 453 m 282 499 l 219 499 l 219 504 b 231 518 219 504 229 504 l 231 585 b 219 600 229 600 219 600 l 219 604 l 269 614 l 269 521 b 282 504 269 504 282 504 m 251 660 b 269 642 263 660 269 651 b 251 622 269 631 263 622 b 233 642 240 622 233 631 b 251 660 233 651 240 660 m 346 600 b 379 615 351 606 363 615 b 414 579 397 615 414 603 b 414 521 414 579 414 521 b 424 504 414 506 421 504 l 424 499 l 363 499 l 363 504 b 372 518 363 504 371 504 l 372 583 b 346 579 372 603 346 600 l 346 521 b 357 504 346 504 357 504 l 357 499 l 296 499 l 296 504 b 306 518 296 504 304 504 l 306 585 b 296 600 304 600 296 600 l 296 604 l 346 614 l 346 600 m 535 622 b 596 664 535 622 535 664 b 644 660 626 664 632 651 b 653 663 647 661 649 663 b 653 621 653 656 653 621 l 647 619 b 596 654 647 619 642 654 b 576 611 567 654 557 619 b 672 539 601 600 674 597 b 603 499 671 515 647 499 b 547 499 560 499 556 510 b 542 499 547 499 543 499 l 542 542 l 547 542 b 601 511 547 524 576 511 b 613 560 646 511 644 550 b 535 622 583 568 535 578 m 742 608 b 731 597 742 608 733 610 l 731 518 b 742 504 732 504 742 504 l 742 499 l 725 499 b 690 531 711 499 690 499 l 690 596 b 678 608 689 610 678 608 l 678 614 b 731 629 707 614 714 629 l 731 614 l 742 614 l 742 608 m 753 615 l 813 615 l 813 608 b 804 596 813 608 804 610 l 804 535 b 831 535 804 507 831 517 l 831 593 b 821 608 831 610 821 608 l 821 615 l 882 615 l 882 608 b 869 596 882 608 871 610 l 869 518 b 882 504 871 504 882 504 l 882 499 l 853 499 b 831 517 839 499 831 510 b 801 499 826 510 818 499 b 764 535 785 499 764 510 b 764 593 764 535 764 593 b 753 608 764 608 754 608 m 1054 472 b 1032 456 1054 463 1047 456 b 967 503 1018 456 974 460 b 947 499 960 500 954 499 b 890 557 917 499 890 525 b 947 615 890 589 917 615 b 965 611 954 615 960 613 l 965 664 l 1017 656 l 1017 650 b 1006 635 1017 650 1007 651 b 1006 514 1006 635 1006 515 b 1033 463 1007 479 1017 465 b 1029 472 1031 465 1029 469 b 1042 485 1029 479 1033 485 b 1054 472 1049 485 1054 479 m 947 508 b 965 557 963 508 965 531 b 947 607 965 585 963 607 b 929 557 932 607 929 585 b 947 508 929 531 932 508 m 1085 499 l 1024 499 l 1024 504 b 1033 518 1024 504 1033 504 l 1033 585 b 1024 600 1033 600 1024 600 l 1024 604 l 1075 614 l 1075 521 b 1085 504 1075 504 1085 504 m 1036 642 b 1056 660 1036 651 1044 660 b 1074 642 1065 660 1074 651 b 1056 622 1074 631 1065 622 b 1036 642 1044 622 1036 631 m 1201 557 b 1143 499 1201 525 1175 499 b 1086 557 1111 499 1086 525 b 1143 614 1086 589 1111 614 b 1201 557 1175 614 1201 589 m 1143 508 b 1161 557 1160 508 1161 531 b 1143 606 1161 585 1160 606 b 1126 557 1128 606 1126 585 b 1143 508 1126 531 1128 508 m 22 238 l 236 238 l 236 210 l 22 210 m 496 840 l 593 964 l 725 964 l 625 840 m 1079 840 l 1178 964 l 1203 964 l 1203 840 m 106 840 l 206 964 l 336 964 l 236 840 m 690 840 l 789 964 l 919 964 l 819 840 m 42 840 l 22 840 l 22 964 l 142 964 m 301 840 l 400 964 l 531 964 l 431 840 m 885 840 l 985 964 l 1113 964 l 1015 840 m 725 157 l 625 32 l 496 32 l 593 157 m 1178 157 l 1203 157 l 1203 32 l 1079 32 m 336 157 l 236 32 l 106 32 l 206 157 m 919 157 l 819 32 l 690 32 l 789 157 m 142 157 l 42 32 l 22 32 l 22 157 m 531 157 l 431 32 l 301 32 l 400 157 m 1113 157 l 1015 32 l 885 32 l 985 157 "},"3":{"ha":1261,"x_min":0,"x_max":0,"o":"m 35 721 l 17 721 l 32 803 b 54 804 39 804 46 804 b 76 799 61 804 71 803 b 86 782 82 796 86 789 b 75 757 86 771 81 763 b 47 751 68 753 57 751 b 42 751 46 751 43 751 m 44 765 b 50 764 46 764 46 764 b 68 781 61 764 68 771 b 54 790 68 788 61 790 b 47 789 51 790 49 790 m 117 788 l 114 771 l 144 771 l 140 756 l 111 756 l 107 736 l 140 736 l 138 721 l 86 721 l 101 804 l 150 804 l 149 788 m 168 721 l 150 721 l 167 803 b 188 804 171 804 179 804 b 210 800 196 804 203 803 b 219 785 215 796 219 790 b 200 760 219 771 210 764 b 208 744 204 757 207 753 b 210 721 208 735 210 725 l 193 721 b 190 740 193 724 192 731 b 179 754 190 751 186 754 l 174 754 m 176 767 l 183 767 b 201 782 193 767 201 774 b 188 790 201 788 194 790 b 181 789 183 790 182 790 m 244 735 b 258 744 251 735 258 738 b 247 756 258 749 256 753 b 231 778 238 761 231 767 b 263 806 231 796 244 806 b 282 801 272 806 278 803 l 276 788 b 261 789 274 788 268 790 b 249 782 253 789 249 786 b 261 769 249 776 253 774 b 278 749 271 764 278 757 b 243 719 278 729 263 719 b 219 726 232 719 224 722 l 226 739 b 244 735 231 738 236 735 m 333 806 b 367 771 354 806 367 790 b 350 731 367 756 361 740 b 321 719 344 725 333 719 b 288 754 300 719 288 735 b 303 793 288 768 294 785 b 333 806 311 801 321 806 m 338 740 b 347 771 344 747 347 760 b 331 790 347 781 344 790 b 317 785 325 790 321 788 b 307 756 310 778 307 764 b 324 735 307 743 311 735 b 338 740 329 735 333 736 m 386 721 l 371 721 l 386 804 l 407 804 l 418 772 b 425 744 421 761 422 753 b 429 774 425 753 426 761 l 435 804 l 451 804 l 436 721 l 418 721 l 406 754 b 397 783 401 765 400 774 b 393 750 396 775 394 763 m 465 721 l 447 721 l 486 804 l 510 804 l 519 721 l 500 721 l 499 742 l 476 742 m 481 756 l 499 756 l 496 774 b 496 790 496 779 496 786 b 489 774 493 786 490 779 m 563 804 l 549 736 l 581 736 l 578 721 l 529 721 l 544 804 m 635 756 b 635 746 635 753 635 750 b 644 735 635 739 639 735 b 664 756 654 735 661 740 l 672 804 l 692 804 l 682 756 b 643 719 676 731 667 719 b 617 746 626 719 617 729 b 617 757 617 750 617 754 l 625 804 l 643 804 m 714 735 b 728 744 721 735 728 738 b 717 756 728 749 724 753 b 699 778 707 761 699 767 b 732 806 699 796 714 806 b 751 801 742 806 749 803 l 746 788 b 731 789 743 788 736 790 b 717 782 722 789 717 786 b 731 769 717 776 724 774 b 746 749 739 764 746 757 b 713 719 746 729 731 719 b 689 726 701 719 692 722 l 694 739 b 714 735 700 738 706 735 m 785 788 l 782 771 l 811 771 l 808 756 l 778 756 l 775 736 l 808 736 l 804 721 l 754 721 l 769 804 l 818 804 l 815 788 m 907 731 b 876 719 899 725 890 719 b 843 754 856 719 843 735 b 860 793 843 768 849 785 b 889 806 865 801 876 806 b 922 771 911 806 922 790 b 907 731 922 756 918 740 m 861 756 b 879 735 861 743 867 735 b 892 740 885 735 890 736 b 904 771 899 747 904 760 b 886 790 904 781 899 790 b 872 785 882 790 876 788 b 861 756 865 778 861 764 m 954 783 b 949 750 954 775 951 763 l 943 721 l 925 721 l 942 804 l 963 804 l 974 772 b 983 744 978 761 981 753 b 986 774 983 753 985 761 l 990 804 l 1008 804 l 992 721 l 974 721 l 961 754 b 954 783 958 765 956 774 m 1042 804 l 1029 736 l 1060 736 l 1058 721 l 1008 721 l 1025 804 m 1090 721 l 1072 721 l 1079 756 l 1061 804 l 1082 804 l 1086 783 b 1090 768 1088 776 1089 772 b 1099 783 1093 772 1096 778 l 1110 804 l 1132 804 l 1096 756 m 1149 729 b 1161 742 1149 736 1153 742 b 1171 731 1167 742 1171 738 b 1158 719 1171 725 1165 719 b 1149 729 1151 719 1149 725 m 1169 749 l 1156 749 l 1164 804 l 1182 804 m 32 408 l 32 385 l 58 385 l 58 378 l 32 378 l 32 346 l 22 346 l 22 415 l 61 415 l 61 408 m 115 372 b 90 346 115 353 101 346 b 67 371 76 346 67 354 b 90 397 67 388 76 397 b 115 372 106 397 115 388 m 76 371 b 90 351 76 360 81 351 b 106 372 100 351 106 360 b 90 390 106 381 101 390 b 76 371 79 390 76 381 m 125 346 l 125 381 b 125 397 125 386 125 392 l 133 397 l 135 386 b 149 397 138 393 143 397 b 150 397 150 397 150 397 l 150 388 b 149 389 150 389 150 389 b 136 378 142 389 138 383 b 135 374 135 376 135 375 l 135 346 m 178 381 b 215 417 178 403 193 417 b 232 414 224 417 229 415 l 229 407 b 215 410 226 408 221 410 b 188 381 199 410 188 399 b 215 351 188 363 197 351 b 229 356 219 351 226 354 l 232 349 b 213 346 229 347 222 346 b 178 381 193 346 178 357 m 263 346 b 236 371 249 346 236 354 b 263 397 236 388 249 397 b 288 372 276 397 288 388 b 263 346 288 353 274 346 m 263 390 b 246 371 251 390 246 381 b 263 351 246 360 253 351 b 278 372 271 351 278 360 b 263 390 278 381 272 390 m 360 346 l 360 375 b 349 390 360 383 357 390 b 339 381 344 390 340 386 b 338 378 339 381 338 379 l 338 346 l 329 346 l 329 378 b 319 390 329 383 325 390 b 307 381 314 390 308 385 b 307 378 307 381 307 379 l 307 346 l 297 346 l 297 382 b 297 397 297 388 297 392 l 306 397 l 306 388 l 307 388 b 322 397 308 393 314 397 b 336 388 329 397 333 393 b 343 394 338 390 340 392 b 353 397 344 397 347 397 b 369 376 360 397 369 393 l 369 346 m 456 346 l 447 346 l 447 375 b 436 390 447 383 443 390 b 424 381 431 390 426 386 b 424 378 424 381 424 379 l 424 346 l 415 346 l 415 378 b 404 390 415 383 411 390 b 393 381 399 390 394 385 b 393 378 393 381 393 379 l 393 346 l 385 346 l 385 382 b 383 397 385 388 385 392 l 392 397 l 392 388 l 393 388 b 408 397 394 393 400 397 b 421 388 415 397 421 393 b 428 394 424 390 425 392 b 439 397 431 397 433 397 b 456 376 446 397 456 393 m 513 375 b 511 369 513 372 511 371 l 476 369 b 493 351 476 357 485 351 b 507 354 499 351 503 353 l 508 349 b 492 346 506 347 500 346 b 467 371 476 346 467 354 b 490 397 467 385 476 397 b 513 375 507 397 513 383 m 503 376 b 489 390 503 381 500 390 b 476 376 481 390 476 382 m 522 381 b 522 397 522 386 522 392 l 529 397 l 531 386 b 544 397 533 393 539 397 b 547 397 544 397 546 397 l 547 388 b 543 389 546 389 544 389 b 532 378 539 389 533 383 b 532 374 532 376 532 375 l 532 346 l 522 346 l 522 381 m 592 349 b 576 346 589 347 583 346 b 551 371 561 346 551 356 b 578 397 551 386 563 397 b 592 394 583 397 589 396 l 589 388 b 578 390 588 389 583 390 b 561 371 567 390 561 381 b 578 351 561 360 567 351 b 590 354 583 351 588 354 l 592 349 m 606 417 b 613 410 610 417 613 414 b 606 406 613 408 610 406 b 600 410 603 406 600 408 b 606 417 600 414 603 417 m 601 397 l 611 397 l 611 346 l 601 346 m 636 346 b 621 358 626 346 621 351 b 651 379 621 372 632 379 b 640 390 651 383 650 390 b 628 388 636 390 631 389 l 625 393 b 640 397 629 396 636 397 b 661 378 657 397 661 388 l 661 358 b 661 346 661 354 661 349 l 653 346 l 651 351 b 636 346 649 349 643 346 m 651 372 b 631 361 642 372 631 369 b 639 351 631 354 635 351 b 651 360 644 351 649 356 b 651 363 651 361 651 363 l 651 372 m 675 419 l 685 419 l 685 346 l 675 346 m 710 358 b 700 333 707 350 703 339 l 693 333 b 699 358 696 339 699 350 m 743 414 b 760 417 747 415 753 417 b 779 410 768 417 775 414 b 786 397 785 408 786 403 b 781 381 786 390 785 385 b 760 374 775 376 768 374 b 751 375 757 374 754 374 l 751 346 l 743 346 m 751 381 b 760 381 754 381 757 381 b 776 396 769 381 776 385 b 761 410 776 406 769 410 b 751 410 757 410 753 410 m 797 419 l 806 419 l 806 346 l 797 346 m 860 349 b 842 346 856 347 850 346 b 817 371 826 346 817 354 b 840 397 817 385 826 397 b 861 375 857 397 861 383 b 861 369 861 372 861 371 l 826 369 b 843 351 826 357 835 351 b 857 354 850 351 854 353 l 860 349 m 839 390 b 826 376 831 390 826 382 l 853 376 b 839 390 853 381 850 390 m 900 346 l 899 351 b 883 346 897 349 892 346 b 868 358 874 346 868 351 b 899 379 868 372 879 379 b 889 390 899 383 897 390 b 875 388 883 390 878 389 l 872 393 b 889 397 876 396 883 397 b 908 378 904 397 908 388 l 908 358 b 908 346 908 354 908 349 m 899 372 b 878 361 890 372 878 369 b 886 351 878 354 882 351 b 899 360 892 351 897 356 b 899 363 899 361 899 363 m 953 360 b 933 346 953 351 946 346 b 919 349 928 346 922 347 l 922 356 b 933 351 924 354 928 351 b 943 358 940 351 943 354 b 933 368 943 363 940 365 b 921 382 924 372 921 378 b 938 397 921 390 926 397 b 951 394 943 397 949 396 l 949 388 b 938 390 947 389 942 390 b 929 383 932 390 929 388 b 939 375 929 381 932 378 b 953 360 949 372 953 368 m 1004 375 b 1004 369 1004 372 1004 371 l 969 369 b 986 351 969 357 978 351 b 1000 354 993 351 997 353 l 1003 349 b 985 346 999 347 993 346 b 960 371 969 346 960 354 b 985 397 960 385 969 397 b 1004 375 1000 397 1004 383 m 996 376 b 983 390 996 381 993 390 b 969 376 974 390 969 382 m 1083 415 l 1058 346 l 1049 346 l 1026 415 l 1036 415 l 1047 381 b 1056 356 1050 372 1053 363 b 1063 381 1057 363 1060 372 l 1075 415 m 1094 417 b 1100 410 1097 417 1100 414 b 1093 406 1100 408 1097 406 b 1089 410 1090 406 1089 408 b 1094 417 1089 414 1090 417 m 1089 397 l 1099 397 l 1099 346 l 1089 346 m 1125 351 b 1135 358 1132 351 1135 354 b 1125 368 1135 363 1132 365 b 1111 382 1115 372 1111 378 b 1129 397 1111 390 1118 397 b 1142 394 1135 397 1139 396 l 1140 388 b 1129 390 1138 389 1133 390 b 1119 383 1124 390 1119 388 b 1131 375 1119 381 1124 378 b 1143 360 1139 372 1143 368 b 1125 346 1143 351 1136 346 b 1110 349 1118 346 1113 347 l 1113 356 b 1125 351 1115 354 1119 351 m 1160 417 b 1165 410 1163 417 1165 414 b 1160 406 1165 408 1163 406 b 1153 410 1156 406 1153 408 b 1160 417 1153 414 1156 417 m 1165 346 l 1156 346 l 1156 397 l 1165 397 m 1190 389 l 1190 363 b 1197 351 1190 356 1192 351 b 1204 353 1200 351 1201 353 l 1204 347 b 1194 346 1201 346 1199 346 b 1185 349 1190 346 1188 347 b 1181 361 1182 351 1181 356 l 1181 389 l 1174 389 l 1174 397 l 1181 397 l 1181 408 l 1190 410 l 1190 397 l 1204 397 l 1204 389 m 308 194 l 308 206 b 286 193 301 196 294 193 b 264 219 272 193 264 203 b 308 267 264 244 282 267 b 318 265 311 267 315 267 l 324 297 l 346 297 l 331 222 b 326 194 329 213 328 203 m 296 210 b 311 229 301 210 308 215 l 315 249 b 307 251 314 250 311 251 b 285 222 294 251 285 238 b 296 210 285 214 289 210 m 382 288 b 371 274 382 279 376 274 b 360 285 364 274 360 278 b 371 296 360 290 365 296 b 382 288 378 296 382 292 m 365 194 l 343 194 l 357 265 l 378 265 m 433 235 b 433 242 433 236 433 239 b 426 250 433 247 431 250 b 408 226 421 250 411 242 l 401 194 l 382 194 l 392 242 b 394 265 393 251 393 260 l 414 265 l 411 254 l 413 254 b 438 267 419 263 426 267 b 456 247 450 267 456 261 b 453 236 456 244 454 239 l 447 194 l 425 194 m 469 240 l 507 240 l 504 225 l 465 225 m 547 251 b 539 246 543 251 539 249 b 547 238 539 242 542 240 b 564 218 556 235 564 228 b 531 193 564 201 550 193 b 510 199 521 193 514 196 l 515 213 b 532 208 518 213 525 208 b 542 214 539 208 542 213 b 533 224 542 218 540 219 b 517 242 525 228 517 235 b 549 267 517 258 531 267 b 567 263 557 267 564 265 l 563 249 b 547 251 560 250 554 251 m 600 225 b 599 215 600 222 599 218 b 606 211 599 213 600 211 b 613 211 607 211 610 211 l 610 194 b 596 193 606 193 600 193 b 578 208 583 193 578 199 b 579 221 578 213 578 215 l 585 249 l 576 249 l 578 265 l 588 265 l 592 281 l 613 286 l 608 265 l 622 265 l 619 249 l 606 249 m 669 194 l 671 207 b 644 193 663 196 654 193 b 626 213 633 193 626 199 b 628 226 626 217 628 221 l 636 265 l 656 265 l 649 228 b 647 218 649 225 647 219 b 656 210 647 213 650 210 b 672 233 664 210 671 218 l 678 265 l 701 265 l 692 218 b 688 194 690 210 688 200 m 751 194 l 753 206 b 729 193 746 196 736 193 b 706 219 717 193 706 203 b 751 267 706 244 725 267 b 763 265 756 267 758 267 l 767 297 l 788 297 l 774 222 b 769 194 772 213 771 203 m 738 210 b 756 229 744 210 753 215 l 758 249 b 750 251 757 250 754 251 b 729 222 736 251 729 238 b 738 210 729 214 733 210 m 826 288 b 813 274 826 279 819 274 b 803 285 808 274 803 278 b 814 296 803 290 808 296 b 826 288 821 296 826 292 m 808 194 l 786 194 l 800 265 l 821 265 m 857 193 b 828 222 839 193 828 206 b 869 267 828 247 844 267 b 900 238 889 267 900 254 b 857 193 900 213 882 193 m 867 251 b 849 222 856 251 849 235 b 861 210 849 214 853 210 b 879 238 872 210 879 225 b 867 251 879 244 875 251 m 918 193 b 906 206 910 193 906 199 b 919 219 906 213 911 219 b 932 207 926 219 932 214 b 918 193 932 199 925 193 m 990 250 b 967 225 976 250 967 238 b 982 210 967 214 974 210 b 996 213 986 210 992 213 l 996 196 b 976 193 990 194 985 193 b 946 222 957 193 946 204 b 992 267 946 247 964 267 b 1007 264 997 267 1003 265 l 1001 249 b 990 250 999 249 996 250 m 1038 193 b 1008 222 1019 193 1008 206 b 1050 267 1008 247 1025 267 b 1081 238 1068 267 1081 254 b 1038 193 1081 213 1061 193 m 1047 251 b 1029 222 1035 251 1029 235 b 1039 210 1029 214 1033 210 b 1058 238 1051 210 1058 225 b 1047 251 1058 244 1056 251 m 1176 235 b 1178 242 1178 236 1178 239 b 1172 250 1178 247 1175 250 b 1154 228 1165 250 1157 240 l 1149 194 l 1128 194 l 1136 235 b 1136 242 1136 236 1136 239 b 1129 250 1136 247 1135 250 b 1111 226 1122 250 1115 240 l 1107 194 l 1086 194 l 1096 242 b 1099 265 1097 251 1097 260 l 1117 265 l 1115 254 b 1140 267 1122 263 1132 267 b 1157 254 1151 267 1157 261 b 1182 267 1164 263 1174 267 b 1200 249 1193 267 1200 261 b 1199 236 1200 244 1199 239 l 1190 194 l 1171 194 m 99 456 b 14 522 44 457 14 485 b 42 561 14 553 32 561 b 60 528 64 561 71 538 b 26 519 60 546 26 549 b 99 468 26 488 56 468 b 165 567 154 468 165 525 b 125 657 165 596 167 657 b 119 642 124 657 119 656 l 119 597 b 119 596 119 597 119 596 l 119 521 b 129 504 119 504 129 504 l 129 499 l 68 499 l 68 504 b 78 518 68 504 76 504 b 78 518 78 518 78 518 l 78 644 b 63 664 78 656 76 664 b 49 656 54 664 49 658 b 61 646 49 644 61 646 b 44 628 61 631 50 628 b 25 646 26 628 25 643 b 63 674 25 664 47 674 b 125 664 88 674 96 664 b 206 567 168 664 206 642 b 99 456 206 514 174 453 m 282 499 l 219 499 l 219 504 b 231 518 219 504 229 504 l 231 585 b 219 600 229 600 219 600 l 219 604 l 269 614 l 269 521 b 282 504 269 504 282 504 m 251 660 b 269 642 263 660 269 651 b 251 622 269 631 263 622 b 233 642 240 622 233 631 b 251 660 233 651 240 660 m 346 600 b 379 615 351 606 363 615 b 414 579 397 615 414 603 b 414 521 414 579 414 521 b 424 504 414 506 421 504 l 424 499 l 363 499 l 363 504 b 372 518 363 504 371 504 l 372 583 b 346 579 372 603 346 600 l 346 521 b 357 504 346 504 357 504 l 357 499 l 296 499 l 296 504 b 306 518 296 504 304 504 l 306 585 b 296 600 304 600 296 600 l 296 604 l 346 614 l 346 600 m 535 622 b 596 664 535 622 535 664 b 644 660 626 664 632 651 b 653 663 647 661 649 663 b 653 621 653 656 653 621 l 647 619 b 596 654 647 619 642 654 b 576 611 567 654 557 619 b 672 539 601 600 674 597 b 603 499 671 515 647 499 b 547 499 560 499 556 510 b 542 499 547 499 543 499 l 542 542 l 547 542 b 601 511 547 524 576 511 b 613 560 646 511 644 550 b 535 622 583 568 535 578 m 742 608 b 731 597 742 608 733 610 l 731 518 b 742 504 732 504 742 504 l 742 499 l 725 499 b 690 531 711 499 690 499 l 690 596 b 678 608 689 610 678 608 l 678 614 b 731 629 707 614 714 629 l 731 614 l 742 614 l 742 608 m 753 615 l 813 615 l 813 608 b 804 596 813 608 804 610 l 804 535 b 831 535 804 507 831 517 l 831 593 b 821 608 831 610 821 608 l 821 615 l 882 615 l 882 608 b 869 596 882 608 871 610 l 869 518 b 882 504 871 504 882 504 l 882 499 l 853 499 b 831 517 839 499 831 510 b 801 499 826 510 818 499 b 764 535 785 499 764 510 b 764 593 764 535 764 593 b 753 608 764 608 754 608 m 1054 472 b 1032 456 1054 463 1047 456 b 967 503 1018 456 974 460 b 947 499 960 500 954 499 b 890 557 917 499 890 525 b 947 615 890 589 917 615 b 965 611 954 615 960 613 l 965 664 l 1017 656 l 1017 650 b 1006 635 1017 650 1007 651 b 1006 514 1006 635 1006 515 b 1033 463 1007 479 1017 465 b 1029 472 1031 465 1029 469 b 1042 485 1029 479 1033 485 b 1054 472 1049 485 1054 479 m 947 508 b 965 557 963 508 965 531 b 947 607 965 585 963 607 b 929 557 932 607 929 585 b 947 508 929 531 932 508 m 1085 499 l 1024 499 l 1024 504 b 1033 518 1024 504 1033 504 l 1033 585 b 1024 600 1033 600 1024 600 l 1024 604 l 1075 614 l 1075 521 b 1085 504 1075 504 1085 504 m 1036 642 b 1056 660 1036 651 1044 660 b 1074 642 1065 660 1074 651 b 1056 622 1074 631 1065 622 b 1036 642 1044 622 1036 631 m 1201 557 b 1143 499 1201 525 1175 499 b 1086 557 1111 499 1086 525 b 1143 614 1086 589 1111 614 b 1201 557 1175 614 1201 589 m 1143 508 b 1161 557 1160 508 1161 531 b 1143 606 1161 585 1160 606 b 1126 557 1128 606 1126 585 b 1143 508 1126 531 1128 508 m 22 238 l 236 238 l 236 210 l 22 210 m 496 840 l 593 964 l 725 964 l 625 840 m 1079 840 l 1178 964 l 1203 964 l 1203 840 m 106 840 l 206 964 l 336 964 l 236 840 m 690 840 l 789 964 l 919 964 l 819 840 m 42 840 l 22 840 l 22 964 l 142 964 m 301 840 l 400 964 l 531 964 l 431 840 m 885 840 l 985 964 l 1113 964 l 1015 840 m 725 157 l 625 32 l 496 32 l 593 157 m 1178 157 l 1203 157 l 1203 32 l 1079 32 m 336 157 l 236 32 l 106 32 l 206 157 m 919 157 l 819 32 l 690 32 l 789 157 m 142 157 l 42 32 l 22 32 l 22 157 m 531 157 l 431 32 l 301 32 l 400 157 m 1113 157 l 1015 32 l 885 32 l 985 157 "},"4":{"ha":1261,"x_min":0,"x_max":0,"o":"m 35 721 l 17 721 l 32 803 b 54 804 39 804 46 804 b 76 799 61 804 71 803 b 86 782 82 796 86 789 b 75 757 86 771 81 763 b 47 751 68 753 57 751 b 42 751 46 751 43 751 m 44 765 b 50 764 46 764 46 764 b 68 781 61 764 68 771 b 54 790 68 788 61 790 b 47 789 51 790 49 790 m 117 788 l 114 771 l 144 771 l 140 756 l 111 756 l 107 736 l 140 736 l 138 721 l 86 721 l 101 804 l 150 804 l 149 788 m 168 721 l 150 721 l 167 803 b 188 804 171 804 179 804 b 210 800 196 804 203 803 b 219 785 215 796 219 790 b 200 760 219 771 210 764 b 208 744 204 757 207 753 b 210 721 208 735 210 725 l 193 721 b 190 740 193 724 192 731 b 179 754 190 751 186 754 l 174 754 m 176 767 l 183 767 b 201 782 193 767 201 774 b 188 790 201 788 194 790 b 181 789 183 790 182 790 m 244 735 b 258 744 251 735 258 738 b 247 756 258 749 256 753 b 231 778 238 761 231 767 b 263 806 231 796 244 806 b 282 801 272 806 278 803 l 276 788 b 261 789 274 788 268 790 b 249 782 253 789 249 786 b 261 769 249 776 253 774 b 278 749 271 764 278 757 b 243 719 278 729 263 719 b 219 726 232 719 224 722 l 226 739 b 244 735 231 738 236 735 m 333 806 b 367 771 354 806 367 790 b 350 731 367 756 361 740 b 321 719 344 725 333 719 b 288 754 300 719 288 735 b 303 793 288 768 294 785 b 333 806 311 801 321 806 m 338 740 b 347 771 344 747 347 760 b 331 790 347 781 344 790 b 317 785 325 790 321 788 b 307 756 310 778 307 764 b 324 735 307 743 311 735 b 338 740 329 735 333 736 m 386 721 l 371 721 l 386 804 l 407 804 l 418 772 b 425 744 421 761 422 753 b 429 774 425 753 426 761 l 435 804 l 451 804 l 436 721 l 418 721 l 406 754 b 397 783 401 765 400 774 b 393 750 396 775 394 763 m 465 721 l 447 721 l 486 804 l 510 804 l 519 721 l 500 721 l 499 742 l 476 742 m 481 756 l 499 756 l 496 774 b 496 790 496 779 496 786 b 489 774 493 786 490 779 m 563 804 l 549 736 l 581 736 l 578 721 l 529 721 l 544 804 m 635 756 b 635 746 635 753 635 750 b 644 735 635 739 639 735 b 664 756 654 735 661 740 l 672 804 l 692 804 l 682 756 b 643 719 676 731 667 719 b 617 746 626 719 617 729 b 617 757 617 750 617 754 l 625 804 l 643 804 m 714 735 b 728 744 721 735 728 738 b 717 756 728 749 724 753 b 699 778 707 761 699 767 b 732 806 699 796 714 806 b 751 801 742 806 749 803 l 746 788 b 731 789 743 788 736 790 b 717 782 722 789 717 786 b 731 769 717 776 724 774 b 746 749 739 764 746 757 b 713 719 746 729 731 719 b 689 726 701 719 692 722 l 694 739 b 714 735 700 738 706 735 m 785 788 l 782 771 l 811 771 l 808 756 l 778 756 l 775 736 l 808 736 l 804 721 l 754 721 l 769 804 l 818 804 l 815 788 m 907 731 b 876 719 899 725 890 719 b 843 754 856 719 843 735 b 860 793 843 768 849 785 b 889 806 865 801 876 806 b 922 771 911 806 922 790 b 907 731 922 756 918 740 m 861 756 b 879 735 861 743 867 735 b 892 740 885 735 890 736 b 904 771 899 747 904 760 b 886 790 904 781 899 790 b 872 785 882 790 876 788 b 861 756 865 778 861 764 m 954 783 b 949 750 954 775 951 763 l 943 721 l 925 721 l 942 804 l 963 804 l 974 772 b 983 744 978 761 981 753 b 986 774 983 753 985 761 l 990 804 l 1008 804 l 992 721 l 974 721 l 961 754 b 954 783 958 765 956 774 m 1042 804 l 1029 736 l 1060 736 l 1058 721 l 1008 721 l 1025 804 m 1090 721 l 1072 721 l 1079 756 l 1061 804 l 1082 804 l 1086 783 b 1090 768 1088 776 1089 772 b 1099 783 1093 772 1096 778 l 1110 804 l 1132 804 l 1096 756 m 1149 729 b 1161 742 1149 736 1153 742 b 1171 731 1167 742 1171 738 b 1158 719 1171 725 1165 719 b 1149 729 1151 719 1149 725 m 1169 749 l 1156 749 l 1164 804 l 1182 804 m 32 408 l 32 385 l 58 385 l 58 378 l 32 378 l 32 346 l 22 346 l 22 415 l 61 415 l 61 408 m 115 372 b 90 346 115 353 101 346 b 67 371 76 346 67 354 b 90 397 67 388 76 397 b 115 372 106 397 115 388 m 76 371 b 90 351 76 360 81 351 b 106 372 100 351 106 360 b 90 390 106 381 101 390 b 76 371 79 390 76 381 m 125 346 l 125 381 b 125 397 125 386 125 392 l 133 397 l 135 386 b 149 397 138 393 143 397 b 150 397 150 397 150 397 l 150 388 b 149 389 150 389 150 389 b 136 378 142 389 138 383 b 135 374 135 376 135 375 l 135 346 m 178 381 b 215 417 178 403 193 417 b 232 414 224 417 229 415 l 229 407 b 215 410 226 408 221 410 b 188 381 199 410 188 399 b 215 351 188 363 197 351 b 229 356 219 351 226 354 l 232 349 b 213 346 229 347 222 346 b 178 381 193 346 178 357 m 263 346 b 236 371 249 346 236 354 b 263 397 236 388 249 397 b 288 372 276 397 288 388 b 263 346 288 353 274 346 m 263 390 b 246 371 251 390 246 381 b 263 351 246 360 253 351 b 278 372 271 351 278 360 b 263 390 278 381 272 390 m 360 346 l 360 375 b 349 390 360 383 357 390 b 339 381 344 390 340 386 b 338 378 339 381 338 379 l 338 346 l 329 346 l 329 378 b 319 390 329 383 325 390 b 307 381 314 390 308 385 b 307 378 307 381 307 379 l 307 346 l 297 346 l 297 382 b 297 397 297 388 297 392 l 306 397 l 306 388 l 307 388 b 322 397 308 393 314 397 b 336 388 329 397 333 393 b 343 394 338 390 340 392 b 353 397 344 397 347 397 b 369 376 360 397 369 393 l 369 346 m 456 346 l 447 346 l 447 375 b 436 390 447 383 443 390 b 424 381 431 390 426 386 b 424 378 424 381 424 379 l 424 346 l 415 346 l 415 378 b 404 390 415 383 411 390 b 393 381 399 390 394 385 b 393 378 393 381 393 379 l 393 346 l 385 346 l 385 382 b 383 397 385 388 385 392 l 392 397 l 392 388 l 393 388 b 408 397 394 393 400 397 b 421 388 415 397 421 393 b 428 394 424 390 425 392 b 439 397 431 397 433 397 b 456 376 446 397 456 393 m 513 375 b 511 369 513 372 511 371 l 476 369 b 493 351 476 357 485 351 b 507 354 499 351 503 353 l 508 349 b 492 346 506 347 500 346 b 467 371 476 346 467 354 b 490 397 467 385 476 397 b 513 375 507 397 513 383 m 503 376 b 489 390 503 381 500 390 b 476 376 481 390 476 382 m 522 381 b 522 397 522 386 522 392 l 529 397 l 531 386 b 544 397 533 393 539 397 b 547 397 544 397 546 397 l 547 388 b 543 389 546 389 544 389 b 532 378 539 389 533 383 b 532 374 532 376 532 375 l 532 346 l 522 346 l 522 381 m 592 349 b 576 346 589 347 583 346 b 551 371 561 346 551 356 b 578 397 551 386 563 397 b 592 394 583 397 589 396 l 589 388 b 578 390 588 389 583 390 b 561 371 567 390 561 381 b 578 351 561 360 567 351 b 590 354 583 351 588 354 l 592 349 m 606 417 b 613 410 610 417 613 414 b 606 406 613 408 610 406 b 600 410 603 406 600 408 b 606 417 600 414 603 417 m 601 397 l 611 397 l 611 346 l 601 346 m 636 346 b 621 358 626 346 621 351 b 651 379 621 372 632 379 b 640 390 651 383 650 390 b 628 388 636 390 631 389 l 625 393 b 640 397 629 396 636 397 b 661 378 657 397 661 388 l 661 358 b 661 346 661 354 661 349 l 653 346 l 651 351 b 636 346 649 349 643 346 m 651 372 b 631 361 642 372 631 369 b 639 351 631 354 635 351 b 651 360 644 351 649 356 b 651 363 651 361 651 363 l 651 372 m 675 419 l 685 419 l 685 346 l 675 346 m 710 358 b 700 333 707 350 703 339 l 693 333 b 699 358 696 339 699 350 m 743 414 b 760 417 747 415 753 417 b 779 410 768 417 775 414 b 786 397 785 408 786 403 b 781 381 786 390 785 385 b 760 374 775 376 768 374 b 751 375 757 374 754 374 l 751 346 l 743 346 m 751 381 b 760 381 754 381 757 381 b 776 396 769 381 776 385 b 761 410 776 406 769 410 b 751 410 757 410 753 410 m 797 419 l 806 419 l 806 346 l 797 346 m 860 349 b 842 346 856 347 850 346 b 817 371 826 346 817 354 b 840 397 817 385 826 397 b 861 375 857 397 861 383 b 861 369 861 372 861 371 l 826 369 b 843 351 826 357 835 351 b 857 354 850 351 854 353 l 860 349 m 839 390 b 826 376 831 390 826 382 l 853 376 b 839 390 853 381 850 390 m 900 346 l 899 351 b 883 346 897 349 892 346 b 868 358 874 346 868 351 b 899 379 868 372 879 379 b 889 390 899 383 897 390 b 875 388 883 390 878 389 l 872 393 b 889 397 876 396 883 397 b 908 378 904 397 908 388 l 908 358 b 908 346 908 354 908 349 m 899 372 b 878 361 890 372 878 369 b 886 351 878 354 882 351 b 899 360 892 351 897 356 b 899 363 899 361 899 363 m 953 360 b 933 346 953 351 946 346 b 919 349 928 346 922 347 l 922 356 b 933 351 924 354 928 351 b 943 358 940 351 943 354 b 933 368 943 363 940 365 b 921 382 924 372 921 378 b 938 397 921 390 926 397 b 951 394 943 397 949 396 l 949 388 b 938 390 947 389 942 390 b 929 383 932 390 929 388 b 939 375 929 381 932 378 b 953 360 949 372 953 368 m 1004 375 b 1004 369 1004 372 1004 371 l 969 369 b 986 351 969 357 978 351 b 1000 354 993 351 997 353 l 1003 349 b 985 346 999 347 993 346 b 960 371 969 346 960 354 b 985 397 960 385 969 397 b 1004 375 1000 397 1004 383 m 996 376 b 983 390 996 381 993 390 b 969 376 974 390 969 382 m 1083 415 l 1058 346 l 1049 346 l 1026 415 l 1036 415 l 1047 381 b 1056 356 1050 372 1053 363 b 1063 381 1057 363 1060 372 l 1075 415 m 1094 417 b 1100 410 1097 417 1100 414 b 1093 406 1100 408 1097 406 b 1089 410 1090 406 1089 408 b 1094 417 1089 414 1090 417 m 1089 397 l 1099 397 l 1099 346 l 1089 346 m 1125 351 b 1135 358 1132 351 1135 354 b 1125 368 1135 363 1132 365 b 1111 382 1115 372 1111 378 b 1129 397 1111 390 1118 397 b 1142 394 1135 397 1139 396 l 1140 388 b 1129 390 1138 389 1133 390 b 1119 383 1124 390 1119 388 b 1131 375 1119 381 1124 378 b 1143 360 1139 372 1143 368 b 1125 346 1143 351 1136 346 b 1110 349 1118 346 1113 347 l 1113 356 b 1125 351 1115 354 1119 351 m 1160 417 b 1165 410 1163 417 1165 414 b 1160 406 1165 408 1163 406 b 1153 410 1156 406 1153 408 b 1160 417 1153 414 1156 417 m 1165 346 l 1156 346 l 1156 397 l 1165 397 m 1190 389 l 1190 363 b 1197 351 1190 356 1192 351 b 1204 353 1200 351 1201 353 l 1204 347 b 1194 346 1201 346 1199 346 b 1185 349 1190 346 1188 347 b 1181 361 1182 351 1181 356 l 1181 389 l 1174 389 l 1174 397 l 1181 397 l 1181 408 l 1190 410 l 1190 397 l 1204 397 l 1204 389 m 308 194 l 308 206 b 286 193 301 196 294 193 b 264 219 272 193 264 203 b 308 267 264 244 282 267 b 318 265 311 267 315 267 l 324 297 l 346 297 l 331 222 b 326 194 329 213 328 203 m 296 210 b 311 229 301 210 308 215 l 315 249 b 307 251 314 250 311 251 b 285 222 294 251 285 238 b 296 210 285 214 289 210 m 382 288 b 371 274 382 279 376 274 b 360 285 364 274 360 278 b 371 296 360 290 365 296 b 382 288 378 296 382 292 m 365 194 l 343 194 l 357 265 l 378 265 m 433 235 b 433 242 433 236 433 239 b 426 250 433 247 431 250 b 408 226 421 250 411 242 l 401 194 l 382 194 l 392 242 b 394 265 393 251 393 260 l 414 265 l 411 254 l 413 254 b 438 267 419 263 426 267 b 456 247 450 267 456 261 b 453 236 456 244 454 239 l 447 194 l 425 194 m 469 240 l 507 240 l 504 225 l 465 225 m 547 251 b 539 246 543 251 539 249 b 547 238 539 242 542 240 b 564 218 556 235 564 228 b 531 193 564 201 550 193 b 510 199 521 193 514 196 l 515 213 b 532 208 518 213 525 208 b 542 214 539 208 542 213 b 533 224 542 218 540 219 b 517 242 525 228 517 235 b 549 267 517 258 531 267 b 567 263 557 267 564 265 l 563 249 b 547 251 560 250 554 251 m 600 225 b 599 215 600 222 599 218 b 606 211 599 213 600 211 b 613 211 607 211 610 211 l 610 194 b 596 193 606 193 600 193 b 578 208 583 193 578 199 b 579 221 578 213 578 215 l 585 249 l 576 249 l 578 265 l 588 265 l 592 281 l 613 286 l 608 265 l 622 265 l 619 249 l 606 249 m 669 194 l 671 207 b 644 193 663 196 654 193 b 626 213 633 193 626 199 b 628 226 626 217 628 221 l 636 265 l 656 265 l 649 228 b 647 218 649 225 647 219 b 656 210 647 213 650 210 b 672 233 664 210 671 218 l 678 265 l 701 265 l 692 218 b 688 194 690 210 688 200 m 751 194 l 753 206 b 729 193 746 196 736 193 b 706 219 717 193 706 203 b 751 267 706 244 725 267 b 763 265 756 267 758 267 l 767 297 l 788 297 l 774 222 b 769 194 772 213 771 203 m 738 210 b 756 229 744 210 753 215 l 758 249 b 750 251 757 250 754 251 b 729 222 736 251 729 238 b 738 210 729 214 733 210 m 826 288 b 813 274 826 279 819 274 b 803 285 808 274 803 278 b 814 296 803 290 808 296 b 826 288 821 296 826 292 m 808 194 l 786 194 l 800 265 l 821 265 m 857 193 b 828 222 839 193 828 206 b 869 267 828 247 844 267 b 900 238 889 267 900 254 b 857 193 900 213 882 193 m 867 251 b 849 222 856 251 849 235 b 861 210 849 214 853 210 b 879 238 872 210 879 225 b 867 251 879 244 875 251 m 918 193 b 906 206 910 193 906 199 b 919 219 906 213 911 219 b 932 207 926 219 932 214 b 918 193 932 199 925 193 m 990 250 b 967 225 976 250 967 238 b 982 210 967 214 974 210 b 996 213 986 210 992 213 l 996 196 b 976 193 990 194 985 193 b 946 222 957 193 946 204 b 992 267 946 247 964 267 b 1007 264 997 267 1003 265 l 1001 249 b 990 250 999 249 996 250 m 1038 193 b 1008 222 1019 193 1008 206 b 1050 267 1008 247 1025 267 b 1081 238 1068 267 1081 254 b 1038 193 1081 213 1061 193 m 1047 251 b 1029 222 1035 251 1029 235 b 1039 210 1029 214 1033 210 b 1058 238 1051 210 1058 225 b 1047 251 1058 244 1056 251 m 1176 235 b 1178 242 1178 236 1178 239 b 1172 250 1178 247 1175 250 b 1154 228 1165 250 1157 240 l 1149 194 l 1128 194 l 1136 235 b 1136 242 1136 236 1136 239 b 1129 250 1136 247 1135 250 b 1111 226 1122 250 1115 240 l 1107 194 l 1086 194 l 1096 242 b 1099 265 1097 251 1097 260 l 1117 265 l 1115 254 b 1140 267 1122 263 1132 267 b 1157 254 1151 267 1157 261 b 1182 267 1164 263 1174 267 b 1200 249 1193 267 1200 261 b 1199 236 1200 244 1199 239 l 1190 194 l 1171 194 m 99 456 b 14 522 44 457 14 485 b 42 561 14 553 32 561 b 60 528 64 561 71 538 b 26 519 60 546 26 549 b 99 468 26 488 56 468 b 165 567 154 468 165 525 b 125 657 165 596 167 657 b 119 642 124 657 119 656 l 119 597 b 119 596 119 597 119 596 l 119 521 b 129 504 119 504 129 504 l 129 499 l 68 499 l 68 504 b 78 518 68 504 76 504 b 78 518 78 518 78 518 l 78 644 b 63 664 78 656 76 664 b 49 656 54 664 49 658 b 61 646 49 644 61 646 b 44 628 61 631 50 628 b 25 646 26 628 25 643 b 63 674 25 664 47 674 b 125 664 88 674 96 664 b 206 567 168 664 206 642 b 99 456 206 514 174 453 m 282 499 l 219 499 l 219 504 b 231 518 219 504 229 504 l 231 585 b 219 600 229 600 219 600 l 219 604 l 269 614 l 269 521 b 282 504 269 504 282 504 m 251 660 b 269 642 263 660 269 651 b 251 622 269 631 263 622 b 233 642 240 622 233 631 b 251 660 233 651 240 660 m 346 600 b 379 615 351 606 363 615 b 414 579 397 615 414 603 b 414 521 414 579 414 521 b 424 504 414 506 421 504 l 424 499 l 363 499 l 363 504 b 372 518 363 504 371 504 l 372 583 b 346 579 372 603 346 600 l 346 521 b 357 504 346 504 357 504 l 357 499 l 296 499 l 296 504 b 306 518 296 504 304 504 l 306 585 b 296 600 304 600 296 600 l 296 604 l 346 614 l 346 600 m 535 622 b 596 664 535 622 535 664 b 644 660 626 664 632 651 b 653 663 647 661 649 663 b 653 621 653 656 653 621 l 647 619 b 596 654 647 619 642 654 b 576 611 567 654 557 619 b 672 539 601 600 674 597 b 603 499 671 515 647 499 b 547 499 560 499 556 510 b 542 499 547 499 543 499 l 542 542 l 547 542 b 601 511 547 524 576 511 b 613 560 646 511 644 550 b 535 622 583 568 535 578 m 742 608 b 731 597 742 608 733 610 l 731 518 b 742 504 732 504 742 504 l 742 499 l 725 499 b 690 531 711 499 690 499 l 690 596 b 678 608 689 610 678 608 l 678 614 b 731 629 707 614 714 629 l 731 614 l 742 614 l 742 608 m 753 615 l 813 615 l 813 608 b 804 596 813 608 804 610 l 804 535 b 831 535 804 507 831 517 l 831 593 b 821 608 831 610 821 608 l 821 615 l 882 615 l 882 608 b 869 596 882 608 871 610 l 869 518 b 882 504 871 504 882 504 l 882 499 l 853 499 b 831 517 839 499 831 510 b 801 499 826 510 818 499 b 764 535 785 499 764 510 b 764 593 764 535 764 593 b 753 608 764 608 754 608 m 1054 472 b 1032 456 1054 463 1047 456 b 967 503 1018 456 974 460 b 947 499 960 500 954 499 b 890 557 917 499 890 525 b 947 615 890 589 917 615 b 965 611 954 615 960 613 l 965 664 l 1017 656 l 1017 650 b 1006 635 1017 650 1007 651 b 1006 514 1006 635 1006 515 b 1033 463 1007 479 1017 465 b 1029 472 1031 465 1029 469 b 1042 485 1029 479 1033 485 b 1054 472 1049 485 1054 479 m 947 508 b 965 557 963 508 965 531 b 947 607 965 585 963 607 b 929 557 932 607 929 585 b 947 508 929 531 932 508 m 1085 499 l 1024 499 l 1024 504 b 1033 518 1024 504 1033 504 l 1033 585 b 1024 600 1033 600 1024 600 l 1024 604 l 1075 614 l 1075 521 b 1085 504 1075 504 1085 504 m 1036 642 b 1056 660 1036 651 1044 660 b 1074 642 1065 660 1074 651 b 1056 622 1074 631 1065 622 b 1036 642 1044 622 1036 631 m 1201 557 b 1143 499 1201 525 1175 499 b 1086 557 1111 499 1086 525 b 1143 614 1086 589 1111 614 b 1201 557 1175 614 1201 589 m 1143 508 b 1161 557 1160 508 1161 531 b 1143 606 1161 585 1160 606 b 1126 557 1128 606 1126 585 b 1143 508 1126 531 1128 508 m 22 238 l 236 238 l 236 210 l 22 210 m 496 840 l 593 964 l 725 964 l 625 840 m 1079 840 l 1178 964 l 1203 964 l 1203 840 m 106 840 l 206 964 l 336 964 l 236 840 m 690 840 l 789 964 l 919 964 l 819 840 m 42 840 l 22 840 l 22 964 l 142 964 m 301 840 l 400 964 l 531 964 l 431 840 m 885 840 l 985 964 l 1113 964 l 1015 840 m 725 157 l 625 32 l 496 32 l 593 157 m 1178 157 l 1203 157 l 1203 32 l 1079 32 m 336 157 l 236 32 l 106 32 l 206 157 m 919 157 l 819 32 l 690 32 l 789 157 m 142 157 l 42 32 l 22 32 l 22 157 m 531 157 l 431 32 l 301 32 l 400 157 m 1113 157 l 1015 32 l 885 32 l 985 157 "},"5":{"ha":1261,"x_min":0,"x_max":0,"o":"m 35 721 l 17 721 l 32 803 b 54 804 39 804 46 804 b 76 799 61 804 71 803 b 86 782 82 796 86 789 b 75 757 86 771 81 763 b 47 751 68 753 57 751 b 42 751 46 751 43 751 m 44 765 b 50 764 46 764 46 764 b 68 781 61 764 68 771 b 54 790 68 788 61 790 b 47 789 51 790 49 790 m 117 788 l 114 771 l 144 771 l 140 756 l 111 756 l 107 736 l 140 736 l 138 721 l 86 721 l 101 804 l 150 804 l 149 788 m 168 721 l 150 721 l 167 803 b 188 804 171 804 179 804 b 210 800 196 804 203 803 b 219 785 215 796 219 790 b 200 760 219 771 210 764 b 208 744 204 757 207 753 b 210 721 208 735 210 725 l 193 721 b 190 740 193 724 192 731 b 179 754 190 751 186 754 l 174 754 m 176 767 l 183 767 b 201 782 193 767 201 774 b 188 790 201 788 194 790 b 181 789 183 790 182 790 m 244 735 b 258 744 251 735 258 738 b 247 756 258 749 256 753 b 231 778 238 761 231 767 b 263 806 231 796 244 806 b 282 801 272 806 278 803 l 276 788 b 261 789 274 788 268 790 b 249 782 253 789 249 786 b 261 769 249 776 253 774 b 278 749 271 764 278 757 b 243 719 278 729 263 719 b 219 726 232 719 224 722 l 226 739 b 244 735 231 738 236 735 m 333 806 b 367 771 354 806 367 790 b 350 731 367 756 361 740 b 321 719 344 725 333 719 b 288 754 300 719 288 735 b 303 793 288 768 294 785 b 333 806 311 801 321 806 m 338 740 b 347 771 344 747 347 760 b 331 790 347 781 344 790 b 317 785 325 790 321 788 b 307 756 310 778 307 764 b 324 735 307 743 311 735 b 338 740 329 735 333 736 m 386 721 l 371 721 l 386 804 l 407 804 l 418 772 b 425 744 421 761 422 753 b 429 774 425 753 426 761 l 435 804 l 451 804 l 436 721 l 418 721 l 406 754 b 397 783 401 765 400 774 b 393 750 396 775 394 763 m 465 721 l 447 721 l 486 804 l 510 804 l 519 721 l 500 721 l 499 742 l 476 742 m 481 756 l 499 756 l 496 774 b 496 790 496 779 496 786 b 489 774 493 786 490 779 m 563 804 l 549 736 l 581 736 l 578 721 l 529 721 l 544 804 m 635 756 b 635 746 635 753 635 750 b 644 735 635 739 639 735 b 664 756 654 735 661 740 l 672 804 l 692 804 l 682 756 b 643 719 676 731 667 719 b 617 746 626 719 617 729 b 617 757 617 750 617 754 l 625 804 l 643 804 m 714 735 b 728 744 721 735 728 738 b 717 756 728 749 724 753 b 699 778 707 761 699 767 b 732 806 699 796 714 806 b 751 801 742 806 749 803 l 746 788 b 731 789 743 788 736 790 b 717 782 722 789 717 786 b 731 769 717 776 724 774 b 746 749 739 764 746 757 b 713 719 746 729 731 719 b 689 726 701 719 692 722 l 694 739 b 714 735 700 738 706 735 m 785 788 l 782 771 l 811 771 l 808 756 l 778 756 l 775 736 l 808 736 l 804 721 l 754 721 l 769 804 l 818 804 l 815 788 m 907 731 b 876 719 899 725 890 719 b 843 754 856 719 843 735 b 860 793 843 768 849 785 b 889 806 865 801 876 806 b 922 771 911 806 922 790 b 907 731 922 756 918 740 m 861 756 b 879 735 861 743 867 735 b 892 740 885 735 890 736 b 904 771 899 747 904 760 b 886 790 904 781 899 790 b 872 785 882 790 876 788 b 861 756 865 778 861 764 m 954 783 b 949 750 954 775 951 763 l 943 721 l 925 721 l 942 804 l 963 804 l 974 772 b 983 744 978 761 981 753 b 986 774 983 753 985 761 l 990 804 l 1008 804 l 992 721 l 974 721 l 961 754 b 954 783 958 765 956 774 m 1042 804 l 1029 736 l 1060 736 l 1058 721 l 1008 721 l 1025 804 m 1090 721 l 1072 721 l 1079 756 l 1061 804 l 1082 804 l 1086 783 b 1090 768 1088 776 1089 772 b 1099 783 1093 772 1096 778 l 1110 804 l 1132 804 l 1096 756 m 1149 729 b 1161 742 1149 736 1153 742 b 1171 731 1167 742 1171 738 b 1158 719 1171 725 1165 719 b 1149 729 1151 719 1149 725 m 1169 749 l 1156 749 l 1164 804 l 1182 804 m 32 408 l 32 385 l 58 385 l 58 378 l 32 378 l 32 346 l 22 346 l 22 415 l 61 415 l 61 408 m 115 372 b 90 346 115 353 101 346 b 67 371 76 346 67 354 b 90 397 67 388 76 397 b 115 372 106 397 115 388 m 76 371 b 90 351 76 360 81 351 b 106 372 100 351 106 360 b 90 390 106 381 101 390 b 76 371 79 390 76 381 m 125 346 l 125 381 b 125 397 125 386 125 392 l 133 397 l 135 386 b 149 397 138 393 143 397 b 150 397 150 397 150 397 l 150 388 b 149 389 150 389 150 389 b 136 378 142 389 138 383 b 135 374 135 376 135 375 l 135 346 m 178 381 b 215 417 178 403 193 417 b 232 414 224 417 229 415 l 229 407 b 215 410 226 408 221 410 b 188 381 199 410 188 399 b 215 351 188 363 197 351 b 229 356 219 351 226 354 l 232 349 b 213 346 229 347 222 346 b 178 381 193 346 178 357 m 263 346 b 236 371 249 346 236 354 b 263 397 236 388 249 397 b 288 372 276 397 288 388 b 263 346 288 353 274 346 m 263 390 b 246 371 251 390 246 381 b 263 351 246 360 253 351 b 278 372 271 351 278 360 b 263 390 278 381 272 390 m 360 346 l 360 375 b 349 390 360 383 357 390 b 339 381 344 390 340 386 b 338 378 339 381 338 379 l 338 346 l 329 346 l 329 378 b 319 390 329 383 325 390 b 307 381 314 390 308 385 b 307 378 307 381 307 379 l 307 346 l 297 346 l 297 382 b 297 397 297 388 297 392 l 306 397 l 306 388 l 307 388 b 322 397 308 393 314 397 b 336 388 329 397 333 393 b 343 394 338 390 340 392 b 353 397 344 397 347 397 b 369 376 360 397 369 393 l 369 346 m 456 346 l 447 346 l 447 375 b 436 390 447 383 443 390 b 424 381 431 390 426 386 b 424 378 424 381 424 379 l 424 346 l 415 346 l 415 378 b 404 390 415 383 411 390 b 393 381 399 390 394 385 b 393 378 393 381 393 379 l 393 346 l 385 346 l 385 382 b 383 397 385 388 385 392 l 392 397 l 392 388 l 393 388 b 408 397 394 393 400 397 b 421 388 415 397 421 393 b 428 394 424 390 425 392 b 439 397 431 397 433 397 b 456 376 446 397 456 393 m 513 375 b 511 369 513 372 511 371 l 476 369 b 493 351 476 357 485 351 b 507 354 499 351 503 353 l 508 349 b 492 346 506 347 500 346 b 467 371 476 346 467 354 b 490 397 467 385 476 397 b 513 375 507 397 513 383 m 503 376 b 489 390 503 381 500 390 b 476 376 481 390 476 382 m 522 381 b 522 397 522 386 522 392 l 529 397 l 531 386 b 544 397 533 393 539 397 b 547 397 544 397 546 397 l 547 388 b 543 389 546 389 544 389 b 532 378 539 389 533 383 b 532 374 532 376 532 375 l 532 346 l 522 346 l 522 381 m 592 349 b 576 346 589 347 583 346 b 551 371 561 346 551 356 b 578 397 551 386 563 397 b 592 394 583 397 589 396 l 589 388 b 578 390 588 389 583 390 b 561 371 567 390 561 381 b 578 351 561 360 567 351 b 590 354 583 351 588 354 l 592 349 m 606 417 b 613 410 610 417 613 414 b 606 406 613 408 610 406 b 600 410 603 406 600 408 b 606 417 600 414 603 417 m 601 397 l 611 397 l 611 346 l 601 346 m 636 346 b 621 358 626 346 621 351 b 651 379 621 372 632 379 b 640 390 651 383 650 390 b 628 388 636 390 631 389 l 625 393 b 640 397 629 396 636 397 b 661 378 657 397 661 388 l 661 358 b 661 346 661 354 661 349 l 653 346 l 651 351 b 636 346 649 349 643 346 m 651 372 b 631 361 642 372 631 369 b 639 351 631 354 635 351 b 651 360 644 351 649 356 b 651 363 651 361 651 363 l 651 372 m 675 419 l 685 419 l 685 346 l 675 346 m 710 358 b 700 333 707 350 703 339 l 693 333 b 699 358 696 339 699 350 m 743 414 b 760 417 747 415 753 417 b 779 410 768 417 775 414 b 786 397 785 408 786 403 b 781 381 786 390 785 385 b 760 374 775 376 768 374 b 751 375 757 374 754 374 l 751 346 l 743 346 m 751 381 b 760 381 754 381 757 381 b 776 396 769 381 776 385 b 761 410 776 406 769 410 b 751 410 757 410 753 410 m 797 419 l 806 419 l 806 346 l 797 346 m 860 349 b 842 346 856 347 850 346 b 817 371 826 346 817 354 b 840 397 817 385 826 397 b 861 375 857 397 861 383 b 861 369 861 372 861 371 l 826 369 b 843 351 826 357 835 351 b 857 354 850 351 854 353 l 860 349 m 839 390 b 826 376 831 390 826 382 l 853 376 b 839 390 853 381 850 390 m 900 346 l 899 351 b 883 346 897 349 892 346 b 868 358 874 346 868 351 b 899 379 868 372 879 379 b 889 390 899 383 897 390 b 875 388 883 390 878 389 l 872 393 b 889 397 876 396 883 397 b 908 378 904 397 908 388 l 908 358 b 908 346 908 354 908 349 m 899 372 b 878 361 890 372 878 369 b 886 351 878 354 882 351 b 899 360 892 351 897 356 b 899 363 899 361 899 363 m 953 360 b 933 346 953 351 946 346 b 919 349 928 346 922 347 l 922 356 b 933 351 924 354 928 351 b 943 358 940 351 943 354 b 933 368 943 363 940 365 b 921 382 924 372 921 378 b 938 397 921 390 926 397 b 951 394 943 397 949 396 l 949 388 b 938 390 947 389 942 390 b 929 383 932 390 929 388 b 939 375 929 381 932 378 b 953 360 949 372 953 368 m 1004 375 b 1004 369 1004 372 1004 371 l 969 369 b 986 351 969 357 978 351 b 1000 354 993 351 997 353 l 1003 349 b 985 346 999 347 993 346 b 960 371 969 346 960 354 b 985 397 960 385 969 397 b 1004 375 1000 397 1004 383 m 996 376 b 983 390 996 381 993 390 b 969 376 974 390 969 382 m 1083 415 l 1058 346 l 1049 346 l 1026 415 l 1036 415 l 1047 381 b 1056 356 1050 372 1053 363 b 1063 381 1057 363 1060 372 l 1075 415 m 1094 417 b 1100 410 1097 417 1100 414 b 1093 406 1100 408 1097 406 b 1089 410 1090 406 1089 408 b 1094 417 1089 414 1090 417 m 1089 397 l 1099 397 l 1099 346 l 1089 346 m 1125 351 b 1135 358 1132 351 1135 354 b 1125 368 1135 363 1132 365 b 1111 382 1115 372 1111 378 b 1129 397 1111 390 1118 397 b 1142 394 1135 397 1139 396 l 1140 388 b 1129 390 1138 389 1133 390 b 1119 383 1124 390 1119 388 b 1131 375 1119 381 1124 378 b 1143 360 1139 372 1143 368 b 1125 346 1143 351 1136 346 b 1110 349 1118 346 1113 347 l 1113 356 b 1125 351 1115 354 1119 351 m 1160 417 b 1165 410 1163 417 1165 414 b 1160 406 1165 408 1163 406 b 1153 410 1156 406 1153 408 b 1160 417 1153 414 1156 417 m 1165 346 l 1156 346 l 1156 397 l 1165 397 m 1190 389 l 1190 363 b 1197 351 1190 356 1192 351 b 1204 353 1200 351 1201 353 l 1204 347 b 1194 346 1201 346 1199 346 b 1185 349 1190 346 1188 347 b 1181 361 1182 351 1181 356 l 1181 389 l 1174 389 l 1174 397 l 1181 397 l 1181 408 l 1190 410 l 1190 397 l 1204 397 l 1204 389 m 308 194 l 308 206 b 286 193 301 196 294 193 b 264 219 272 193 264 203 b 308 267 264 244 282 267 b 318 265 311 267 315 267 l 324 297 l 346 297 l 331 222 b 326 194 329 213 328 203 m 296 210 b 311 229 301 210 308 215 l 315 249 b 307 251 314 250 311 251 b 285 222 294 251 285 238 b 296 210 285 214 289 210 m 382 288 b 371 274 382 279 376 274 b 360 285 364 274 360 278 b 371 296 360 290 365 296 b 382 288 378 296 382 292 m 365 194 l 343 194 l 357 265 l 378 265 m 433 235 b 433 242 433 236 433 239 b 426 250 433 247 431 250 b 408 226 421 250 411 242 l 401 194 l 382 194 l 392 242 b 394 265 393 251 393 260 l 414 265 l 411 254 l 413 254 b 438 267 419 263 426 267 b 456 247 450 267 456 261 b 453 236 456 244 454 239 l 447 194 l 425 194 m 469 240 l 507 240 l 504 225 l 465 225 m 547 251 b 539 246 543 251 539 249 b 547 238 539 242 542 240 b 564 218 556 235 564 228 b 531 193 564 201 550 193 b 510 199 521 193 514 196 l 515 213 b 532 208 518 213 525 208 b 542 214 539 208 542 213 b 533 224 542 218 540 219 b 517 242 525 228 517 235 b 549 267 517 258 531 267 b 567 263 557 267 564 265 l 563 249 b 547 251 560 250 554 251 m 600 225 b 599 215 600 222 599 218 b 606 211 599 213 600 211 b 613 211 607 211 610 211 l 610 194 b 596 193 606 193 600 193 b 578 208 583 193 578 199 b 579 221 578 213 578 215 l 585 249 l 576 249 l 578 265 l 588 265 l 592 281 l 613 286 l 608 265 l 622 265 l 619 249 l 606 249 m 669 194 l 671 207 b 644 193 663 196 654 193 b 626 213 633 193 626 199 b 628 226 626 217 628 221 l 636 265 l 656 265 l 649 228 b 647 218 649 225 647 219 b 656 210 647 213 650 210 b 672 233 664 210 671 218 l 678 265 l 701 265 l 692 218 b 688 194 690 210 688 200 m 751 194 l 753 206 b 729 193 746 196 736 193 b 706 219 717 193 706 203 b 751 267 706 244 725 267 b 763 265 756 267 758 267 l 767 297 l 788 297 l 774 222 b 769 194 772 213 771 203 m 738 210 b 756 229 744 210 753 215 l 758 249 b 750 251 757 250 754 251 b 729 222 736 251 729 238 b 738 210 729 214 733 210 m 826 288 b 813 274 826 279 819 274 b 803 285 808 274 803 278 b 814 296 803 290 808 296 b 826 288 821 296 826 292 m 808 194 l 786 194 l 800 265 l 821 265 m 857 193 b 828 222 839 193 828 206 b 869 267 828 247 844 267 b 900 238 889 267 900 254 b 857 193 900 213 882 193 m 867 251 b 849 222 856 251 849 235 b 861 210 849 214 853 210 b 879 238 872 210 879 225 b 867 251 879 244 875 251 m 918 193 b 906 206 910 193 906 199 b 919 219 906 213 911 219 b 932 207 926 219 932 214 b 918 193 932 199 925 193 m 990 250 b 967 225 976 250 967 238 b 982 210 967 214 974 210 b 996 213 986 210 992 213 l 996 196 b 976 193 990 194 985 193 b 946 222 957 193 946 204 b 992 267 946 247 964 267 b 1007 264 997 267 1003 265 l 1001 249 b 990 250 999 249 996 250 m 1038 193 b 1008 222 1019 193 1008 206 b 1050 267 1008 247 1025 267 b 1081 238 1068 267 1081 254 b 1038 193 1081 213 1061 193 m 1047 251 b 1029 222 1035 251 1029 235 b 1039 210 1029 214 1033 210 b 1058 238 1051 210 1058 225 b 1047 251 1058 244 1056 251 m 1176 235 b 1178 242 1178 236 1178 239 b 1172 250 1178 247 1175 250 b 1154 228 1165 250 1157 240 l 1149 194 l 1128 194 l 1136 235 b 1136 242 1136 236 1136 239 b 1129 250 1136 247 1135 250 b 1111 226 1122 250 1115 240 l 1107 194 l 1086 194 l 1096 242 b 1099 265 1097 251 1097 260 l 1117 265 l 1115 254 b 1140 267 1122 263 1132 267 b 1157 254 1151 267 1157 261 b 1182 267 1164 263 1174 267 b 1200 249 1193 267 1200 261 b 1199 236 1200 244 1199 239 l 1190 194 l 1171 194 m 99 456 b 14 522 44 457 14 485 b 42 561 14 553 32 561 b 60 528 64 561 71 538 b 26 519 60 546 26 549 b 99 468 26 488 56 468 b 165 567 154 468 165 525 b 125 657 165 596 167 657 b 119 642 124 657 119 656 l 119 597 b 119 596 119 597 119 596 l 119 521 b 129 504 119 504 129 504 l 129 499 l 68 499 l 68 504 b 78 518 68 504 76 504 b 78 518 78 518 78 518 l 78 644 b 63 664 78 656 76 664 b 49 656 54 664 49 658 b 61 646 49 644 61 646 b 44 628 61 631 50 628 b 25 646 26 628 25 643 b 63 674 25 664 47 674 b 125 664 88 674 96 664 b 206 567 168 664 206 642 b 99 456 206 514 174 453 m 282 499 l 219 499 l 219 504 b 231 518 219 504 229 504 l 231 585 b 219 600 229 600 219 600 l 219 604 l 269 614 l 269 521 b 282 504 269 504 282 504 m 251 660 b 269 642 263 660 269 651 b 251 622 269 631 263 622 b 233 642 240 622 233 631 b 251 660 233 651 240 660 m 346 600 b 379 615 351 606 363 615 b 414 579 397 615 414 603 b 414 521 414 579 414 521 b 424 504 414 506 421 504 l 424 499 l 363 499 l 363 504 b 372 518 363 504 371 504 l 372 583 b 346 579 372 603 346 600 l 346 521 b 357 504 346 504 357 504 l 357 499 l 296 499 l 296 504 b 306 518 296 504 304 504 l 306 585 b 296 600 304 600 296 600 l 296 604 l 346 614 l 346 600 m 535 622 b 596 664 535 622 535 664 b 644 660 626 664 632 651 b 653 663 647 661 649 663 b 653 621 653 656 653 621 l 647 619 b 596 654 647 619 642 654 b 576 611 567 654 557 619 b 672 539 601 600 674 597 b 603 499 671 515 647 499 b 547 499 560 499 556 510 b 542 499 547 499 543 499 l 542 542 l 547 542 b 601 511 547 524 576 511 b 613 560 646 511 644 550 b 535 622 583 568 535 578 m 742 608 b 731 597 742 608 733 610 l 731 518 b 742 504 732 504 742 504 l 742 499 l 725 499 b 690 531 711 499 690 499 l 690 596 b 678 608 689 610 678 608 l 678 614 b 731 629 707 614 714 629 l 731 614 l 742 614 l 742 608 m 753 615 l 813 615 l 813 608 b 804 596 813 608 804 610 l 804 535 b 831 535 804 507 831 517 l 831 593 b 821 608 831 610 821 608 l 821 615 l 882 615 l 882 608 b 869 596 882 608 871 610 l 869 518 b 882 504 871 504 882 504 l 882 499 l 853 499 b 831 517 839 499 831 510 b 801 499 826 510 818 499 b 764 535 785 499 764 510 b 764 593 764 535 764 593 b 753 608 764 608 754 608 m 1054 472 b 1032 456 1054 463 1047 456 b 967 503 1018 456 974 460 b 947 499 960 500 954 499 b 890 557 917 499 890 525 b 947 615 890 589 917 615 b 965 611 954 615 960 613 l 965 664 l 1017 656 l 1017 650 b 1006 635 1017 650 1007 651 b 1006 514 1006 635 1006 515 b 1033 463 1007 479 1017 465 b 1029 472 1031 465 1029 469 b 1042 485 1029 479 1033 485 b 1054 472 1049 485 1054 479 m 947 508 b 965 557 963 508 965 531 b 947 607 965 585 963 607 b 929 557 932 607 929 585 b 947 508 929 531 932 508 m 1085 499 l 1024 499 l 1024 504 b 1033 518 1024 504 1033 504 l 1033 585 b 1024 600 1033 600 1024 600 l 1024 604 l 1075 614 l 1075 521 b 1085 504 1075 504 1085 504 m 1036 642 b 1056 660 1036 651 1044 660 b 1074 642 1065 660 1074 651 b 1056 622 1074 631 1065 622 b 1036 642 1044 622 1036 631 m 1201 557 b 1143 499 1201 525 1175 499 b 1086 557 1111 499 1086 525 b 1143 614 1086 589 1111 614 b 1201 557 1175 614 1201 589 m 1143 508 b 1161 557 1160 508 1161 531 b 1143 606 1161 585 1160 606 b 1126 557 1128 606 1126 585 b 1143 508 1126 531 1128 508 m 22 238 l 236 238 l 236 210 l 22 210 m 496 840 l 593 964 l 725 964 l 625 840 m 1079 840 l 1178 964 l 1203 964 l 1203 840 m 106 840 l 206 964 l 336 964 l 236 840 m 690 840 l 789 964 l 919 964 l 819 840 m 42 840 l 22 840 l 22 964 l 142 964 m 301 840 l 400 964 l 531 964 l 431 840 m 885 840 l 985 964 l 1113 964 l 1015 840 m 725 157 l 625 32 l 496 32 l 593 157 m 1178 157 l 1203 157 l 1203 32 l 1079 32 m 336 157 l 236 32 l 106 32 l 206 157 m 919 157 l 819 32 l 690 32 l 789 157 m 142 157 l 42 32 l 22 32 l 22 157 m 531 157 l 431 32 l 301 32 l 400 157 m 1113 157 l 1015 32 l 885 32 l 985 157 "},"6":{"ha":1261,"x_min":0,"x_max":0,"o":"m 35 721 l 17 721 l 32 803 b 54 804 39 804 46 804 b 76 799 61 804 71 803 b 86 782 82 796 86 789 b 75 757 86 771 81 763 b 47 751 68 753 57 751 b 42 751 46 751 43 751 m 44 765 b 50 764 46 764 46 764 b 68 781 61 764 68 771 b 54 790 68 788 61 790 b 47 789 51 790 49 790 m 117 788 l 114 771 l 144 771 l 140 756 l 111 756 l 107 736 l 140 736 l 138 721 l 86 721 l 101 804 l 150 804 l 149 788 m 168 721 l 150 721 l 167 803 b 188 804 171 804 179 804 b 210 800 196 804 203 803 b 219 785 215 796 219 790 b 200 760 219 771 210 764 b 208 744 204 757 207 753 b 210 721 208 735 210 725 l 193 721 b 190 740 193 724 192 731 b 179 754 190 751 186 754 l 174 754 m 176 767 l 183 767 b 201 782 193 767 201 774 b 188 790 201 788 194 790 b 181 789 183 790 182 790 m 244 735 b 258 744 251 735 258 738 b 247 756 258 749 256 753 b 231 778 238 761 231 767 b 263 806 231 796 244 806 b 282 801 272 806 278 803 l 276 788 b 261 789 274 788 268 790 b 249 782 253 789 249 786 b 261 769 249 776 253 774 b 278 749 271 764 278 757 b 243 719 278 729 263 719 b 219 726 232 719 224 722 l 226 739 b 244 735 231 738 236 735 m 333 806 b 367 771 354 806 367 790 b 350 731 367 756 361 740 b 321 719 344 725 333 719 b 288 754 300 719 288 735 b 303 793 288 768 294 785 b 333 806 311 801 321 806 m 338 740 b 347 771 344 747 347 760 b 331 790 347 781 344 790 b 317 785 325 790 321 788 b 307 756 310 778 307 764 b 324 735 307 743 311 735 b 338 740 329 735 333 736 m 386 721 l 371 721 l 386 804 l 407 804 l 418 772 b 425 744 421 761 422 753 b 429 774 425 753 426 761 l 435 804 l 451 804 l 436 721 l 418 721 l 406 754 b 397 783 401 765 400 774 b 393 750 396 775 394 763 m 465 721 l 447 721 l 486 804 l 510 804 l 519 721 l 500 721 l 499 742 l 476 742 m 481 756 l 499 756 l 496 774 b 496 790 496 779 496 786 b 489 774 493 786 490 779 m 563 804 l 549 736 l 581 736 l 578 721 l 529 721 l 544 804 m 635 756 b 635 746 635 753 635 750 b 644 735 635 739 639 735 b 664 756 654 735 661 740 l 672 804 l 692 804 l 682 756 b 643 719 676 731 667 719 b 617 746 626 719 617 729 b 617 757 617 750 617 754 l 625 804 l 643 804 m 714 735 b 728 744 721 735 728 738 b 717 756 728 749 724 753 b 699 778 707 761 699 767 b 732 806 699 796 714 806 b 751 801 742 806 749 803 l 746 788 b 731 789 743 788 736 790 b 717 782 722 789 717 786 b 731 769 717 776 724 774 b 746 749 739 764 746 757 b 713 719 746 729 731 719 b 689 726 701 719 692 722 l 694 739 b 714 735 700 738 706 735 m 785 788 l 782 771 l 811 771 l 808 756 l 778 756 l 775 736 l 808 736 l 804 721 l 754 721 l 769 804 l 818 804 l 815 788 m 907 731 b 876 719 899 725 890 719 b 843 754 856 719 843 735 b 860 793 843 768 849 785 b 889 806 865 801 876 806 b 922 771 911 806 922 790 b 907 731 922 756 918 740 m 861 756 b 879 735 861 743 867 735 b 892 740 885 735 890 736 b 904 771 899 747 904 760 b 886 790 904 781 899 790 b 872 785 882 790 876 788 b 861 756 865 778 861 764 m 954 783 b 949 750 954 775 951 763 l 943 721 l 925 721 l 942 804 l 963 804 l 974 772 b 983 744 978 761 981 753 b 986 774 983 753 985 761 l 990 804 l 1008 804 l 992 721 l 974 721 l 961 754 b 954 783 958 765 956 774 m 1042 804 l 1029 736 l 1060 736 l 1058 721 l 1008 721 l 1025 804 m 1090 721 l 1072 721 l 1079 756 l 1061 804 l 1082 804 l 1086 783 b 1090 768 1088 776 1089 772 b 1099 783 1093 772 1096 778 l 1110 804 l 1132 804 l 1096 756 m 1149 729 b 1161 742 1149 736 1153 742 b 1171 731 1167 742 1171 738 b 1158 719 1171 725 1165 719 b 1149 729 1151 719 1149 725 m 1169 749 l 1156 749 l 1164 804 l 1182 804 m 32 408 l 32 385 l 58 385 l 58 378 l 32 378 l 32 346 l 22 346 l 22 415 l 61 415 l 61 408 m 115 372 b 90 346 115 353 101 346 b 67 371 76 346 67 354 b 90 397 67 388 76 397 b 115 372 106 397 115 388 m 76 371 b 90 351 76 360 81 351 b 106 372 100 351 106 360 b 90 390 106 381 101 390 b 76 371 79 390 76 381 m 125 346 l 125 381 b 125 397 125 386 125 392 l 133 397 l 135 386 b 149 397 138 393 143 397 b 150 397 150 397 150 397 l 150 388 b 149 389 150 389 150 389 b 136 378 142 389 138 383 b 135 374 135 376 135 375 l 135 346 m 178 381 b 215 417 178 403 193 417 b 232 414 224 417 229 415 l 229 407 b 215 410 226 408 221 410 b 188 381 199 410 188 399 b 215 351 188 363 197 351 b 229 356 219 351 226 354 l 232 349 b 213 346 229 347 222 346 b 178 381 193 346 178 357 m 263 346 b 236 371 249 346 236 354 b 263 397 236 388 249 397 b 288 372 276 397 288 388 b 263 346 288 353 274 346 m 263 390 b 246 371 251 390 246 381 b 263 351 246 360 253 351 b 278 372 271 351 278 360 b 263 390 278 381 272 390 m 360 346 l 360 375 b 349 390 360 383 357 390 b 339 381 344 390 340 386 b 338 378 339 381 338 379 l 338 346 l 329 346 l 329 378 b 319 390 329 383 325 390 b 307 381 314 390 308 385 b 307 378 307 381 307 379 l 307 346 l 297 346 l 297 382 b 297 397 297 388 297 392 l 306 397 l 306 388 l 307 388 b 322 397 308 393 314 397 b 336 388 329 397 333 393 b 343 394 338 390 340 392 b 353 397 344 397 347 397 b 369 376 360 397 369 393 l 369 346 m 456 346 l 447 346 l 447 375 b 436 390 447 383 443 390 b 424 381 431 390 426 386 b 424 378 424 381 424 379 l 424 346 l 415 346 l 415 378 b 404 390 415 383 411 390 b 393 381 399 390 394 385 b 393 378 393 381 393 379 l 393 346 l 385 346 l 385 382 b 383 397 385 388 385 392 l 392 397 l 392 388 l 393 388 b 408 397 394 393 400 397 b 421 388 415 397 421 393 b 428 394 424 390 425 392 b 439 397 431 397 433 397 b 456 376 446 397 456 393 m 513 375 b 511 369 513 372 511 371 l 476 369 b 493 351 476 357 485 351 b 507 354 499 351 503 353 l 508 349 b 492 346 506 347 500 346 b 467 371 476 346 467 354 b 490 397 467 385 476 397 b 513 375 507 397 513 383 m 503 376 b 489 390 503 381 500 390 b 476 376 481 390 476 382 m 522 381 b 522 397 522 386 522 392 l 529 397 l 531 386 b 544 397 533 393 539 397 b 547 397 544 397 546 397 l 547 388 b 543 389 546 389 544 389 b 532 378 539 389 533 383 b 532 374 532 376 532 375 l 532 346 l 522 346 l 522 381 m 592 349 b 576 346 589 347 583 346 b 551 371 561 346 551 356 b 578 397 551 386 563 397 b 592 394 583 397 589 396 l 589 388 b 578 390 588 389 583 390 b 561 371 567 390 561 381 b 578 351 561 360 567 351 b 590 354 583 351 588 354 l 592 349 m 606 417 b 613 410 610 417 613 414 b 606 406 613 408 610 406 b 600 410 603 406 600 408 b 606 417 600 414 603 417 m 601 397 l 611 397 l 611 346 l 601 346 m 636 346 b 621 358 626 346 621 351 b 651 379 621 372 632 379 b 640 390 651 383 650 390 b 628 388 636 390 631 389 l 625 393 b 640 397 629 396 636 397 b 661 378 657 397 661 388 l 661 358 b 661 346 661 354 661 349 l 653 346 l 651 351 b 636 346 649 349 643 346 m 651 372 b 631 361 642 372 631 369 b 639 351 631 354 635 351 b 651 360 644 351 649 356 b 651 363 651 361 651 363 l 651 372 m 675 419 l 685 419 l 685 346 l 675 346 m 710 358 b 700 333 707 350 703 339 l 693 333 b 699 358 696 339 699 350 m 743 414 b 760 417 747 415 753 417 b 779 410 768 417 775 414 b 786 397 785 408 786 403 b 781 381 786 390 785 385 b 760 374 775 376 768 374 b 751 375 757 374 754 374 l 751 346 l 743 346 m 751 381 b 760 381 754 381 757 381 b 776 396 769 381 776 385 b 761 410 776 406 769 410 b 751 410 757 410 753 410 m 797 419 l 806 419 l 806 346 l 797 346 m 860 349 b 842 346 856 347 850 346 b 817 371 826 346 817 354 b 840 397 817 385 826 397 b 861 375 857 397 861 383 b 861 369 861 372 861 371 l 826 369 b 843 351 826 357 835 351 b 857 354 850 351 854 353 l 860 349 m 839 390 b 826 376 831 390 826 382 l 853 376 b 839 390 853 381 850 390 m 900 346 l 899 351 b 883 346 897 349 892 346 b 868 358 874 346 868 351 b 899 379 868 372 879 379 b 889 390 899 383 897 390 b 875 388 883 390 878 389 l 872 393 b 889 397 876 396 883 397 b 908 378 904 397 908 388 l 908 358 b 908 346 908 354 908 349 m 899 372 b 878 361 890 372 878 369 b 886 351 878 354 882 351 b 899 360 892 351 897 356 b 899 363 899 361 899 363 m 953 360 b 933 346 953 351 946 346 b 919 349 928 346 922 347 l 922 356 b 933 351 924 354 928 351 b 943 358 940 351 943 354 b 933 368 943 363 940 365 b 921 382 924 372 921 378 b 938 397 921 390 926 397 b 951 394 943 397 949 396 l 949 388 b 938 390 947 389 942 390 b 929 383 932 390 929 388 b 939 375 929 381 932 378 b 953 360 949 372 953 368 m 1004 375 b 1004 369 1004 372 1004 371 l 969 369 b 986 351 969 357 978 351 b 1000 354 993 351 997 353 l 1003 349 b 985 346 999 347 993 346 b 960 371 969 346 960 354 b 985 397 960 385 969 397 b 1004 375 1000 397 1004 383 m 996 376 b 983 390 996 381 993 390 b 969 376 974 390 969 382 m 1083 415 l 1058 346 l 1049 346 l 1026 415 l 1036 415 l 1047 381 b 1056 356 1050 372 1053 363 b 1063 381 1057 363 1060 372 l 1075 415 m 1094 417 b 1100 410 1097 417 1100 414 b 1093 406 1100 408 1097 406 b 1089 410 1090 406 1089 408 b 1094 417 1089 414 1090 417 m 1089 397 l 1099 397 l 1099 346 l 1089 346 m 1125 351 b 1135 358 1132 351 1135 354 b 1125 368 1135 363 1132 365 b 1111 382 1115 372 1111 378 b 1129 397 1111 390 1118 397 b 1142 394 1135 397 1139 396 l 1140 388 b 1129 390 1138 389 1133 390 b 1119 383 1124 390 1119 388 b 1131 375 1119 381 1124 378 b 1143 360 1139 372 1143 368 b 1125 346 1143 351 1136 346 b 1110 349 1118 346 1113 347 l 1113 356 b 1125 351 1115 354 1119 351 m 1160 417 b 1165 410 1163 417 1165 414 b 1160 406 1165 408 1163 406 b 1153 410 1156 406 1153 408 b 1160 417 1153 414 1156 417 m 1165 346 l 1156 346 l 1156 397 l 1165 397 m 1190 389 l 1190 363 b 1197 351 1190 356 1192 351 b 1204 353 1200 351 1201 353 l 1204 347 b 1194 346 1201 346 1199 346 b 1185 349 1190 346 1188 347 b 1181 361 1182 351 1181 356 l 1181 389 l 1174 389 l 1174 397 l 1181 397 l 1181 408 l 1190 410 l 1190 397 l 1204 397 l 1204 389 m 308 194 l 308 206 b 286 193 301 196 294 193 b 264 219 272 193 264 203 b 308 267 264 244 282 267 b 318 265 311 267 315 267 l 324 297 l 346 297 l 331 222 b 326 194 329 213 328 203 m 296 210 b 311 229 301 210 308 215 l 315 249 b 307 251 314 250 311 251 b 285 222 294 251 285 238 b 296 210 285 214 289 210 m 382 288 b 371 274 382 279 376 274 b 360 285 364 274 360 278 b 371 296 360 290 365 296 b 382 288 378 296 382 292 m 365 194 l 343 194 l 357 265 l 378 265 m 433 235 b 433 242 433 236 433 239 b 426 250 433 247 431 250 b 408 226 421 250 411 242 l 401 194 l 382 194 l 392 242 b 394 265 393 251 393 260 l 414 265 l 411 254 l 413 254 b 438 267 419 263 426 267 b 456 247 450 267 456 261 b 453 236 456 244 454 239 l 447 194 l 425 194 m 469 240 l 507 240 l 504 225 l 465 225 m 547 251 b 539 246 543 251 539 249 b 547 238 539 242 542 240 b 564 218 556 235 564 228 b 531 193 564 201 550 193 b 510 199 521 193 514 196 l 515 213 b 532 208 518 213 525 208 b 542 214 539 208 542 213 b 533 224 542 218 540 219 b 517 242 525 228 517 235 b 549 267 517 258 531 267 b 567 263 557 267 564 265 l 563 249 b 547 251 560 250 554 251 m 600 225 b 599 215 600 222 599 218 b 606 211 599 213 600 211 b 613 211 607 211 610 211 l 610 194 b 596 193 606 193 600 193 b 578 208 583 193 578 199 b 579 221 578 213 578 215 l 585 249 l 576 249 l 578 265 l 588 265 l 592 281 l 613 286 l 608 265 l 622 265 l 619 249 l 606 249 m 669 194 l 671 207 b 644 193 663 196 654 193 b 626 213 633 193 626 199 b 628 226 626 217 628 221 l 636 265 l 656 265 l 649 228 b 647 218 649 225 647 219 b 656 210 647 213 650 210 b 672 233 664 210 671 218 l 678 265 l 701 265 l 692 218 b 688 194 690 210 688 200 m 751 194 l 753 206 b 729 193 746 196 736 193 b 706 219 717 193 706 203 b 751 267 706 244 725 267 b 763 265 756 267 758 267 l 767 297 l 788 297 l 774 222 b 769 194 772 213 771 203 m 738 210 b 756 229 744 210 753 215 l 758 249 b 750 251 757 250 754 251 b 729 222 736 251 729 238 b 738 210 729 214 733 210 m 826 288 b 813 274 826 279 819 274 b 803 285 808 274 803 278 b 814 296 803 290 808 296 b 826 288 821 296 826 292 m 808 194 l 786 194 l 800 265 l 821 265 m 857 193 b 828 222 839 193 828 206 b 869 267 828 247 844 267 b 900 238 889 267 900 254 b 857 193 900 213 882 193 m 867 251 b 849 222 856 251 849 235 b 861 210 849 214 853 210 b 879 238 872 210 879 225 b 867 251 879 244 875 251 m 918 193 b 906 206 910 193 906 199 b 919 219 906 213 911 219 b 932 207 926 219 932 214 b 918 193 932 199 925 193 m 990 250 b 967 225 976 250 967 238 b 982 210 967 214 974 210 b 996 213 986 210 992 213 l 996 196 b 976 193 990 194 985 193 b 946 222 957 193 946 204 b 992 267 946 247 964 267 b 1007 264 997 267 1003 265 l 1001 249 b 990 250 999 249 996 250 m 1038 193 b 1008 222 1019 193 1008 206 b 1050 267 1008 247 1025 267 b 1081 238 1068 267 1081 254 b 1038 193 1081 213 1061 193 m 1047 251 b 1029 222 1035 251 1029 235 b 1039 210 1029 214 1033 210 b 1058 238 1051 210 1058 225 b 1047 251 1058 244 1056 251 m 1176 235 b 1178 242 1178 236 1178 239 b 1172 250 1178 247 1175 250 b 1154 228 1165 250 1157 240 l 1149 194 l 1128 194 l 1136 235 b 1136 242 1136 236 1136 239 b 1129 250 1136 247 1135 250 b 1111 226 1122 250 1115 240 l 1107 194 l 1086 194 l 1096 242 b 1099 265 1097 251 1097 260 l 1117 265 l 1115 254 b 1140 267 1122 263 1132 267 b 1157 254 1151 267 1157 261 b 1182 267 1164 263 1174 267 b 1200 249 1193 267 1200 261 b 1199 236 1200 244 1199 239 l 1190 194 l 1171 194 m 99 456 b 14 522 44 457 14 485 b 42 561 14 553 32 561 b 60 528 64 561 71 538 b 26 519 60 546 26 549 b 99 468 26 488 56 468 b 165 567 154 468 165 525 b 125 657 165 596 167 657 b 119 642 124 657 119 656 l 119 597 b 119 596 119 597 119 596 l 119 521 b 129 504 119 504 129 504 l 129 499 l 68 499 l 68 504 b 78 518 68 504 76 504 b 78 518 78 518 78 518 l 78 644 b 63 664 78 656 76 664 b 49 656 54 664 49 658 b 61 646 49 644 61 646 b 44 628 61 631 50 628 b 25 646 26 628 25 643 b 63 674 25 664 47 674 b 125 664 88 674 96 664 b 206 567 168 664 206 642 b 99 456 206 514 174 453 m 282 499 l 219 499 l 219 504 b 231 518 219 504 229 504 l 231 585 b 219 600 229 600 219 600 l 219 604 l 269 614 l 269 521 b 282 504 269 504 282 504 m 251 660 b 269 642 263 660 269 651 b 251 622 269 631 263 622 b 233 642 240 622 233 631 b 251 660 233 651 240 660 m 346 600 b 379 615 351 606 363 615 b 414 579 397 615 414 603 b 414 521 414 579 414 521 b 424 504 414 506 421 504 l 424 499 l 363 499 l 363 504 b 372 518 363 504 371 504 l 372 583 b 346 579 372 603 346 600 l 346 521 b 357 504 346 504 357 504 l 357 499 l 296 499 l 296 504 b 306 518 296 504 304 504 l 306 585 b 296 600 304 600 296 600 l 296 604 l 346 614 l 346 600 m 535 622 b 596 664 535 622 535 664 b 644 660 626 664 632 651 b 653 663 647 661 649 663 b 653 621 653 656 653 621 l 647 619 b 596 654 647 619 642 654 b 576 611 567 654 557 619 b 672 539 601 600 674 597 b 603 499 671 515 647 499 b 547 499 560 499 556 510 b 542 499 547 499 543 499 l 542 542 l 547 542 b 601 511 547 524 576 511 b 613 560 646 511 644 550 b 535 622 583 568 535 578 m 742 608 b 731 597 742 608 733 610 l 731 518 b 742 504 732 504 742 504 l 742 499 l 725 499 b 690 531 711 499 690 499 l 690 596 b 678 608 689 610 678 608 l 678 614 b 731 629 707 614 714 629 l 731 614 l 742 614 l 742 608 m 753 615 l 813 615 l 813 608 b 804 596 813 608 804 610 l 804 535 b 831 535 804 507 831 517 l 831 593 b 821 608 831 610 821 608 l 821 615 l 882 615 l 882 608 b 869 596 882 608 871 610 l 869 518 b 882 504 871 504 882 504 l 882 499 l 853 499 b 831 517 839 499 831 510 b 801 499 826 510 818 499 b 764 535 785 499 764 510 b 764 593 764 535 764 593 b 753 608 764 608 754 608 m 1054 472 b 1032 456 1054 463 1047 456 b 967 503 1018 456 974 460 b 947 499 960 500 954 499 b 890 557 917 499 890 525 b 947 615 890 589 917 615 b 965 611 954 615 960 613 l 965 664 l 1017 656 l 1017 650 b 1006 635 1017 650 1007 651 b 1006 514 1006 635 1006 515 b 1033 463 1007 479 1017 465 b 1029 472 1031 465 1029 469 b 1042 485 1029 479 1033 485 b 1054 472 1049 485 1054 479 m 947 508 b 965 557 963 508 965 531 b 947 607 965 585 963 607 b 929 557 932 607 929 585 b 947 508 929 531 932 508 m 1085 499 l 1024 499 l 1024 504 b 1033 518 1024 504 1033 504 l 1033 585 b 1024 600 1033 600 1024 600 l 1024 604 l 1075 614 l 1075 521 b 1085 504 1075 504 1085 504 m 1036 642 b 1056 660 1036 651 1044 660 b 1074 642 1065 660 1074 651 b 1056 622 1074 631 1065 622 b 1036 642 1044 622 1036 631 m 1201 557 b 1143 499 1201 525 1175 499 b 1086 557 1111 499 1086 525 b 1143 614 1086 589 1111 614 b 1201 557 1175 614 1201 589 m 1143 508 b 1161 557 1160 508 1161 531 b 1143 606 1161 585 1160 606 b 1126 557 1128 606 1126 585 b 1143 508 1126 531 1128 508 m 22 238 l 236 238 l 236 210 l 22 210 m 496 840 l 593 964 l 725 964 l 625 840 m 1079 840 l 1178 964 l 1203 964 l 1203 840 m 106 840 l 206 964 l 336 964 l 236 840 m 690 840 l 789 964 l 919 964 l 819 840 m 42 840 l 22 840 l 22 964 l 142 964 m 301 840 l 400 964 l 531 964 l 431 840 m 885 840 l 985 964 l 1113 964 l 1015 840 m 725 157 l 625 32 l 496 32 l 593 157 m 1178 157 l 1203 157 l 1203 32 l 1079 32 m 336 157 l 236 32 l 106 32 l 206 157 m 919 157 l 819 32 l 690 32 l 789 157 m 142 157 l 42 32 l 22 32 l 22 157 m 531 157 l 431 32 l 301 32 l 400 157 m 1113 157 l 1015 32 l 885 32 l 985 157 "},"7":{"ha":1261,"x_min":0,"x_max":0,"o":"m 35 721 l 17 721 l 32 803 b 54 804 39 804 46 804 b 76 799 61 804 71 803 b 86 782 82 796 86 789 b 75 757 86 771 81 763 b 47 751 68 753 57 751 b 42 751 46 751 43 751 m 44 765 b 50 764 46 764 46 764 b 68 781 61 764 68 771 b 54 790 68 788 61 790 b 47 789 51 790 49 790 m 117 788 l 114 771 l 144 771 l 140 756 l 111 756 l 107 736 l 140 736 l 138 721 l 86 721 l 101 804 l 150 804 l 149 788 m 168 721 l 150 721 l 167 803 b 188 804 171 804 179 804 b 210 800 196 804 203 803 b 219 785 215 796 219 790 b 200 760 219 771 210 764 b 208 744 204 757 207 753 b 210 721 208 735 210 725 l 193 721 b 190 740 193 724 192 731 b 179 754 190 751 186 754 l 174 754 m 176 767 l 183 767 b 201 782 193 767 201 774 b 188 790 201 788 194 790 b 181 789 183 790 182 790 m 244 735 b 258 744 251 735 258 738 b 247 756 258 749 256 753 b 231 778 238 761 231 767 b 263 806 231 796 244 806 b 282 801 272 806 278 803 l 276 788 b 261 789 274 788 268 790 b 249 782 253 789 249 786 b 261 769 249 776 253 774 b 278 749 271 764 278 757 b 243 719 278 729 263 719 b 219 726 232 719 224 722 l 226 739 b 244 735 231 738 236 735 m 333 806 b 367 771 354 806 367 790 b 350 731 367 756 361 740 b 321 719 344 725 333 719 b 288 754 300 719 288 735 b 303 793 288 768 294 785 b 333 806 311 801 321 806 m 338 740 b 347 771 344 747 347 760 b 331 790 347 781 344 790 b 317 785 325 790 321 788 b 307 756 310 778 307 764 b 324 735 307 743 311 735 b 338 740 329 735 333 736 m 386 721 l 371 721 l 386 804 l 407 804 l 418 772 b 425 744 421 761 422 753 b 429 774 425 753 426 761 l 435 804 l 451 804 l 436 721 l 418 721 l 406 754 b 397 783 401 765 400 774 b 393 750 396 775 394 763 m 465 721 l 447 721 l 486 804 l 510 804 l 519 721 l 500 721 l 499 742 l 476 742 m 481 756 l 499 756 l 496 774 b 496 790 496 779 496 786 b 489 774 493 786 490 779 m 563 804 l 549 736 l 581 736 l 578 721 l 529 721 l 544 804 m 635 756 b 635 746 635 753 635 750 b 644 735 635 739 639 735 b 664 756 654 735 661 740 l 672 804 l 692 804 l 682 756 b 643 719 676 731 667 719 b 617 746 626 719 617 729 b 617 757 617 750 617 754 l 625 804 l 643 804 m 714 735 b 728 744 721 735 728 738 b 717 756 728 749 724 753 b 699 778 707 761 699 767 b 732 806 699 796 714 806 b 751 801 742 806 749 803 l 746 788 b 731 789 743 788 736 790 b 717 782 722 789 717 786 b 731 769 717 776 724 774 b 746 749 739 764 746 757 b 713 719 746 729 731 719 b 689 726 701 719 692 722 l 694 739 b 714 735 700 738 706 735 m 785 788 l 782 771 l 811 771 l 808 756 l 778 756 l 775 736 l 808 736 l 804 721 l 754 721 l 769 804 l 818 804 l 815 788 m 907 731 b 876 719 899 725 890 719 b 843 754 856 719 843 735 b 860 793 843 768 849 785 b 889 806 865 801 876 806 b 922 771 911 806 922 790 b 907 731 922 756 918 740 m 861 756 b 879 735 861 743 867 735 b 892 740 885 735 890 736 b 904 771 899 747 904 760 b 886 790 904 781 899 790 b 872 785 882 790 876 788 b 861 756 865 778 861 764 m 954 783 b 949 750 954 775 951 763 l 943 721 l 925 721 l 942 804 l 963 804 l 974 772 b 983 744 978 761 981 753 b 986 774 983 753 985 761 l 990 804 l 1008 804 l 992 721 l 974 721 l 961 754 b 954 783 958 765 956 774 m 1042 804 l 1029 736 l 1060 736 l 1058 721 l 1008 721 l 1025 804 m 1090 721 l 1072 721 l 1079 756 l 1061 804 l 1082 804 l 1086 783 b 1090 768 1088 776 1089 772 b 1099 783 1093 772 1096 778 l 1110 804 l 1132 804 l 1096 756 m 1149 729 b 1161 742 1149 736 1153 742 b 1171 731 1167 742 1171 738 b 1158 719 1171 725 1165 719 b 1149 729 1151 719 1149 725 m 1169 749 l 1156 749 l 1164 804 l 1182 804 m 32 408 l 32 385 l 58 385 l 58 378 l 32 378 l 32 346 l 22 346 l 22 415 l 61 415 l 61 408 m 115 372 b 90 346 115 353 101 346 b 67 371 76 346 67 354 b 90 397 67 388 76 397 b 115 372 106 397 115 388 m 76 371 b 90 351 76 360 81 351 b 106 372 100 351 106 360 b 90 390 106 381 101 390 b 76 371 79 390 76 381 m 125 346 l 125 381 b 125 397 125 386 125 392 l 133 397 l 135 386 b 149 397 138 393 143 397 b 150 397 150 397 150 397 l 150 388 b 149 389 150 389 150 389 b 136 378 142 389 138 383 b 135 374 135 376 135 375 l 135 346 m 178 381 b 215 417 178 403 193 417 b 232 414 224 417 229 415 l 229 407 b 215 410 226 408 221 410 b 188 381 199 410 188 399 b 215 351 188 363 197 351 b 229 356 219 351 226 354 l 232 349 b 213 346 229 347 222 346 b 178 381 193 346 178 357 m 263 346 b 236 371 249 346 236 354 b 263 397 236 388 249 397 b 288 372 276 397 288 388 b 263 346 288 353 274 346 m 263 390 b 246 371 251 390 246 381 b 263 351 246 360 253 351 b 278 372 271 351 278 360 b 263 390 278 381 272 390 m 360 346 l 360 375 b 349 390 360 383 357 390 b 339 381 344 390 340 386 b 338 378 339 381 338 379 l 338 346 l 329 346 l 329 378 b 319 390 329 383 325 390 b 307 381 314 390 308 385 b 307 378 307 381 307 379 l 307 346 l 297 346 l 297 382 b 297 397 297 388 297 392 l 306 397 l 306 388 l 307 388 b 322 397 308 393 314 397 b 336 388 329 397 333 393 b 343 394 338 390 340 392 b 353 397 344 397 347 397 b 369 376 360 397 369 393 l 369 346 m 456 346 l 447 346 l 447 375 b 436 390 447 383 443 390 b 424 381 431 390 426 386 b 424 378 424 381 424 379 l 424 346 l 415 346 l 415 378 b 404 390 415 383 411 390 b 393 381 399 390 394 385 b 393 378 393 381 393 379 l 393 346 l 385 346 l 385 382 b 383 397 385 388 385 392 l 392 397 l 392 388 l 393 388 b 408 397 394 393 400 397 b 421 388 415 397 421 393 b 428 394 424 390 425 392 b 439 397 431 397 433 397 b 456 376 446 397 456 393 m 513 375 b 511 369 513 372 511 371 l 476 369 b 493 351 476 357 485 351 b 507 354 499 351 503 353 l 508 349 b 492 346 506 347 500 346 b 467 371 476 346 467 354 b 490 397 467 385 476 397 b 513 375 507 397 513 383 m 503 376 b 489 390 503 381 500 390 b 476 376 481 390 476 382 m 522 381 b 522 397 522 386 522 392 l 529 397 l 531 386 b 544 397 533 393 539 397 b 547 397 544 397 546 397 l 547 388 b 543 389 546 389 544 389 b 532 378 539 389 533 383 b 532 374 532 376 532 375 l 532 346 l 522 346 l 522 381 m 592 349 b 576 346 589 347 583 346 b 551 371 561 346 551 356 b 578 397 551 386 563 397 b 592 394 583 397 589 396 l 589 388 b 578 390 588 389 583 390 b 561 371 567 390 561 381 b 578 351 561 360 567 351 b 590 354 583 351 588 354 l 592 349 m 606 417 b 613 410 610 417 613 414 b 606 406 613 408 610 406 b 600 410 603 406 600 408 b 606 417 600 414 603 417 m 601 397 l 611 397 l 611 346 l 601 346 m 636 346 b 621 358 626 346 621 351 b 651 379 621 372 632 379 b 640 390 651 383 650 390 b 628 388 636 390 631 389 l 625 393 b 640 397 629 396 636 397 b 661 378 657 397 661 388 l 661 358 b 661 346 661 354 661 349 l 653 346 l 651 351 b 636 346 649 349 643 346 m 651 372 b 631 361 642 372 631 369 b 639 351 631 354 635 351 b 651 360 644 351 649 356 b 651 363 651 361 651 363 l 651 372 m 675 419 l 685 419 l 685 346 l 675 346 m 710 358 b 700 333 707 350 703 339 l 693 333 b 699 358 696 339 699 350 m 743 414 b 760 417 747 415 753 417 b 779 410 768 417 775 414 b 786 397 785 408 786 403 b 781 381 786 390 785 385 b 760 374 775 376 768 374 b 751 375 757 374 754 374 l 751 346 l 743 346 m 751 381 b 760 381 754 381 757 381 b 776 396 769 381 776 385 b 761 410 776 406 769 410 b 751 410 757 410 753 410 m 797 419 l 806 419 l 806 346 l 797 346 m 860 349 b 842 346 856 347 850 346 b 817 371 826 346 817 354 b 840 397 817 385 826 397 b 861 375 857 397 861 383 b 861 369 861 372 861 371 l 826 369 b 843 351 826 357 835 351 b 857 354 850 351 854 353 l 860 349 m 839 390 b 826 376 831 390 826 382 l 853 376 b 839 390 853 381 850 390 m 900 346 l 899 351 b 883 346 897 349 892 346 b 868 358 874 346 868 351 b 899 379 868 372 879 379 b 889 390 899 383 897 390 b 875 388 883 390 878 389 l 872 393 b 889 397 876 396 883 397 b 908 378 904 397 908 388 l 908 358 b 908 346 908 354 908 349 m 899 372 b 878 361 890 372 878 369 b 886 351 878 354 882 351 b 899 360 892 351 897 356 b 899 363 899 361 899 363 m 953 360 b 933 346 953 351 946 346 b 919 349 928 346 922 347 l 922 356 b 933 351 924 354 928 351 b 943 358 940 351 943 354 b 933 368 943 363 940 365 b 921 382 924 372 921 378 b 938 397 921 390 926 397 b 951 394 943 397 949 396 l 949 388 b 938 390 947 389 942 390 b 929 383 932 390 929 388 b 939 375 929 381 932 378 b 953 360 949 372 953 368 m 1004 375 b 1004 369 1004 372 1004 371 l 969 369 b 986 351 969 357 978 351 b 1000 354 993 351 997 353 l 1003 349 b 985 346 999 347 993 346 b 960 371 969 346 960 354 b 985 397 960 385 969 397 b 1004 375 1000 397 1004 383 m 996 376 b 983 390 996 381 993 390 b 969 376 974 390 969 382 m 1083 415 l 1058 346 l 1049 346 l 1026 415 l 1036 415 l 1047 381 b 1056 356 1050 372 1053 363 b 1063 381 1057 363 1060 372 l 1075 415 m 1094 417 b 1100 410 1097 417 1100 414 b 1093 406 1100 408 1097 406 b 1089 410 1090 406 1089 408 b 1094 417 1089 414 1090 417 m 1089 397 l 1099 397 l 1099 346 l 1089 346 m 1125 351 b 1135 358 1132 351 1135 354 b 1125 368 1135 363 1132 365 b 1111 382 1115 372 1111 378 b 1129 397 1111 390 1118 397 b 1142 394 1135 397 1139 396 l 1140 388 b 1129 390 1138 389 1133 390 b 1119 383 1124 390 1119 388 b 1131 375 1119 381 1124 378 b 1143 360 1139 372 1143 368 b 1125 346 1143 351 1136 346 b 1110 349 1118 346 1113 347 l 1113 356 b 1125 351 1115 354 1119 351 m 1160 417 b 1165 410 1163 417 1165 414 b 1160 406 1165 408 1163 406 b 1153 410 1156 406 1153 408 b 1160 417 1153 414 1156 417 m 1165 346 l 1156 346 l 1156 397 l 1165 397 m 1190 389 l 1190 363 b 1197 351 1190 356 1192 351 b 1204 353 1200 351 1201 353 l 1204 347 b 1194 346 1201 346 1199 346 b 1185 349 1190 346 1188 347 b 1181 361 1182 351 1181 356 l 1181 389 l 1174 389 l 1174 397 l 1181 397 l 1181 408 l 1190 410 l 1190 397 l 1204 397 l 1204 389 m 308 194 l 308 206 b 286 193 301 196 294 193 b 264 219 272 193 264 203 b 308 267 264 244 282 267 b 318 265 311 267 315 267 l 324 297 l 346 297 l 331 222 b 326 194 329 213 328 203 m 296 210 b 311 229 301 210 308 215 l 315 249 b 307 251 314 250 311 251 b 285 222 294 251 285 238 b 296 210 285 214 289 210 m 382 288 b 371 274 382 279 376 274 b 360 285 364 274 360 278 b 371 296 360 290 365 296 b 382 288 378 296 382 292 m 365 194 l 343 194 l 357 265 l 378 265 m 433 235 b 433 242 433 236 433 239 b 426 250 433 247 431 250 b 408 226 421 250 411 242 l 401 194 l 382 194 l 392 242 b 394 265 393 251 393 260 l 414 265 l 411 254 l 413 254 b 438 267 419 263 426 267 b 456 247 450 267 456 261 b 453 236 456 244 454 239 l 447 194 l 425 194 m 469 240 l 507 240 l 504 225 l 465 225 m 547 251 b 539 246 543 251 539 249 b 547 238 539 242 542 240 b 564 218 556 235 564 228 b 531 193 564 201 550 193 b 510 199 521 193 514 196 l 515 213 b 532 208 518 213 525 208 b 542 214 539 208 542 213 b 533 224 542 218 540 219 b 517 242 525 228 517 235 b 549 267 517 258 531 267 b 567 263 557 267 564 265 l 563 249 b 547 251 560 250 554 251 m 600 225 b 599 215 600 222 599 218 b 606 211 599 213 600 211 b 613 211 607 211 610 211 l 610 194 b 596 193 606 193 600 193 b 578 208 583 193 578 199 b 579 221 578 213 578 215 l 585 249 l 576 249 l 578 265 l 588 265 l 592 281 l 613 286 l 608 265 l 622 265 l 619 249 l 606 249 m 669 194 l 671 207 b 644 193 663 196 654 193 b 626 213 633 193 626 199 b 628 226 626 217 628 221 l 636 265 l 656 265 l 649 228 b 647 218 649 225 647 219 b 656 210 647 213 650 210 b 672 233 664 210 671 218 l 678 265 l 701 265 l 692 218 b 688 194 690 210 688 200 m 751 194 l 753 206 b 729 193 746 196 736 193 b 706 219 717 193 706 203 b 751 267 706 244 725 267 b 763 265 756 267 758 267 l 767 297 l 788 297 l 774 222 b 769 194 772 213 771 203 m 738 210 b 756 229 744 210 753 215 l 758 249 b 750 251 757 250 754 251 b 729 222 736 251 729 238 b 738 210 729 214 733 210 m 826 288 b 813 274 826 279 819 274 b 803 285 808 274 803 278 b 814 296 803 290 808 296 b 826 288 821 296 826 292 m 808 194 l 786 194 l 800 265 l 821 265 m 857 193 b 828 222 839 193 828 206 b 869 267 828 247 844 267 b 900 238 889 267 900 254 b 857 193 900 213 882 193 m 867 251 b 849 222 856 251 849 235 b 861 210 849 214 853 210 b 879 238 872 210 879 225 b 867 251 879 244 875 251 m 918 193 b 906 206 910 193 906 199 b 919 219 906 213 911 219 b 932 207 926 219 932 214 b 918 193 932 199 925 193 m 990 250 b 967 225 976 250 967 238 b 982 210 967 214 974 210 b 996 213 986 210 992 213 l 996 196 b 976 193 990 194 985 193 b 946 222 957 193 946 204 b 992 267 946 247 964 267 b 1007 264 997 267 1003 265 l 1001 249 b 990 250 999 249 996 250 m 1038 193 b 1008 222 1019 193 1008 206 b 1050 267 1008 247 1025 267 b 1081 238 1068 267 1081 254 b 1038 193 1081 213 1061 193 m 1047 251 b 1029 222 1035 251 1029 235 b 1039 210 1029 214 1033 210 b 1058 238 1051 210 1058 225 b 1047 251 1058 244 1056 251 m 1176 235 b 1178 242 1178 236 1178 239 b 1172 250 1178 247 1175 250 b 1154 228 1165 250 1157 240 l 1149 194 l 1128 194 l 1136 235 b 1136 242 1136 236 1136 239 b 1129 250 1136 247 1135 250 b 1111 226 1122 250 1115 240 l 1107 194 l 1086 194 l 1096 242 b 1099 265 1097 251 1097 260 l 1117 265 l 1115 254 b 1140 267 1122 263 1132 267 b 1157 254 1151 267 1157 261 b 1182 267 1164 263 1174 267 b 1200 249 1193 267 1200 261 b 1199 236 1200 244 1199 239 l 1190 194 l 1171 194 m 99 456 b 14 522 44 457 14 485 b 42 561 14 553 32 561 b 60 528 64 561 71 538 b 26 519 60 546 26 549 b 99 468 26 488 56 468 b 165 567 154 468 165 525 b 125 657 165 596 167 657 b 119 642 124 657 119 656 l 119 597 b 119 596 119 597 119 596 l 119 521 b 129 504 119 504 129 504 l 129 499 l 68 499 l 68 504 b 78 518 68 504 76 504 b 78 518 78 518 78 518 l 78 644 b 63 664 78 656 76 664 b 49 656 54 664 49 658 b 61 646 49 644 61 646 b 44 628 61 631 50 628 b 25 646 26 628 25 643 b 63 674 25 664 47 674 b 125 664 88 674 96 664 b 206 567 168 664 206 642 b 99 456 206 514 174 453 m 282 499 l 219 499 l 219 504 b 231 518 219 504 229 504 l 231 585 b 219 600 229 600 219 600 l 219 604 l 269 614 l 269 521 b 282 504 269 504 282 504 m 251 660 b 269 642 263 660 269 651 b 251 622 269 631 263 622 b 233 642 240 622 233 631 b 251 660 233 651 240 660 m 346 600 b 379 615 351 606 363 615 b 414 579 397 615 414 603 b 414 521 414 579 414 521 b 424 504 414 506 421 504 l 424 499 l 363 499 l 363 504 b 372 518 363 504 371 504 l 372 583 b 346 579 372 603 346 600 l 346 521 b 357 504 346 504 357 504 l 357 499 l 296 499 l 296 504 b 306 518 296 504 304 504 l 306 585 b 296 600 304 600 296 600 l 296 604 l 346 614 l 346 600 m 535 622 b 596 664 535 622 535 664 b 644 660 626 664 632 651 b 653 663 647 661 649 663 b 653 621 653 656 653 621 l 647 619 b 596 654 647 619 642 654 b 576 611 567 654 557 619 b 672 539 601 600 674 597 b 603 499 671 515 647 499 b 547 499 560 499 556 510 b 542 499 547 499 543 499 l 542 542 l 547 542 b 601 511 547 524 576 511 b 613 560 646 511 644 550 b 535 622 583 568 535 578 m 742 608 b 731 597 742 608 733 610 l 731 518 b 742 504 732 504 742 504 l 742 499 l 725 499 b 690 531 711 499 690 499 l 690 596 b 678 608 689 610 678 608 l 678 614 b 731 629 707 614 714 629 l 731 614 l 742 614 l 742 608 m 753 615 l 813 615 l 813 608 b 804 596 813 608 804 610 l 804 535 b 831 535 804 507 831 517 l 831 593 b 821 608 831 610 821 608 l 821 615 l 882 615 l 882 608 b 869 596 882 608 871 610 l 869 518 b 882 504 871 504 882 504 l 882 499 l 853 499 b 831 517 839 499 831 510 b 801 499 826 510 818 499 b 764 535 785 499 764 510 b 764 593 764 535 764 593 b 753 608 764 608 754 608 m 1054 472 b 1032 456 1054 463 1047 456 b 967 503 1018 456 974 460 b 947 499 960 500 954 499 b 890 557 917 499 890 525 b 947 615 890 589 917 615 b 965 611 954 615 960 613 l 965 664 l 1017 656 l 1017 650 b 1006 635 1017 650 1007 651 b 1006 514 1006 635 1006 515 b 1033 463 1007 479 1017 465 b 1029 472 1031 465 1029 469 b 1042 485 1029 479 1033 485 b 1054 472 1049 485 1054 479 m 947 508 b 965 557 963 508 965 531 b 947 607 965 585 963 607 b 929 557 932 607 929 585 b 947 508 929 531 932 508 m 1085 499 l 1024 499 l 1024 504 b 1033 518 1024 504 1033 504 l 1033 585 b 1024 600 1033 600 1024 600 l 1024 604 l 1075 614 l 1075 521 b 1085 504 1075 504 1085 504 m 1036 642 b 1056 660 1036 651 1044 660 b 1074 642 1065 660 1074 651 b 1056 622 1074 631 1065 622 b 1036 642 1044 622 1036 631 m 1201 557 b 1143 499 1201 525 1175 499 b 1086 557 1111 499 1086 525 b 1143 614 1086 589 1111 614 b 1201 557 1175 614 1201 589 m 1143 508 b 1161 557 1160 508 1161 531 b 1143 606 1161 585 1160 606 b 1126 557 1128 606 1126 585 b 1143 508 1126 531 1128 508 m 22 238 l 236 238 l 236 210 l 22 210 m 496 840 l 593 964 l 725 964 l 625 840 m 1079 840 l 1178 964 l 1203 964 l 1203 840 m 106 840 l 206 964 l 336 964 l 236 840 m 690 840 l 789 964 l 919 964 l 819 840 m 42 840 l 22 840 l 22 964 l 142 964 m 301 840 l 400 964 l 531 964 l 431 840 m 885 840 l 985 964 l 1113 964 l 1015 840 m 725 157 l 625 32 l 496 32 l 593 157 m 1178 157 l 1203 157 l 1203 32 l 1079 32 m 336 157 l 236 32 l 106 32 l 206 157 m 919 157 l 819 32 l 690 32 l 789 157 m 142 157 l 42 32 l 22 32 l 22 157 m 531 157 l 431 32 l 301 32 l 400 157 m 1113 157 l 1015 32 l 885 32 l 985 157 "},"8":{"ha":1261,"x_min":0,"x_max":0,"o":"m 35 721 l 17 721 l 32 803 b 54 804 39 804 46 804 b 76 799 61 804 71 803 b 86 782 82 796 86 789 b 75 757 86 771 81 763 b 47 751 68 753 57 751 b 42 751 46 751 43 751 m 44 765 b 50 764 46 764 46 764 b 68 781 61 764 68 771 b 54 790 68 788 61 790 b 47 789 51 790 49 790 m 117 788 l 114 771 l 144 771 l 140 756 l 111 756 l 107 736 l 140 736 l 138 721 l 86 721 l 101 804 l 150 804 l 149 788 m 168 721 l 150 721 l 167 803 b 188 804 171 804 179 804 b 210 800 196 804 203 803 b 219 785 215 796 219 790 b 200 760 219 771 210 764 b 208 744 204 757 207 753 b 210 721 208 735 210 725 l 193 721 b 190 740 193 724 192 731 b 179 754 190 751 186 754 l 174 754 m 176 767 l 183 767 b 201 782 193 767 201 774 b 188 790 201 788 194 790 b 181 789 183 790 182 790 m 244 735 b 258 744 251 735 258 738 b 247 756 258 749 256 753 b 231 778 238 761 231 767 b 263 806 231 796 244 806 b 282 801 272 806 278 803 l 276 788 b 261 789 274 788 268 790 b 249 782 253 789 249 786 b 261 769 249 776 253 774 b 278 749 271 764 278 757 b 243 719 278 729 263 719 b 219 726 232 719 224 722 l 226 739 b 244 735 231 738 236 735 m 333 806 b 367 771 354 806 367 790 b 350 731 367 756 361 740 b 321 719 344 725 333 719 b 288 754 300 719 288 735 b 303 793 288 768 294 785 b 333 806 311 801 321 806 m 338 740 b 347 771 344 747 347 760 b 331 790 347 781 344 790 b 317 785 325 790 321 788 b 307 756 310 778 307 764 b 324 735 307 743 311 735 b 338 740 329 735 333 736 m 386 721 l 371 721 l 386 804 l 407 804 l 418 772 b 425 744 421 761 422 753 b 429 774 425 753 426 761 l 435 804 l 451 804 l 436 721 l 418 721 l 406 754 b 397 783 401 765 400 774 b 393 750 396 775 394 763 m 465 721 l 447 721 l 486 804 l 510 804 l 519 721 l 500 721 l 499 742 l 476 742 m 481 756 l 499 756 l 496 774 b 496 790 496 779 496 786 b 489 774 493 786 490 779 m 563 804 l 549 736 l 581 736 l 578 721 l 529 721 l 544 804 m 635 756 b 635 746 635 753 635 750 b 644 735 635 739 639 735 b 664 756 654 735 661 740 l 672 804 l 692 804 l 682 756 b 643 719 676 731 667 719 b 617 746 626 719 617 729 b 617 757 617 750 617 754 l 625 804 l 643 804 m 714 735 b 728 744 721 735 728 738 b 717 756 728 749 724 753 b 699 778 707 761 699 767 b 732 806 699 796 714 806 b 751 801 742 806 749 803 l 746 788 b 731 789 743 788 736 790 b 717 782 722 789 717 786 b 731 769 717 776 724 774 b 746 749 739 764 746 757 b 713 719 746 729 731 719 b 689 726 701 719 692 722 l 694 739 b 714 735 700 738 706 735 m 785 788 l 782 771 l 811 771 l 808 756 l 778 756 l 775 736 l 808 736 l 804 721 l 754 721 l 769 804 l 818 804 l 815 788 m 907 731 b 876 719 899 725 890 719 b 843 754 856 719 843 735 b 860 793 843 768 849 785 b 889 806 865 801 876 806 b 922 771 911 806 922 790 b 907 731 922 756 918 740 m 861 756 b 879 735 861 743 867 735 b 892 740 885 735 890 736 b 904 771 899 747 904 760 b 886 790 904 781 899 790 b 872 785 882 790 876 788 b 861 756 865 778 861 764 m 954 783 b 949 750 954 775 951 763 l 943 721 l 925 721 l 942 804 l 963 804 l 974 772 b 983 744 978 761 981 753 b 986 774 983 753 985 761 l 990 804 l 1008 804 l 992 721 l 974 721 l 961 754 b 954 783 958 765 956 774 m 1042 804 l 1029 736 l 1060 736 l 1058 721 l 1008 721 l 1025 804 m 1090 721 l 1072 721 l 1079 756 l 1061 804 l 1082 804 l 1086 783 b 1090 768 1088 776 1089 772 b 1099 783 1093 772 1096 778 l 1110 804 l 1132 804 l 1096 756 m 1149 729 b 1161 742 1149 736 1153 742 b 1171 731 1167 742 1171 738 b 1158 719 1171 725 1165 719 b 1149 729 1151 719 1149 725 m 1169 749 l 1156 749 l 1164 804 l 1182 804 m 32 408 l 32 385 l 58 385 l 58 378 l 32 378 l 32 346 l 22 346 l 22 415 l 61 415 l 61 408 m 115 372 b 90 346 115 353 101 346 b 67 371 76 346 67 354 b 90 397 67 388 76 397 b 115 372 106 397 115 388 m 76 371 b 90 351 76 360 81 351 b 106 372 100 351 106 360 b 90 390 106 381 101 390 b 76 371 79 390 76 381 m 125 346 l 125 381 b 125 397 125 386 125 392 l 133 397 l 135 386 b 149 397 138 393 143 397 b 150 397 150 397 150 397 l 150 388 b 149 389 150 389 150 389 b 136 378 142 389 138 383 b 135 374 135 376 135 375 l 135 346 m 178 381 b 215 417 178 403 193 417 b 232 414 224 417 229 415 l 229 407 b 215 410 226 408 221 410 b 188 381 199 410 188 399 b 215 351 188 363 197 351 b 229 356 219 351 226 354 l 232 349 b 213 346 229 347 222 346 b 178 381 193 346 178 357 m 263 346 b 236 371 249 346 236 354 b 263 397 236 388 249 397 b 288 372 276 397 288 388 b 263 346 288 353 274 346 m 263 390 b 246 371 251 390 246 381 b 263 351 246 360 253 351 b 278 372 271 351 278 360 b 263 390 278 381 272 390 m 360 346 l 360 375 b 349 390 360 383 357 390 b 339 381 344 390 340 386 b 338 378 339 381 338 379 l 338 346 l 329 346 l 329 378 b 319 390 329 383 325 390 b 307 381 314 390 308 385 b 307 378 307 381 307 379 l 307 346 l 297 346 l 297 382 b 297 397 297 388 297 392 l 306 397 l 306 388 l 307 388 b 322 397 308 393 314 397 b 336 388 329 397 333 393 b 343 394 338 390 340 392 b 353 397 344 397 347 397 b 369 376 360 397 369 393 l 369 346 m 456 346 l 447 346 l 447 375 b 436 390 447 383 443 390 b 424 381 431 390 426 386 b 424 378 424 381 424 379 l 424 346 l 415 346 l 415 378 b 404 390 415 383 411 390 b 393 381 399 390 394 385 b 393 378 393 381 393 379 l 393 346 l 385 346 l 385 382 b 383 397 385 388 385 392 l 392 397 l 392 388 l 393 388 b 408 397 394 393 400 397 b 421 388 415 397 421 393 b 428 394 424 390 425 392 b 439 397 431 397 433 397 b 456 376 446 397 456 393 m 513 375 b 511 369 513 372 511 371 l 476 369 b 493 351 476 357 485 351 b 507 354 499 351 503 353 l 508 349 b 492 346 506 347 500 346 b 467 371 476 346 467 354 b 490 397 467 385 476 397 b 513 375 507 397 513 383 m 503 376 b 489 390 503 381 500 390 b 476 376 481 390 476 382 m 522 381 b 522 397 522 386 522 392 l 529 397 l 531 386 b 544 397 533 393 539 397 b 547 397 544 397 546 397 l 547 388 b 543 389 546 389 544 389 b 532 378 539 389 533 383 b 532 374 532 376 532 375 l 532 346 l 522 346 l 522 381 m 592 349 b 576 346 589 347 583 346 b 551 371 561 346 551 356 b 578 397 551 386 563 397 b 592 394 583 397 589 396 l 589 388 b 578 390 588 389 583 390 b 561 371 567 390 561 381 b 578 351 561 360 567 351 b 590 354 583 351 588 354 l 592 349 m 606 417 b 613 410 610 417 613 414 b 606 406 613 408 610 406 b 600 410 603 406 600 408 b 606 417 600 414 603 417 m 601 397 l 611 397 l 611 346 l 601 346 m 636 346 b 621 358 626 346 621 351 b 651 379 621 372 632 379 b 640 390 651 383 650 390 b 628 388 636 390 631 389 l 625 393 b 640 397 629 396 636 397 b 661 378 657 397 661 388 l 661 358 b 661 346 661 354 661 349 l 653 346 l 651 351 b 636 346 649 349 643 346 m 651 372 b 631 361 642 372 631 369 b 639 351 631 354 635 351 b 651 360 644 351 649 356 b 651 363 651 361 651 363 l 651 372 m 675 419 l 685 419 l 685 346 l 675 346 m 710 358 b 700 333 707 350 703 339 l 693 333 b 699 358 696 339 699 350 m 743 414 b 760 417 747 415 753 417 b 779 410 768 417 775 414 b 786 397 785 408 786 403 b 781 381 786 390 785 385 b 760 374 775 376 768 374 b 751 375 757 374 754 374 l 751 346 l 743 346 m 751 381 b 760 381 754 381 757 381 b 776 396 769 381 776 385 b 761 410 776 406 769 410 b 751 410 757 410 753 410 m 797 419 l 806 419 l 806 346 l 797 346 m 860 349 b 842 346 856 347 850 346 b 817 371 826 346 817 354 b 840 397 817 385 826 397 b 861 375 857 397 861 383 b 861 369 861 372 861 371 l 826 369 b 843 351 826 357 835 351 b 857 354 850 351 854 353 l 860 349 m 839 390 b 826 376 831 390 826 382 l 853 376 b 839 390 853 381 850 390 m 900 346 l 899 351 b 883 346 897 349 892 346 b 868 358 874 346 868 351 b 899 379 868 372 879 379 b 889 390 899 383 897 390 b 875 388 883 390 878 389 l 872 393 b 889 397 876 396 883 397 b 908 378 904 397 908 388 l 908 358 b 908 346 908 354 908 349 m 899 372 b 878 361 890 372 878 369 b 886 351 878 354 882 351 b 899 360 892 351 897 356 b 899 363 899 361 899 363 m 953 360 b 933 346 953 351 946 346 b 919 349 928 346 922 347 l 922 356 b 933 351 924 354 928 351 b 943 358 940 351 943 354 b 933 368 943 363 940 365 b 921 382 924 372 921 378 b 938 397 921 390 926 397 b 951 394 943 397 949 396 l 949 388 b 938 390 947 389 942 390 b 929 383 932 390 929 388 b 939 375 929 381 932 378 b 953 360 949 372 953 368 m 1004 375 b 1004 369 1004 372 1004 371 l 969 369 b 986 351 969 357 978 351 b 1000 354 993 351 997 353 l 1003 349 b 985 346 999 347 993 346 b 960 371 969 346 960 354 b 985 397 960 385 969 397 b 1004 375 1000 397 1004 383 m 996 376 b 983 390 996 381 993 390 b 969 376 974 390 969 382 m 1083 415 l 1058 346 l 1049 346 l 1026 415 l 1036 415 l 1047 381 b 1056 356 1050 372 1053 363 b 1063 381 1057 363 1060 372 l 1075 415 m 1094 417 b 1100 410 1097 417 1100 414 b 1093 406 1100 408 1097 406 b 1089 410 1090 406 1089 408 b 1094 417 1089 414 1090 417 m 1089 397 l 1099 397 l 1099 346 l 1089 346 m 1125 351 b 1135 358 1132 351 1135 354 b 1125 368 1135 363 1132 365 b 1111 382 1115 372 1111 378 b 1129 397 1111 390 1118 397 b 1142 394 1135 397 1139 396 l 1140 388 b 1129 390 1138 389 1133 390 b 1119 383 1124 390 1119 388 b 1131 375 1119 381 1124 378 b 1143 360 1139 372 1143 368 b 1125 346 1143 351 1136 346 b 1110 349 1118 346 1113 347 l 1113 356 b 1125 351 1115 354 1119 351 m 1160 417 b 1165 410 1163 417 1165 414 b 1160 406 1165 408 1163 406 b 1153 410 1156 406 1153 408 b 1160 417 1153 414 1156 417 m 1165 346 l 1156 346 l 1156 397 l 1165 397 m 1190 389 l 1190 363 b 1197 351 1190 356 1192 351 b 1204 353 1200 351 1201 353 l 1204 347 b 1194 346 1201 346 1199 346 b 1185 349 1190 346 1188 347 b 1181 361 1182 351 1181 356 l 1181 389 l 1174 389 l 1174 397 l 1181 397 l 1181 408 l 1190 410 l 1190 397 l 1204 397 l 1204 389 m 308 194 l 308 206 b 286 193 301 196 294 193 b 264 219 272 193 264 203 b 308 267 264 244 282 267 b 318 265 311 267 315 267 l 324 297 l 346 297 l 331 222 b 326 194 329 213 328 203 m 296 210 b 311 229 301 210 308 215 l 315 249 b 307 251 314 250 311 251 b 285 222 294 251 285 238 b 296 210 285 214 289 210 m 382 288 b 371 274 382 279 376 274 b 360 285 364 274 360 278 b 371 296 360 290 365 296 b 382 288 378 296 382 292 m 365 194 l 343 194 l 357 265 l 378 265 m 433 235 b 433 242 433 236 433 239 b 426 250 433 247 431 250 b 408 226 421 250 411 242 l 401 194 l 382 194 l 392 242 b 394 265 393 251 393 260 l 414 265 l 411 254 l 413 254 b 438 267 419 263 426 267 b 456 247 450 267 456 261 b 453 236 456 244 454 239 l 447 194 l 425 194 m 469 240 l 507 240 l 504 225 l 465 225 m 547 251 b 539 246 543 251 539 249 b 547 238 539 242 542 240 b 564 218 556 235 564 228 b 531 193 564 201 550 193 b 510 199 521 193 514 196 l 515 213 b 532 208 518 213 525 208 b 542 214 539 208 542 213 b 533 224 542 218 540 219 b 517 242 525 228 517 235 b 549 267 517 258 531 267 b 567 263 557 267 564 265 l 563 249 b 547 251 560 250 554 251 m 600 225 b 599 215 600 222 599 218 b 606 211 599 213 600 211 b 613 211 607 211 610 211 l 610 194 b 596 193 606 193 600 193 b 578 208 583 193 578 199 b 579 221 578 213 578 215 l 585 249 l 576 249 l 578 265 l 588 265 l 592 281 l 613 286 l 608 265 l 622 265 l 619 249 l 606 249 m 669 194 l 671 207 b 644 193 663 196 654 193 b 626 213 633 193 626 199 b 628 226 626 217 628 221 l 636 265 l 656 265 l 649 228 b 647 218 649 225 647 219 b 656 210 647 213 650 210 b 672 233 664 210 671 218 l 678 265 l 701 265 l 692 218 b 688 194 690 210 688 200 m 751 194 l 753 206 b 729 193 746 196 736 193 b 706 219 717 193 706 203 b 751 267 706 244 725 267 b 763 265 756 267 758 267 l 767 297 l 788 297 l 774 222 b 769 194 772 213 771 203 m 738 210 b 756 229 744 210 753 215 l 758 249 b 750 251 757 250 754 251 b 729 222 736 251 729 238 b 738 210 729 214 733 210 m 826 288 b 813 274 826 279 819 274 b 803 285 808 274 803 278 b 814 296 803 290 808 296 b 826 288 821 296 826 292 m 808 194 l 786 194 l 800 265 l 821 265 m 857 193 b 828 222 839 193 828 206 b 869 267 828 247 844 267 b 900 238 889 267 900 254 b 857 193 900 213 882 193 m 867 251 b 849 222 856 251 849 235 b 861 210 849 214 853 210 b 879 238 872 210 879 225 b 867 251 879 244 875 251 m 918 193 b 906 206 910 193 906 199 b 919 219 906 213 911 219 b 932 207 926 219 932 214 b 918 193 932 199 925 193 m 990 250 b 967 225 976 250 967 238 b 982 210 967 214 974 210 b 996 213 986 210 992 213 l 996 196 b 976 193 990 194 985 193 b 946 222 957 193 946 204 b 992 267 946 247 964 267 b 1007 264 997 267 1003 265 l 1001 249 b 990 250 999 249 996 250 m 1038 193 b 1008 222 1019 193 1008 206 b 1050 267 1008 247 1025 267 b 1081 238 1068 267 1081 254 b 1038 193 1081 213 1061 193 m 1047 251 b 1029 222 1035 251 1029 235 b 1039 210 1029 214 1033 210 b 1058 238 1051 210 1058 225 b 1047 251 1058 244 1056 251 m 1176 235 b 1178 242 1178 236 1178 239 b 1172 250 1178 247 1175 250 b 1154 228 1165 250 1157 240 l 1149 194 l 1128 194 l 1136 235 b 1136 242 1136 236 1136 239 b 1129 250 1136 247 1135 250 b 1111 226 1122 250 1115 240 l 1107 194 l 1086 194 l 1096 242 b 1099 265 1097 251 1097 260 l 1117 265 l 1115 254 b 1140 267 1122 263 1132 267 b 1157 254 1151 267 1157 261 b 1182 267 1164 263 1174 267 b 1200 249 1193 267 1200 261 b 1199 236 1200 244 1199 239 l 1190 194 l 1171 194 m 99 456 b 14 522 44 457 14 485 b 42 561 14 553 32 561 b 60 528 64 561 71 538 b 26 519 60 546 26 549 b 99 468 26 488 56 468 b 165 567 154 468 165 525 b 125 657 165 596 167 657 b 119 642 124 657 119 656 l 119 597 b 119 596 119 597 119 596 l 119 521 b 129 504 119 504 129 504 l 129 499 l 68 499 l 68 504 b 78 518 68 504 76 504 b 78 518 78 518 78 518 l 78 644 b 63 664 78 656 76 664 b 49 656 54 664 49 658 b 61 646 49 644 61 646 b 44 628 61 631 50 628 b 25 646 26 628 25 643 b 63 674 25 664 47 674 b 125 664 88 674 96 664 b 206 567 168 664 206 642 b 99 456 206 514 174 453 m 282 499 l 219 499 l 219 504 b 231 518 219 504 229 504 l 231 585 b 219 600 229 600 219 600 l 219 604 l 269 614 l 269 521 b 282 504 269 504 282 504 m 251 660 b 269 642 263 660 269 651 b 251 622 269 631 263 622 b 233 642 240 622 233 631 b 251 660 233 651 240 660 m 346 600 b 379 615 351 606 363 615 b 414 579 397 615 414 603 b 414 521 414 579 414 521 b 424 504 414 506 421 504 l 424 499 l 363 499 l 363 504 b 372 518 363 504 371 504 l 372 583 b 346 579 372 603 346 600 l 346 521 b 357 504 346 504 357 504 l 357 499 l 296 499 l 296 504 b 306 518 296 504 304 504 l 306 585 b 296 600 304 600 296 600 l 296 604 l 346 614 l 346 600 m 535 622 b 596 664 535 622 535 664 b 644 660 626 664 632 651 b 653 663 647 661 649 663 b 653 621 653 656 653 621 l 647 619 b 596 654 647 619 642 654 b 576 611 567 654 557 619 b 672 539 601 600 674 597 b 603 499 671 515 647 499 b 547 499 560 499 556 510 b 542 499 547 499 543 499 l 542 542 l 547 542 b 601 511 547 524 576 511 b 613 560 646 511 644 550 b 535 622 583 568 535 578 m 742 608 b 731 597 742 608 733 610 l 731 518 b 742 504 732 504 742 504 l 742 499 l 725 499 b 690 531 711 499 690 499 l 690 596 b 678 608 689 610 678 608 l 678 614 b 731 629 707 614 714 629 l 731 614 l 742 614 l 742 608 m 753 615 l 813 615 l 813 608 b 804 596 813 608 804 610 l 804 535 b 831 535 804 507 831 517 l 831 593 b 821 608 831 610 821 608 l 821 615 l 882 615 l 882 608 b 869 596 882 608 871 610 l 869 518 b 882 504 871 504 882 504 l 882 499 l 853 499 b 831 517 839 499 831 510 b 801 499 826 510 818 499 b 764 535 785 499 764 510 b 764 593 764 535 764 593 b 753 608 764 608 754 608 m 1054 472 b 1032 456 1054 463 1047 456 b 967 503 1018 456 974 460 b 947 499 960 500 954 499 b 890 557 917 499 890 525 b 947 615 890 589 917 615 b 965 611 954 615 960 613 l 965 664 l 1017 656 l 1017 650 b 1006 635 1017 650 1007 651 b 1006 514 1006 635 1006 515 b 1033 463 1007 479 1017 465 b 1029 472 1031 465 1029 469 b 1042 485 1029 479 1033 485 b 1054 472 1049 485 1054 479 m 947 508 b 965 557 963 508 965 531 b 947 607 965 585 963 607 b 929 557 932 607 929 585 b 947 508 929 531 932 508 m 1085 499 l 1024 499 l 1024 504 b 1033 518 1024 504 1033 504 l 1033 585 b 1024 600 1033 600 1024 600 l 1024 604 l 1075 614 l 1075 521 b 1085 504 1075 504 1085 504 m 1036 642 b 1056 660 1036 651 1044 660 b 1074 642 1065 660 1074 651 b 1056 622 1074 631 1065 622 b 1036 642 1044 622 1036 631 m 1201 557 b 1143 499 1201 525 1175 499 b 1086 557 1111 499 1086 525 b 1143 614 1086 589 1111 614 b 1201 557 1175 614 1201 589 m 1143 508 b 1161 557 1160 508 1161 531 b 1143 606 1161 585 1160 606 b 1126 557 1128 606 1126 585 b 1143 508 1126 531 1128 508 m 22 238 l 236 238 l 236 210 l 22 210 m 496 840 l 593 964 l 725 964 l 625 840 m 1079 840 l 1178 964 l 1203 964 l 1203 840 m 106 840 l 206 964 l 336 964 l 236 840 m 690 840 l 789 964 l 919 964 l 819 840 m 42 840 l 22 840 l 22 964 l 142 964 m 301 840 l 400 964 l 531 964 l 431 840 m 885 840 l 985 964 l 1113 964 l 1015 840 m 725 157 l 625 32 l 496 32 l 593 157 m 1178 157 l 1203 157 l 1203 32 l 1079 32 m 336 157 l 236 32 l 106 32 l 206 157 m 919 157 l 819 32 l 690 32 l 789 157 m 142 157 l 42 32 l 22 32 l 22 157 m 531 157 l 431 32 l 301 32 l 400 157 m 1113 157 l 1015 32 l 885 32 l 985 157 "},"9":{"ha":1261,"x_min":0,"x_max":0,"o":"m 35 721 l 17 721 l 32 803 b 54 804 39 804 46 804 b 76 799 61 804 71 803 b 86 782 82 796 86 789 b 75 757 86 771 81 763 b 47 751 68 753 57 751 b 42 751 46 751 43 751 m 44 765 b 50 764 46 764 46 764 b 68 781 61 764 68 771 b 54 790 68 788 61 790 b 47 789 51 790 49 790 m 117 788 l 114 771 l 144 771 l 140 756 l 111 756 l 107 736 l 140 736 l 138 721 l 86 721 l 101 804 l 150 804 l 149 788 m 168 721 l 150 721 l 167 803 b 188 804 171 804 179 804 b 210 800 196 804 203 803 b 219 785 215 796 219 790 b 200 760 219 771 210 764 b 208 744 204 757 207 753 b 210 721 208 735 210 725 l 193 721 b 190 740 193 724 192 731 b 179 754 190 751 186 754 l 174 754 m 176 767 l 183 767 b 201 782 193 767 201 774 b 188 790 201 788 194 790 b 181 789 183 790 182 790 m 244 735 b 258 744 251 735 258 738 b 247 756 258 749 256 753 b 231 778 238 761 231 767 b 263 806 231 796 244 806 b 282 801 272 806 278 803 l 276 788 b 261 789 274 788 268 790 b 249 782 253 789 249 786 b 261 769 249 776 253 774 b 278 749 271 764 278 757 b 243 719 278 729 263 719 b 219 726 232 719 224 722 l 226 739 b 244 735 231 738 236 735 m 333 806 b 367 771 354 806 367 790 b 350 731 367 756 361 740 b 321 719 344 725 333 719 b 288 754 300 719 288 735 b 303 793 288 768 294 785 b 333 806 311 801 321 806 m 338 740 b 347 771 344 747 347 760 b 331 790 347 781 344 790 b 317 785 325 790 321 788 b 307 756 310 778 307 764 b 324 735 307 743 311 735 b 338 740 329 735 333 736 m 386 721 l 371 721 l 386 804 l 407 804 l 418 772 b 425 744 421 761 422 753 b 429 774 425 753 426 761 l 435 804 l 451 804 l 436 721 l 418 721 l 406 754 b 397 783 401 765 400 774 b 393 750 396 775 394 763 m 465 721 l 447 721 l 486 804 l 510 804 l 519 721 l 500 721 l 499 742 l 476 742 m 481 756 l 499 756 l 496 774 b 496 790 496 779 496 786 b 489 774 493 786 490 779 m 563 804 l 549 736 l 581 736 l 578 721 l 529 721 l 544 804 m 635 756 b 635 746 635 753 635 750 b 644 735 635 739 639 735 b 664 756 654 735 661 740 l 672 804 l 692 804 l 682 756 b 643 719 676 731 667 719 b 617 746 626 719 617 729 b 617 757 617 750 617 754 l 625 804 l 643 804 m 714 735 b 728 744 721 735 728 738 b 717 756 728 749 724 753 b 699 778 707 761 699 767 b 732 806 699 796 714 806 b 751 801 742 806 749 803 l 746 788 b 731 789 743 788 736 790 b 717 782 722 789 717 786 b 731 769 717 776 724 774 b 746 749 739 764 746 757 b 713 719 746 729 731 719 b 689 726 701 719 692 722 l 694 739 b 714 735 700 738 706 735 m 785 788 l 782 771 l 811 771 l 808 756 l 778 756 l 775 736 l 808 736 l 804 721 l 754 721 l 769 804 l 818 804 l 815 788 m 907 731 b 876 719 899 725 890 719 b 843 754 856 719 843 735 b 860 793 843 768 849 785 b 889 806 865 801 876 806 b 922 771 911 806 922 790 b 907 731 922 756 918 740 m 861 756 b 879 735 861 743 867 735 b 892 740 885 735 890 736 b 904 771 899 747 904 760 b 886 790 904 781 899 790 b 872 785 882 790 876 788 b 861 756 865 778 861 764 m 954 783 b 949 750 954 775 951 763 l 943 721 l 925 721 l 942 804 l 963 804 l 974 772 b 983 744 978 761 981 753 b 986 774 983 753 985 761 l 990 804 l 1008 804 l 992 721 l 974 721 l 961 754 b 954 783 958 765 956 774 m 1042 804 l 1029 736 l 1060 736 l 1058 721 l 1008 721 l 1025 804 m 1090 721 l 1072 721 l 1079 756 l 1061 804 l 1082 804 l 1086 783 b 1090 768 1088 776 1089 772 b 1099 783 1093 772 1096 778 l 1110 804 l 1132 804 l 1096 756 m 1149 729 b 1161 742 1149 736 1153 742 b 1171 731 1167 742 1171 738 b 1158 719 1171 725 1165 719 b 1149 729 1151 719 1149 725 m 1169 749 l 1156 749 l 1164 804 l 1182 804 m 32 408 l 32 385 l 58 385 l 58 378 l 32 378 l 32 346 l 22 346 l 22 415 l 61 415 l 61 408 m 115 372 b 90 346 115 353 101 346 b 67 371 76 346 67 354 b 90 397 67 388 76 397 b 115 372 106 397 115 388 m 76 371 b 90 351 76 360 81 351 b 106 372 100 351 106 360 b 90 390 106 381 101 390 b 76 371 79 390 76 381 m 125 346 l 125 381 b 125 397 125 386 125 392 l 133 397 l 135 386 b 149 397 138 393 143 397 b 150 397 150 397 150 397 l 150 388 b 149 389 150 389 150 389 b 136 378 142 389 138 383 b 135 374 135 376 135 375 l 135 346 m 178 381 b 215 417 178 403 193 417 b 232 414 224 417 229 415 l 229 407 b 215 410 226 408 221 410 b 188 381 199 410 188 399 b 215 351 188 363 197 351 b 229 356 219 351 226 354 l 232 349 b 213 346 229 347 222 346 b 178 381 193 346 178 357 m 263 346 b 236 371 249 346 236 354 b 263 397 236 388 249 397 b 288 372 276 397 288 388 b 263 346 288 353 274 346 m 263 390 b 246 371 251 390 246 381 b 263 351 246 360 253 351 b 278 372 271 351 278 360 b 263 390 278 381 272 390 m 360 346 l 360 375 b 349 390 360 383 357 390 b 339 381 344 390 340 386 b 338 378 339 381 338 379 l 338 346 l 329 346 l 329 378 b 319 390 329 383 325 390 b 307 381 314 390 308 385 b 307 378 307 381 307 379 l 307 346 l 297 346 l 297 382 b 297 397 297 388 297 392 l 306 397 l 306 388 l 307 388 b 322 397 308 393 314 397 b 336 388 329 397 333 393 b 343 394 338 390 340 392 b 353 397 344 397 347 397 b 369 376 360 397 369 393 l 369 346 m 456 346 l 447 346 l 447 375 b 436 390 447 383 443 390 b 424 381 431 390 426 386 b 424 378 424 381 424 379 l 424 346 l 415 346 l 415 378 b 404 390 415 383 411 390 b 393 381 399 390 394 385 b 393 378 393 381 393 379 l 393 346 l 385 346 l 385 382 b 383 397 385 388 385 392 l 392 397 l 392 388 l 393 388 b 408 397 394 393 400 397 b 421 388 415 397 421 393 b 428 394 424 390 425 392 b 439 397 431 397 433 397 b 456 376 446 397 456 393 m 513 375 b 511 369 513 372 511 371 l 476 369 b 493 351 476 357 485 351 b 507 354 499 351 503 353 l 508 349 b 492 346 506 347 500 346 b 467 371 476 346 467 354 b 490 397 467 385 476 397 b 513 375 507 397 513 383 m 503 376 b 489 390 503 381 500 390 b 476 376 481 390 476 382 m 522 381 b 522 397 522 386 522 392 l 529 397 l 531 386 b 544 397 533 393 539 397 b 547 397 544 397 546 397 l 547 388 b 543 389 546 389 544 389 b 532 378 539 389 533 383 b 532 374 532 376 532 375 l 532 346 l 522 346 l 522 381 m 592 349 b 576 346 589 347 583 346 b 551 371 561 346 551 356 b 578 397 551 386 563 397 b 592 394 583 397 589 396 l 589 388 b 578 390 588 389 583 390 b 561 371 567 390 561 381 b 578 351 561 360 567 351 b 590 354 583 351 588 354 l 592 349 m 606 417 b 613 410 610 417 613 414 b 606 406 613 408 610 406 b 600 410 603 406 600 408 b 606 417 600 414 603 417 m 601 397 l 611 397 l 611 346 l 601 346 m 636 346 b 621 358 626 346 621 351 b 651 379 621 372 632 379 b 640 390 651 383 650 390 b 628 388 636 390 631 389 l 625 393 b 640 397 629 396 636 397 b 661 378 657 397 661 388 l 661 358 b 661 346 661 354 661 349 l 653 346 l 651 351 b 636 346 649 349 643 346 m 651 372 b 631 361 642 372 631 369 b 639 351 631 354 635 351 b 651 360 644 351 649 356 b 651 363 651 361 651 363 l 651 372 m 675 419 l 685 419 l 685 346 l 675 346 m 710 358 b 700 333 707 350 703 339 l 693 333 b 699 358 696 339 699 350 m 743 414 b 760 417 747 415 753 417 b 779 410 768 417 775 414 b 786 397 785 408 786 403 b 781 381 786 390 785 385 b 760 374 775 376 768 374 b 751 375 757 374 754 374 l 751 346 l 743 346 m 751 381 b 760 381 754 381 757 381 b 776 396 769 381 776 385 b 761 410 776 406 769 410 b 751 410 757 410 753 410 m 797 419 l 806 419 l 806 346 l 797 346 m 860 349 b 842 346 856 347 850 346 b 817 371 826 346 817 354 b 840 397 817 385 826 397 b 861 375 857 397 861 383 b 861 369 861 372 861 371 l 826 369 b 843 351 826 357 835 351 b 857 354 850 351 854 353 l 860 349 m 839 390 b 826 376 831 390 826 382 l 853 376 b 839 390 853 381 850 390 m 900 346 l 899 351 b 883 346 897 349 892 346 b 868 358 874 346 868 351 b 899 379 868 372 879 379 b 889 390 899 383 897 390 b 875 388 883 390 878 389 l 872 393 b 889 397 876 396 883 397 b 908 378 904 397 908 388 l 908 358 b 908 346 908 354 908 349 m 899 372 b 878 361 890 372 878 369 b 886 351 878 354 882 351 b 899 360 892 351 897 356 b 899 363 899 361 899 363 m 953 360 b 933 346 953 351 946 346 b 919 349 928 346 922 347 l 922 356 b 933 351 924 354 928 351 b 943 358 940 351 943 354 b 933 368 943 363 940 365 b 921 382 924 372 921 378 b 938 397 921 390 926 397 b 951 394 943 397 949 396 l 949 388 b 938 390 947 389 942 390 b 929 383 932 390 929 388 b 939 375 929 381 932 378 b 953 360 949 372 953 368 m 1004 375 b 1004 369 1004 372 1004 371 l 969 369 b 986 351 969 357 978 351 b 1000 354 993 351 997 353 l 1003 349 b 985 346 999 347 993 346 b 960 371 969 346 960 354 b 985 397 960 385 969 397 b 1004 375 1000 397 1004 383 m 996 376 b 983 390 996 381 993 390 b 969 376 974 390 969 382 m 1083 415 l 1058 346 l 1049 346 l 1026 415 l 1036 415 l 1047 381 b 1056 356 1050 372 1053 363 b 1063 381 1057 363 1060 372 l 1075 415 m 1094 417 b 1100 410 1097 417 1100 414 b 1093 406 1100 408 1097 406 b 1089 410 1090 406 1089 408 b 1094 417 1089 414 1090 417 m 1089 397 l 1099 397 l 1099 346 l 1089 346 m 1125 351 b 1135 358 1132 351 1135 354 b 1125 368 1135 363 1132 365 b 1111 382 1115 372 1111 378 b 1129 397 1111 390 1118 397 b 1142 394 1135 397 1139 396 l 1140 388 b 1129 390 1138 389 1133 390 b 1119 383 1124 390 1119 388 b 1131 375 1119 381 1124 378 b 1143 360 1139 372 1143 368 b 1125 346 1143 351 1136 346 b 1110 349 1118 346 1113 347 l 1113 356 b 1125 351 1115 354 1119 351 m 1160 417 b 1165 410 1163 417 1165 414 b 1160 406 1165 408 1163 406 b 1153 410 1156 406 1153 408 b 1160 417 1153 414 1156 417 m 1165 346 l 1156 346 l 1156 397 l 1165 397 m 1190 389 l 1190 363 b 1197 351 1190 356 1192 351 b 1204 353 1200 351 1201 353 l 1204 347 b 1194 346 1201 346 1199 346 b 1185 349 1190 346 1188 347 b 1181 361 1182 351 1181 356 l 1181 389 l 1174 389 l 1174 397 l 1181 397 l 1181 408 l 1190 410 l 1190 397 l 1204 397 l 1204 389 m 308 194 l 308 206 b 286 193 301 196 294 193 b 264 219 272 193 264 203 b 308 267 264 244 282 267 b 318 265 311 267 315 267 l 324 297 l 346 297 l 331 222 b 326 194 329 213 328 203 m 296 210 b 311 229 301 210 308 215 l 315 249 b 307 251 314 250 311 251 b 285 222 294 251 285 238 b 296 210 285 214 289 210 m 382 288 b 371 274 382 279 376 274 b 360 285 364 274 360 278 b 371 296 360 290 365 296 b 382 288 378 296 382 292 m 365 194 l 343 194 l 357 265 l 378 265 m 433 235 b 433 242 433 236 433 239 b 426 250 433 247 431 250 b 408 226 421 250 411 242 l 401 194 l 382 194 l 392 242 b 394 265 393 251 393 260 l 414 265 l 411 254 l 413 254 b 438 267 419 263 426 267 b 456 247 450 267 456 261 b 453 236 456 244 454 239 l 447 194 l 425 194 m 469 240 l 507 240 l 504 225 l 465 225 m 547 251 b 539 246 543 251 539 249 b 547 238 539 242 542 240 b 564 218 556 235 564 228 b 531 193 564 201 550 193 b 510 199 521 193 514 196 l 515 213 b 532 208 518 213 525 208 b 542 214 539 208 542 213 b 533 224 542 218 540 219 b 517 242 525 228 517 235 b 549 267 517 258 531 267 b 567 263 557 267 564 265 l 563 249 b 547 251 560 250 554 251 m 600 225 b 599 215 600 222 599 218 b 606 211 599 213 600 211 b 613 211 607 211 610 211 l 610 194 b 596 193 606 193 600 193 b 578 208 583 193 578 199 b 579 221 578 213 578 215 l 585 249 l 576 249 l 578 265 l 588 265 l 592 281 l 613 286 l 608 265 l 622 265 l 619 249 l 606 249 m 669 194 l 671 207 b 644 193 663 196 654 193 b 626 213 633 193 626 199 b 628 226 626 217 628 221 l 636 265 l 656 265 l 649 228 b 647 218 649 225 647 219 b 656 210 647 213 650 210 b 672 233 664 210 671 218 l 678 265 l 701 265 l 692 218 b 688 194 690 210 688 200 m 751 194 l 753 206 b 729 193 746 196 736 193 b 706 219 717 193 706 203 b 751 267 706 244 725 267 b 763 265 756 267 758 267 l 767 297 l 788 297 l 774 222 b 769 194 772 213 771 203 m 738 210 b 756 229 744 210 753 215 l 758 249 b 750 251 757 250 754 251 b 729 222 736 251 729 238 b 738 210 729 214 733 210 m 826 288 b 813 274 826 279 819 274 b 803 285 808 274 803 278 b 814 296 803 290 808 296 b 826 288 821 296 826 292 m 808 194 l 786 194 l 800 265 l 821 265 m 857 193 b 828 222 839 193 828 206 b 869 267 828 247 844 267 b 900 238 889 267 900 254 b 857 193 900 213 882 193 m 867 251 b 849 222 856 251 849 235 b 861 210 849 214 853 210 b 879 238 872 210 879 225 b 867 251 879 244 875 251 m 918 193 b 906 206 910 193 906 199 b 919 219 906 213 911 219 b 932 207 926 219 932 214 b 918 193 932 199 925 193 m 990 250 b 967 225 976 250 967 238 b 982 210 967 214 974 210 b 996 213 986 210 992 213 l 996 196 b 976 193 990 194 985 193 b 946 222 957 193 946 204 b 992 267 946 247 964 267 b 1007 264 997 267 1003 265 l 1001 249 b 990 250 999 249 996 250 m 1038 193 b 1008 222 1019 193 1008 206 b 1050 267 1008 247 1025 267 b 1081 238 1068 267 1081 254 b 1038 193 1081 213 1061 193 m 1047 251 b 1029 222 1035 251 1029 235 b 1039 210 1029 214 1033 210 b 1058 238 1051 210 1058 225 b 1047 251 1058 244 1056 251 m 1176 235 b 1178 242 1178 236 1178 239 b 1172 250 1178 247 1175 250 b 1154 228 1165 250 1157 240 l 1149 194 l 1128 194 l 1136 235 b 1136 242 1136 236 1136 239 b 1129 250 1136 247 1135 250 b 1111 226 1122 250 1115 240 l 1107 194 l 1086 194 l 1096 242 b 1099 265 1097 251 1097 260 l 1117 265 l 1115 254 b 1140 267 1122 263 1132 267 b 1157 254 1151 267 1157 261 b 1182 267 1164 263 1174 267 b 1200 249 1193 267 1200 261 b 1199 236 1200 244 1199 239 l 1190 194 l 1171 194 m 99 456 b 14 522 44 457 14 485 b 42 561 14 553 32 561 b 60 528 64 561 71 538 b 26 519 60 546 26 549 b 99 468 26 488 56 468 b 165 567 154 468 165 525 b 125 657 165 596 167 657 b 119 642 124 657 119 656 l 119 597 b 119 596 119 597 119 596 l 119 521 b 129 504 119 504 129 504 l 129 499 l 68 499 l 68 504 b 78 518 68 504 76 504 b 78 518 78 518 78 518 l 78 644 b 63 664 78 656 76 664 b 49 656 54 664 49 658 b 61 646 49 644 61 646 b 44 628 61 631 50 628 b 25 646 26 628 25 643 b 63 674 25 664 47 674 b 125 664 88 674 96 664 b 206 567 168 664 206 642 b 99 456 206 514 174 453 m 282 499 l 219 499 l 219 504 b 231 518 219 504 229 504 l 231 585 b 219 600 229 600 219 600 l 219 604 l 269 614 l 269 521 b 282 504 269 504 282 504 m 251 660 b 269 642 263 660 269 651 b 251 622 269 631 263 622 b 233 642 240 622 233 631 b 251 660 233 651 240 660 m 346 600 b 379 615 351 606 363 615 b 414 579 397 615 414 603 b 414 521 414 579 414 521 b 424 504 414 506 421 504 l 424 499 l 363 499 l 363 504 b 372 518 363 504 371 504 l 372 583 b 346 579 372 603 346 600 l 346 521 b 357 504 346 504 357 504 l 357 499 l 296 499 l 296 504 b 306 518 296 504 304 504 l 306 585 b 296 600 304 600 296 600 l 296 604 l 346 614 l 346 600 m 535 622 b 596 664 535 622 535 664 b 644 660 626 664 632 651 b 653 663 647 661 649 663 b 653 621 653 656 653 621 l 647 619 b 596 654 647 619 642 654 b 576 611 567 654 557 619 b 672 539 601 600 674 597 b 603 499 671 515 647 499 b 547 499 560 499 556 510 b 542 499 547 499 543 499 l 542 542 l 547 542 b 601 511 547 524 576 511 b 613 560 646 511 644 550 b 535 622 583 568 535 578 m 742 608 b 731 597 742 608 733 610 l 731 518 b 742 504 732 504 742 504 l 742 499 l 725 499 b 690 531 711 499 690 499 l 690 596 b 678 608 689 610 678 608 l 678 614 b 731 629 707 614 714 629 l 731 614 l 742 614 l 742 608 m 753 615 l 813 615 l 813 608 b 804 596 813 608 804 610 l 804 535 b 831 535 804 507 831 517 l 831 593 b 821 608 831 610 821 608 l 821 615 l 882 615 l 882 608 b 869 596 882 608 871 610 l 869 518 b 882 504 871 504 882 504 l 882 499 l 853 499 b 831 517 839 499 831 510 b 801 499 826 510 818 499 b 764 535 785 499 764 510 b 764 593 764 535 764 593 b 753 608 764 608 754 608 m 1054 472 b 1032 456 1054 463 1047 456 b 967 503 1018 456 974 460 b 947 499 960 500 954 499 b 890 557 917 499 890 525 b 947 615 890 589 917 615 b 965 611 954 615 960 613 l 965 664 l 1017 656 l 1017 650 b 1006 635 1017 650 1007 651 b 1006 514 1006 635 1006 515 b 1033 463 1007 479 1017 465 b 1029 472 1031 465 1029 469 b 1042 485 1029 479 1033 485 b 1054 472 1049 485 1054 479 m 947 508 b 965 557 963 508 965 531 b 947 607 965 585 963 607 b 929 557 932 607 929 585 b 947 508 929 531 932 508 m 1085 499 l 1024 499 l 1024 504 b 1033 518 1024 504 1033 504 l 1033 585 b 1024 600 1033 600 1024 600 l 1024 604 l 1075 614 l 1075 521 b 1085 504 1075 504 1085 504 m 1036 642 b 1056 660 1036 651 1044 660 b 1074 642 1065 660 1074 651 b 1056 622 1074 631 1065 622 b 1036 642 1044 622 1036 631 m 1201 557 b 1143 499 1201 525 1175 499 b 1086 557 1111 499 1086 525 b 1143 614 1086 589 1111 614 b 1201 557 1175 614 1201 589 m 1143 508 b 1161 557 1160 508 1161 531 b 1143 606 1161 585 1160 606 b 1126 557 1128 606 1126 585 b 1143 508 1126 531 1128 508 m 22 238 l 236 238 l 236 210 l 22 210 m 496 840 l 593 964 l 725 964 l 625 840 m 1079 840 l 1178 964 l 1203 964 l 1203 840 m 106 840 l 206 964 l 336 964 l 236 840 m 690 840 l 789 964 l 919 964 l 819 840 m 42 840 l 22 840 l 22 964 l 142 964 m 301 840 l 400 964 l 531 964 l 431 840 m 885 840 l 985 964 l 1113 964 l 1015 840 m 725 157 l 625 32 l 496 32 l 593 157 m 1178 157 l 1203 157 l 1203 32 l 1079 32 m 336 157 l 236 32 l 106 32 l 206 157 m 919 157 l 819 32 l 690 32 l 789 157 m 142 157 l 42 32 l 22 32 l 22 157 m 531 157 l 431 32 l 301 32 l 400 157 m 1113 157 l 1015 32 l 885 32 l 985 157 "},"\u0000":{"ha":0,"x_min":0,"x_max":0,"o":""}," ":{"ha":403,"x_min":0,"x_max":0,"o":""},"A":{"ha":1314,"x_min":0,"x_max":0,"o":"m 28 0 b 586 972 214 324 400 649 l 728 972 b 1286 0 913 649 1100 324 l 1085 0 l 976 190 l 336 189 l 228 0 m 878 363 l 657 747 l 436 363 "},"B":{"ha":1204,"x_min":0,"x_max":0,"o":"m 69 972 l 749 972 b 1017 714 888 972 1014 851 b 969 581 1018 658 1001 617 b 953 565 965 575 960 571 b 1121 307 1060 532 1121 414 b 815 0 1121 136 982 0 l 69 0 m 750 599 b 842 700 801 599 842 638 b 750 799 842 761 799 799 l 243 799 l 243 599 m 815 174 b 947 307 890 174 947 236 b 815 439 947 382 885 439 l 243 439 l 243 174 "},"C":{"ha":1247,"x_min":0,"x_max":0,"o":"m 83 497 b 576 983 83 765 308 983 l 792 983 b 1163 819 944 983 1078 911 l 1047 700 b 793 813 982 772 867 813 l 575 813 b 254 492 426 813 254 693 b 576 172 254 328 388 172 l 793 172 b 1049 285 893 172 985 221 l 1164 164 b 794 0 1082 76 943 0 l 581 0 b 83 497 300 0 83 221 "},"D":{"ha":1206,"x_min":0,"x_max":0,"o":"m 69 0 l 69 972 l 635 972 b 1122 486 901 972 1122 754 b 635 0 1122 219 903 0 m 243 174 l 635 174 b 947 486 794 174 947 306 b 635 799 947 649 817 799 l 243 799 "},"E":{"ha":1125,"x_min":0,"x_max":0,"o":"m 243 574 l 975 574 l 975 400 l 243 400 l 243 174 l 1056 174 l 1056 0 l 69 0 l 69 972 l 1056 972 l 1056 799 l 243 799 "},"F":{"ha":1125,"x_min":0,"x_max":0,"o":"m 243 574 l 974 574 l 974 400 l 243 400 l 243 0 l 69 0 l 69 972 l 1056 972 l 1056 799 l 243 799 "},"G":{"ha":1329,"x_min":0,"x_max":0,"o":"m 575 813 b 254 492 400 813 256 669 b 575 171 254 313 403 171 l 760 171 b 1043 390 899 171 1011 257 l 646 390 l 646 561 l 1240 561 b 1244 451 1244 524 1244 489 b 760 0 1233 197 1013 0 l 575 0 b 83 492 304 0 83 222 b 575 983 83 761 304 983 l 760 983 b 1144 806 918 983 1050 917 l 1013 697 b 758 813 949 775 847 813 "},"H":{"ha":1190,"x_min":0,"x_max":0,"o":"m 947 574 l 947 972 l 1121 972 l 1121 0 l 947 0 l 947 399 l 243 399 l 243 0 l 69 0 l 69 972 l 243 972 l 243 574 "},"I":{"ha":311,"x_min":0,"x_max":0,"o":"m 69 972 l 242 972 l 242 0 l 69 0 "},"J":{"ha":1061,"x_min":0,"x_max":0,"o":"m 992 972 b 992 307 992 743 992 536 b 685 0 992 139 853 0 l 376 0 b 156 94 292 0 213 35 b 71 357 96 156 65 229 l 243 357 b 376 174 242 243 296 174 l 686 174 b 817 307 757 174 817 232 b 817 972 817 475 817 804 "},"K":{"ha":1281,"x_min":0,"x_max":0,"o":"m 900 972 l 1194 972 l 621 549 l 1197 0 l 946 0 l 479 444 l 243 271 l 243 0 l 69 0 l 69 972 l 243 972 l 243 486 "},"L":{"ha":1089,"x_min":0,"x_max":0,"o":"m 243 174 l 1019 174 l 1019 0 l 69 0 l 69 972 l 243 972 "},"M":{"ha":1268,"x_min":0,"x_max":0,"o":"m 683 169 l 585 169 l 243 642 l 243 0 l 69 0 l 69 972 l 218 972 l 635 397 l 1051 972 l 1199 972 l 1199 0 l 1025 0 l 1025 642 "},"N":{"ha":1139,"x_min":0,"x_max":0,"o":"m 69 0 l 69 972 l 214 972 l 896 278 l 896 972 l 1069 972 l 1069 0 l 926 0 l 243 694 l 243 0 "},"O":{"ha":1374,"x_min":0,"x_max":0,"o":"m 799 983 b 1290 492 1069 983 1290 763 b 799 0 1290 221 1069 0 l 575 0 b 83 492 304 0 83 221 b 575 983 83 763 304 983 l 799 983 m 799 171 b 1119 492 975 171 1119 315 b 799 813 1119 668 975 813 l 575 813 b 254 492 399 813 254 668 b 575 171 254 315 399 171 l 799 171 "},"P":{"ha":1165,"x_min":0,"x_max":0,"o":"m 761 972 b 1090 643 943 972 1090 825 b 763 318 1090 465 942 318 l 243 318 l 243 0 l 69 0 l 69 972 m 243 492 l 763 492 b 915 643 846 492 915 561 b 761 799 915 729 846 799 l 243 799 "},"Q":{"ha":1396,"x_min":0,"x_max":0,"o":"m 803 983 b 1297 489 1079 983 1300 751 b 1194 194 1296 368 1260 282 l 1306 117 l 1208 -25 l 1067 72 b 803 -6 986 21 893 -6 l 576 -6 b 83 489 306 -6 83 217 b 578 983 83 761 306 983 m 906 393 l 1051 293 b 1125 489 1094 340 1125 413 b 803 811 1125 672 972 811 l 578 811 b 256 488 411 811 256 675 b 581 168 256 324 390 168 l 761 168 b 886 201 807 168 849 179 l 801 260 "},"R":{"ha":1275,"x_min":0,"x_max":0,"o":"m 69 0 l 69 972 l 760 972 b 1089 644 943 972 1092 824 b 856 346 1088 499 993 385 l 856 344 l 1192 0 l 947 0 l 640 318 l 243 318 l 243 0 m 243 492 l 761 492 b 915 644 847 492 915 563 b 761 799 915 725 850 799 l 243 799 "},"S":{"ha":1190,"x_min":0,"x_max":0,"o":"m 949 686 b 835 799 946 750 896 799 l 357 799 b 243 686 294 799 243 747 b 356 574 243 624 293 574 l 835 574 b 1121 286 992 574 1121 443 b 835 0 1121 129 993 0 l 357 0 b 69 286 200 0 69 128 l 243 286 b 356 174 243 226 292 174 l 833 174 b 947 288 897 174 947 224 b 835 400 947 350 896 400 l 356 400 b 157 481 283 400 208 429 l 150 488 b 69 686 100 539 69 610 b 356 972 69 843 199 972 l 835 972 b 1121 686 992 972 1121 844 "},"T":{"ha":1190,"x_min":0,"x_max":0,"o":"m 508 0 l 508 799 l 69 799 l 69 972 l 1121 972 l 1121 799 l 682 799 l 682 0 "},"U":{"ha":1200,"x_min":0,"x_max":0,"o":"m 1121 314 b 807 0 1121 140 981 0 l 385 0 b 69 314 211 0 69 139 l 69 972 l 243 972 l 243 315 b 383 174 243 232 310 174 l 807 174 b 947 315 885 174 947 238 l 947 972 l 1121 972 "},"V":{"ha":1313,"x_min":0,"x_max":0,"o":"m 228 972 b 657 225 399 675 486 522 b 1085 972 826 522 915 675 l 1285 972 b 726 0 1099 649 913 324 l 586 0 b 28 972 400 324 214 649 "},"W":{"ha":1740,"x_min":0,"x_max":0,"o":"m 796 972 l 946 972 l 1197 278 l 1521 972 l 1713 972 l 1263 0 l 1114 0 l 869 668 l 626 0 l 479 0 l 28 972 l 218 972 l 543 278 "},"X":{"ha":1390,"x_min":0,"x_max":0,"o":"m 1321 0 l 1072 0 l 696 365 l 322 0 l 69 0 l 571 486 l 69 972 l 319 972 l 696 607 l 1072 972 l 1321 972 l 819 486 "},"Y":{"ha":1443,"x_min":0,"x_max":0,"o":"m 721 582 l 1124 972 l 1374 972 l 808 424 l 808 0 l 635 0 l 635 424 l 69 972 l 318 972 "},"Z":{"ha":1190,"x_min":0,"x_max":0,"o":"m 1121 972 l 1121 822 l 367 174 l 1121 174 l 1121 0 l 69 0 l 69 146 l 825 799 l 69 799 l 69 972 "},"a":{"ha":1088,"x_min":0,"x_max":0,"o":"m 314 3 b 69 244 181 3 69 110 b 313 490 69 379 176 490 l 743 490 b 844 458 782 490 815 478 l 844 549 b 738 640 844 607 799 640 l 317 640 b 217 579 279 640 238 619 l 99 671 b 125 710 106 685 115 697 b 150 733 133 718 140 726 b 303 792 190 768 244 792 l 788 792 b 1018 558 913 792 1018 683 b 1018 3 1018 372 1018 189 l 938 3 l 918 35 b 774 3 878 14 836 3 l 314 3 m 744 150 b 842 246 797 150 842 193 b 746 342 842 300 797 342 l 340 342 b 244 246 288 342 244 300 b 340 150 244 194 288 150 "},"b":{"ha":1125,"x_min":0,"x_max":0,"o":"m 701 792 b 1042 450 889 792 1042 638 l 1042 343 b 701 3 1042 156 889 3 l 415 3 b 243 74 351 3 286 28 l 243 3 l 69 3 l 69 1025 l 243 1025 l 243 725 b 410 792 286 765 346 792 l 701 792 m 868 450 b 701 618 868 542 793 618 l 410 618 b 243 450 318 618 243 542 l 243 343 b 410 176 243 251 318 176 l 701 176 b 868 343 793 176 868 251 "},"c":{"ha":1107,"x_min":0,"x_max":0,"o":"m 764 176 b 883 225 811 176 853 194 l 1024 114 b 764 3 963 47 865 3 l 438 3 b 83 343 249 3 83 151 l 83 442 b 431 792 83 632 238 792 l 764 792 b 1024 681 871 792 963 744 l 883 568 b 764 618 851 600 806 618 l 438 618 b 267 450 343 618 267 542 l 267 343 b 438 176 267 251 344 176 "},"d":{"ha":1125,"x_min":0,"x_max":0,"o":"m 1056 1025 l 1056 3 l 882 3 l 882 74 b 710 3 840 28 775 3 l 425 3 b 83 343 238 3 83 156 l 83 450 b 425 792 83 638 238 792 l 715 792 b 882 725 781 792 839 765 l 882 1025 m 882 450 b 715 618 882 542 807 618 l 425 618 b 257 450 332 618 257 542 l 257 343 b 425 176 257 251 332 176 l 715 176 b 882 343 807 176 882 251 "},"e":{"ha":1114,"x_min":0,"x_max":0,"o":"m 250 344 l 250 304 b 414 154 250 214 318 154 l 732 154 b 868 222 789 154 836 181 l 989 135 b 747 3 946 68 860 3 l 367 3 b 76 292 207 3 76 132 l 76 496 b 368 792 76 657 206 792 l 746 792 b 986 664 840 792 929 746 b 1036 450 1024 607 1038 544 l 1036 344 m 400 647 b 253 489 319 647 254 583 l 861 489 b 714 647 861 572 801 647 l 400 647 "},"f":{"ha":889,"x_min":0,"x_max":0,"o":"m 215 742 b 529 1025 238 901 364 1025 l 819 1025 l 819 851 l 529 851 b 392 742 465 851 407 807 l 642 742 l 642 569 l 388 569 l 388 3 l 214 3 l 214 569 l 69 569 l 69 742 l 215 742 "},"g":{"ha":1104,"x_min":0,"x_max":0,"o":"m 1035 792 l 1035 -49 b 951 -233 1035 -125 1006 -186 b 947 -236 950 -235 949 -236 b 794 -293 908 -272 850 -293 l 315 -293 b 147 -225 249 -293 190 -267 b 113 -182 136 -212 122 -197 l 231 -89 b 329 -142 253 -121 283 -142 l 747 -142 b 861 -42 811 -142 861 -106 l 861 69 b 693 3 821 29 760 3 l 418 3 b 76 349 225 3 76 157 l 76 444 b 417 792 76 639 225 792 l 689 792 b 861 717 753 792 819 764 l 861 792 m 861 450 b 694 618 861 542 786 618 l 417 618 b 250 450 325 618 250 542 l 250 347 b 417 176 250 251 324 176 l 694 176 b 861 343 779 176 861 246 "},"h":{"ha":1075,"x_min":0,"x_max":0,"o":"m 243 725 b 410 792 286 765 342 792 l 665 792 b 1006 450 853 792 1006 636 l 1006 3 l 832 3 l 832 450 b 665 618 832 542 757 618 l 417 618 b 243 442 318 618 243 546 l 243 3 l 69 3 l 69 1025 l 243 1025 "},"i":{"ha":313,"x_min":0,"x_max":0,"o":"m 69 1015 l 243 1015 l 243 881 l 69 881 m 69 760 l 243 760 l 243 3 l 69 3 "},"j":{"ha":963,"x_min":0,"x_max":0,"o":"m 721 1014 l 893 1014 l 893 881 l 721 881 m 246 3 b 353 -103 256 -69 300 -103 l 611 -103 b 721 7 668 -103 721 -56 l 721 760 l 893 760 l 893 -8 b 640 -262 893 -146 778 -262 l 322 -262 b 128 -169 246 -262 179 -229 b 69 3 94 -131 74 -78 "},"k":{"ha":1143,"x_min":0,"x_max":0,"o":"m 367 540 l 718 792 l 1007 792 l 589 489 l 1074 3 l 833 3 l 449 383 l 243 238 l 243 3 l 69 3 l 69 1025 l 243 1025 l 243 456 "},"l":{"ha":313,"x_min":0,"x_max":0,"o":"m 69 3 l 69 1025 l 243 1025 l 243 3 "},"m":{"ha":1546,"x_min":0,"x_max":0,"o":"m 243 719 b 418 792 285 763 354 792 l 528 792 b 725 717 600 792 667 765 b 772 671 743 703 760 688 b 819 717 788 689 804 704 b 1018 792 868 761 940 792 l 1144 792 b 1476 460 1326 792 1476 640 l 1476 3 l 1303 3 l 1303 461 b 1144 617 1303 546 1232 617 l 1018 617 b 860 461 931 617 860 547 l 860 3 l 686 3 l 686 461 b 528 618 686 544 618 618 l 401 618 b 243 461 311 618 243 544 l 243 3 l 69 3 l 69 792 l 243 792 "},"n":{"ha":1075,"x_min":0,"x_max":0,"o":"m 243 717 b 432 792 289 763 354 792 l 664 792 b 1006 450 853 792 1006 639 l 1006 3 l 832 3 l 832 451 b 664 617 832 546 753 617 l 410 618 b 243 451 313 618 243 536 l 243 3 l 69 3 l 69 792 l 243 792 "},"o":{"ha":1139,"x_min":0,"x_max":0,"o":"m 715 792 b 1056 450 903 792 1056 638 l 1056 343 b 715 3 1056 156 903 3 l 424 3 b 83 343 238 3 83 156 l 83 450 b 424 792 83 638 238 792 l 715 792 m 882 450 b 715 618 882 542 807 618 l 424 618 b 257 450 332 618 257 542 l 257 343 b 424 176 257 251 332 176 l 715 176 b 882 343 807 176 882 251 "},"p":{"ha":1044,"x_min":0,"x_max":0,"o":"m 621 792 b 961 450 808 792 961 638 l 961 343 b 621 3 961 156 808 3 l 411 3 b 243 69 346 3 286 28 l 243 -231 l 69 -231 l 69 792 l 243 792 l 243 715 b 439 792 278 757 343 792 l 621 792 m 788 450 b 621 618 788 542 713 618 l 411 618 b 243 450 318 618 243 542 l 243 343 b 411 176 243 251 318 176 l 621 176 b 788 343 713 176 788 251 "},"q":{"ha":1044,"x_min":0,"x_max":0,"o":"m 975 792 l 975 -231 l 801 -231 l 801 68 b 635 3 758 28 700 3 l 424 3 b 83 343 238 3 83 156 l 83 450 b 424 792 83 638 238 792 l 606 792 b 801 715 701 792 767 757 l 801 792 m 801 450 b 635 618 801 542 726 618 l 424 618 b 257 450 332 618 257 542 l 257 343 b 424 176 257 251 332 176 l 635 176 b 801 343 726 176 801 251 "},"r":{"ha":694,"x_min":0,"x_max":0,"o":"m 243 717 b 431 792 285 760 349 792 l 625 792 l 625 617 l 410 617 b 243 450 318 617 243 542 l 243 3 l 69 3 l 69 792 l 243 792 "},"s":{"ha":1060,"x_min":0,"x_max":0,"o":"m 832 556 b 753 640 831 603 796 640 l 308 640 b 229 557 265 640 229 604 b 308 472 229 508 265 472 l 775 472 b 899 429 821 472 863 457 b 910 421 903 426 906 424 b 947 376 921 411 938 393 b 990 238 975 335 990 290 b 775 3 990 115 903 3 l 286 3 b 69 238 160 3 69 115 l 229 238 b 308 153 229 190 265 153 l 753 153 b 831 238 794 153 831 189 b 753 321 831 286 794 321 l 286 321 b 103 436 208 321 139 368 b 69 557 82 468 69 513 b 285 792 69 676 160 792 l 775 792 b 992 556 901 792 992 676 "},"t":{"ha":882,"x_min":0,"x_max":0,"o":"m 407 792 l 685 792 l 685 618 l 407 618 l 408 342 b 581 176 408 254 489 176 l 813 176 l 813 3 l 582 3 b 233 342 397 3 233 156 l 233 618 l 69 618 l 69 792 l 233 792 l 233 1025 l 407 1025 "},"u":{"ha":1006,"x_min":0,"x_max":0,"o":"m 763 78 b 583 3 722 33 649 3 l 410 3 b 243 68 346 3 286 28 b 69 343 142 115 69 221 l 69 792 l 243 792 l 243 343 b 410 176 243 251 318 176 l 594 176 b 763 343 686 176 763 251 l 763 792 l 936 792 l 936 3 l 763 3 "},"v":{"ha":1089,"x_min":0,"x_max":0,"o":"m 865 792 l 1061 792 l 642 3 l 446 3 l 28 792 l 224 792 l 544 193 "},"w":{"ha":1453,"x_min":0,"x_max":0,"o":"m 381 3 l 28 792 l 217 792 l 461 253 l 636 792 l 818 792 l 992 253 l 1236 792 l 1425 792 l 1072 3 l 889 3 l 726 501 l 564 3 "},"x":{"ha":1149,"x_min":0,"x_max":0,"o":"m 575 279 l 303 3 l 69 3 l 458 411 l 96 792 l 329 792 l 574 540 l 821 792 l 1054 792 l 692 411 l 1079 3 l 846 3 "},"y":{"ha":1171,"x_min":0,"x_max":0,"o":"m 907 792 l 1103 792 l 683 1 l 613 -129 b 335 -286 560 -232 444 -294 b 154 -226 267 -283 206 -265 l 135 -212 l 215 -82 l 233 -93 b 329 -121 258 -111 294 -121 b 442 -74 372 -121 415 -106 l 443 -72 b 488 3 461 -42 471 -26 l 69 792 l 265 792 l 586 193 "},"z":{"ha":1049,"x_min":0,"x_max":0,"o":"m 382 176 l 979 176 l 979 3 l 69 3 l 69 174 l 671 618 l 69 618 l 69 792 l 979 792 l 979 618 "},"!":{"ha":313,"x_min":0,"x_max":0,"o":"m 69 211 l 69 974 l 242 974 l 242 211 m 69 1 l 69 135 l 242 135 l 242 1 "},"#":{"ha":1661,"x_min":0,"x_max":0,"o":"m 1221 617 l 1126 399 l 1425 399 l 1350 226 l 1053 226 l 965 22 l 778 22 l 865 226 l 554 226 l 467 22 l 279 22 l 367 226 l 69 226 l 143 399 l 440 399 l 535 617 l 238 617 l 311 790 l 608 790 l 696 994 l 885 994 l 796 790 l 1107 790 l 1194 994 l 1382 994 l 1294 790 l 1592 790 l 1518 617 m 1033 617 l 722 617 l 628 399 l 940 399 "},"$":{"ha":7053,"x_min":0,"x_max":0,"o":"m 1039 940 l 1229 940 b 697 14 1051 632 875 322 l 564 14 b 32 940 386 322 210 632 l 222 940 b 631 228 385 657 468 511 b 1039 940 793 511 878 657 m 1510 940 l 1644 940 b 2176 14 1821 632 2000 322 l 1985 14 l 1882 196 l 1272 194 l 1168 14 l 978 14 b 1510 940 1156 322 1332 632 m 1367 360 l 1788 360 l 1578 726 l 1367 360 m 2494 775 b 2386 668 2435 775 2386 726 b 2493 560 2386 608 2433 560 l 2950 560 b 3222 286 3099 560 3222 436 b 2950 14 3222 138 3100 14 l 2494 14 b 2221 286 2344 14 2221 136 l 2386 286 b 2493 179 2386 229 2432 179 l 2949 179 b 3057 288 3010 179 3057 226 b 2950 394 3057 347 3008 394 l 2493 394 b 2304 472 2424 394 2353 422 l 2297 478 b 2221 668 2250 528 2221 594 b 2493 940 2221 817 2343 940 l 2950 940 b 3222 668 3099 940 3222 818 l 3058 668 b 2950 775 3056 728 3008 775 l 2494 775 m 3331 775 l 3331 940 l 4332 940 l 4332 775 l 3914 775 l 3914 14 l 3749 14 l 3749 775 l 3331 775 m 4524 14 l 4524 940 l 4689 940 l 4689 14 l 4524 14 m 5678 279 l 5678 940 l 5843 940 l 5843 14 l 5707 14 l 5056 675 l 5056 14 l 4890 14 l 4890 940 l 5028 940 l 5678 279 m 7001 775 l 6228 775 l 6228 560 l 6925 560 l 6925 394 l 6228 394 l 6228 179 l 7001 179 l 7001 14 l 6061 14 l 6061 940 l 7001 940 l 7001 775 "},"%":{"ha":1261,"x_min":0,"x_max":0,"o":"m 35 721 l 17 721 l 32 803 b 54 804 39 804 46 804 b 76 799 61 804 71 803 b 86 782 82 796 86 789 b 75 757 86 771 81 763 b 47 751 68 753 57 751 b 42 751 46 751 43 751 m 44 765 b 50 764 46 764 46 764 b 68 781 61 764 68 771 b 54 790 68 788 61 790 b 47 789 51 790 49 790 m 117 788 l 114 771 l 144 771 l 140 756 l 111 756 l 107 736 l 140 736 l 138 721 l 86 721 l 101 804 l 150 804 l 149 788 m 168 721 l 150 721 l 167 803 b 188 804 171 804 179 804 b 210 800 196 804 203 803 b 219 785 215 796 219 790 b 200 760 219 771 210 764 b 208 744 204 757 207 753 b 210 721 208 735 210 725 l 193 721 b 190 740 193 724 192 731 b 179 754 190 751 186 754 l 174 754 m 176 767 l 183 767 b 201 782 193 767 201 774 b 188 790 201 788 194 790 b 181 789 183 790 182 790 m 244 735 b 258 744 251 735 258 738 b 247 756 258 749 256 753 b 231 778 238 761 231 767 b 263 806 231 796 244 806 b 282 801 272 806 278 803 l 276 788 b 261 789 274 788 268 790 b 249 782 253 789 249 786 b 261 769 249 776 253 774 b 278 749 271 764 278 757 b 243 719 278 729 263 719 b 219 726 232 719 224 722 l 226 739 b 244 735 231 738 236 735 m 333 806 b 367 771 354 806 367 790 b 350 731 367 756 361 740 b 321 719 344 725 333 719 b 288 754 300 719 288 735 b 303 793 288 768 294 785 b 333 806 311 801 321 806 m 338 740 b 347 771 344 747 347 760 b 331 790 347 781 344 790 b 317 785 325 790 321 788 b 307 756 310 778 307 764 b 324 735 307 743 311 735 b 338 740 329 735 333 736 m 386 721 l 371 721 l 386 804 l 407 804 l 418 772 b 425 744 421 761 422 753 b 429 774 425 753 426 761 l 435 804 l 451 804 l 436 721 l 418 721 l 406 754 b 397 783 401 765 400 774 b 393 750 396 775 394 763 m 465 721 l 447 721 l 486 804 l 510 804 l 519 721 l 500 721 l 499 742 l 476 742 m 481 756 l 499 756 l 496 774 b 496 790 496 779 496 786 b 489 774 493 786 490 779 m 563 804 l 549 736 l 581 736 l 578 721 l 529 721 l 544 804 m 635 756 b 635 746 635 753 635 750 b 644 735 635 739 639 735 b 664 756 654 735 661 740 l 672 804 l 692 804 l 682 756 b 643 719 676 731 667 719 b 617 746 626 719 617 729 b 617 757 617 750 617 754 l 625 804 l 643 804 m 714 735 b 728 744 721 735 728 738 b 717 756 728 749 724 753 b 699 778 707 761 699 767 b 732 806 699 796 714 806 b 751 801 742 806 749 803 l 746 788 b 731 789 743 788 736 790 b 717 782 722 789 717 786 b 731 769 717 776 724 774 b 746 749 739 764 746 757 b 713 719 746 729 731 719 b 689 726 701 719 692 722 l 694 739 b 714 735 700 738 706 735 m 785 788 l 782 771 l 811 771 l 808 756 l 778 756 l 775 736 l 808 736 l 804 721 l 754 721 l 769 804 l 818 804 l 815 788 m 907 731 b 876 719 899 725 890 719 b 843 754 856 719 843 735 b 860 793 843 768 849 785 b 889 806 865 801 876 806 b 922 771 911 806 922 790 b 907 731 922 756 918 740 m 861 756 b 879 735 861 743 867 735 b 892 740 885 735 890 736 b 904 771 899 747 904 760 b 886 790 904 781 899 790 b 872 785 882 790 876 788 b 861 756 865 778 861 764 m 954 783 b 949 750 954 775 951 763 l 943 721 l 925 721 l 942 804 l 963 804 l 974 772 b 983 744 978 761 981 753 b 986 774 983 753 985 761 l 990 804 l 1008 804 l 992 721 l 974 721 l 961 754 b 954 783 958 765 956 774 m 1042 804 l 1029 736 l 1060 736 l 1058 721 l 1008 721 l 1025 804 m 1090 721 l 1072 721 l 1079 756 l 1061 804 l 1082 804 l 1086 783 b 1090 768 1088 776 1089 772 b 1099 783 1093 772 1096 778 l 1110 804 l 1132 804 l 1096 756 m 1149 729 b 1161 742 1149 736 1153 742 b 1171 731 1167 742 1171 738 b 1158 719 1171 725 1165 719 b 1149 729 1151 719 1149 725 m 1169 749 l 1156 749 l 1164 804 l 1182 804 m 32 408 l 32 385 l 58 385 l 58 378 l 32 378 l 32 346 l 22 346 l 22 415 l 61 415 l 61 408 m 115 372 b 90 346 115 353 101 346 b 67 371 76 346 67 354 b 90 397 67 388 76 397 b 115 372 106 397 115 388 m 76 371 b 90 351 76 360 81 351 b 106 372 100 351 106 360 b 90 390 106 381 101 390 b 76 371 79 390 76 381 m 125 346 l 125 381 b 125 397 125 386 125 392 l 133 397 l 135 386 b 149 397 138 393 143 397 b 150 397 150 397 150 397 l 150 388 b 149 389 150 389 150 389 b 136 378 142 389 138 383 b 135 374 135 376 135 375 l 135 346 m 178 381 b 215 417 178 403 193 417 b 232 414 224 417 229 415 l 229 407 b 215 410 226 408 221 410 b 188 381 199 410 188 399 b 215 351 188 363 197 351 b 229 356 219 351 226 354 l 232 349 b 213 346 229 347 222 346 b 178 381 193 346 178 357 m 263 346 b 236 371 249 346 236 354 b 263 397 236 388 249 397 b 288 372 276 397 288 388 b 263 346 288 353 274 346 m 263 390 b 246 371 251 390 246 381 b 263 351 246 360 253 351 b 278 372 271 351 278 360 b 263 390 278 381 272 390 m 360 346 l 360 375 b 349 390 360 383 357 390 b 339 381 344 390 340 386 b 338 378 339 381 338 379 l 338 346 l 329 346 l 329 378 b 319 390 329 383 325 390 b 307 381 314 390 308 385 b 307 378 307 381 307 379 l 307 346 l 297 346 l 297 382 b 297 397 297 388 297 392 l 306 397 l 306 388 l 307 388 b 322 397 308 393 314 397 b 336 388 329 397 333 393 b 343 394 338 390 340 392 b 353 397 344 397 347 397 b 369 376 360 397 369 393 l 369 346 m 456 346 l 447 346 l 447 375 b 436 390 447 383 443 390 b 424 381 431 390 426 386 b 424 378 424 381 424 379 l 424 346 l 415 346 l 415 378 b 404 390 415 383 411 390 b 393 381 399 390 394 385 b 393 378 393 381 393 379 l 393 346 l 385 346 l 385 382 b 383 397 385 388 385 392 l 392 397 l 392 388 l 393 388 b 408 397 394 393 400 397 b 421 388 415 397 421 393 b 428 394 424 390 425 392 b 439 397 431 397 433 397 b 456 376 446 397 456 393 m 513 375 b 511 369 513 372 511 371 l 476 369 b 493 351 476 357 485 351 b 507 354 499 351 503 353 l 508 349 b 492 346 506 347 500 346 b 467 371 476 346 467 354 b 490 397 467 385 476 397 b 513 375 507 397 513 383 m 503 376 b 489 390 503 381 500 390 b 476 376 481 390 476 382 m 522 381 b 522 397 522 386 522 392 l 529 397 l 531 386 b 544 397 533 393 539 397 b 547 397 544 397 546 397 l 547 388 b 543 389 546 389 544 389 b 532 378 539 389 533 383 b 532 374 532 376 532 375 l 532 346 l 522 346 l 522 381 m 592 349 b 576 346 589 347 583 346 b 551 371 561 346 551 356 b 578 397 551 386 563 397 b 592 394 583 397 589 396 l 589 388 b 578 390 588 389 583 390 b 561 371 567 390 561 381 b 578 351 561 360 567 351 b 590 354 583 351 588 354 l 592 349 m 606 417 b 613 410 610 417 613 414 b 606 406 613 408 610 406 b 600 410 603 406 600 408 b 606 417 600 414 603 417 m 601 397 l 611 397 l 611 346 l 601 346 m 636 346 b 621 358 626 346 621 351 b 651 379 621 372 632 379 b 640 390 651 383 650 390 b 628 388 636 390 631 389 l 625 393 b 640 397 629 396 636 397 b 661 378 657 397 661 388 l 661 358 b 661 346 661 354 661 349 l 653 346 l 651 351 b 636 346 649 349 643 346 m 651 372 b 631 361 642 372 631 369 b 639 351 631 354 635 351 b 651 360 644 351 649 356 b 651 363 651 361 651 363 l 651 372 m 675 419 l 685 419 l 685 346 l 675 346 m 710 358 b 700 333 707 350 703 339 l 693 333 b 699 358 696 339 699 350 m 743 414 b 760 417 747 415 753 417 b 779 410 768 417 775 414 b 786 397 785 408 786 403 b 781 381 786 390 785 385 b 760 374 775 376 768 374 b 751 375 757 374 754 374 l 751 346 l 743 346 m 751 381 b 760 381 754 381 757 381 b 776 396 769 381 776 385 b 761 410 776 406 769 410 b 751 410 757 410 753 410 m 797 419 l 806 419 l 806 346 l 797 346 m 860 349 b 842 346 856 347 850 346 b 817 371 826 346 817 354 b 840 397 817 385 826 397 b 861 375 857 397 861 383 b 861 369 861 372 861 371 l 826 369 b 843 351 826 357 835 351 b 857 354 850 351 854 353 l 860 349 m 839 390 b 826 376 831 390 826 382 l 853 376 b 839 390 853 381 850 390 m 900 346 l 899 351 b 883 346 897 349 892 346 b 868 358 874 346 868 351 b 899 379 868 372 879 379 b 889 390 899 383 897 390 b 875 388 883 390 878 389 l 872 393 b 889 397 876 396 883 397 b 908 378 904 397 908 388 l 908 358 b 908 346 908 354 908 349 m 899 372 b 878 361 890 372 878 369 b 886 351 878 354 882 351 b 899 360 892 351 897 356 b 899 363 899 361 899 363 m 953 360 b 933 346 953 351 946 346 b 919 349 928 346 922 347 l 922 356 b 933 351 924 354 928 351 b 943 358 940 351 943 354 b 933 368 943 363 940 365 b 921 382 924 372 921 378 b 938 397 921 390 926 397 b 951 394 943 397 949 396 l 949 388 b 938 390 947 389 942 390 b 929 383 932 390 929 388 b 939 375 929 381 932 378 b 953 360 949 372 953 368 m 1004 375 b 1004 369 1004 372 1004 371 l 969 369 b 986 351 969 357 978 351 b 1000 354 993 351 997 353 l 1003 349 b 985 346 999 347 993 346 b 960 371 969 346 960 354 b 985 397 960 385 969 397 b 1004 375 1000 397 1004 383 m 996 376 b 983 390 996 381 993 390 b 969 376 974 390 969 382 m 1083 415 l 1058 346 l 1049 346 l 1026 415 l 1036 415 l 1047 381 b 1056 356 1050 372 1053 363 b 1063 381 1057 363 1060 372 l 1075 415 m 1094 417 b 1100 410 1097 417 1100 414 b 1093 406 1100 408 1097 406 b 1089 410 1090 406 1089 408 b 1094 417 1089 414 1090 417 m 1089 397 l 1099 397 l 1099 346 l 1089 346 m 1125 351 b 1135 358 1132 351 1135 354 b 1125 368 1135 363 1132 365 b 1111 382 1115 372 1111 378 b 1129 397 1111 390 1118 397 b 1142 394 1135 397 1139 396 l 1140 388 b 1129 390 1138 389 1133 390 b 1119 383 1124 390 1119 388 b 1131 375 1119 381 1124 378 b 1143 360 1139 372 1143 368 b 1125 346 1143 351 1136 346 b 1110 349 1118 346 1113 347 l 1113 356 b 1125 351 1115 354 1119 351 m 1160 417 b 1165 410 1163 417 1165 414 b 1160 406 1165 408 1163 406 b 1153 410 1156 406 1153 408 b 1160 417 1153 414 1156 417 m 1165 346 l 1156 346 l 1156 397 l 1165 397 m 1190 389 l 1190 363 b 1197 351 1190 356 1192 351 b 1204 353 1200 351 1201 353 l 1204 347 b 1194 346 1201 346 1199 346 b 1185 349 1190 346 1188 347 b 1181 361 1182 351 1181 356 l 1181 389 l 1174 389 l 1174 397 l 1181 397 l 1181 408 l 1190 410 l 1190 397 l 1204 397 l 1204 389 m 308 194 l 308 206 b 286 193 301 196 294 193 b 264 219 272 193 264 203 b 308 267 264 244 282 267 b 318 265 311 267 315 267 l 324 297 l 346 297 l 331 222 b 326 194 329 213 328 203 m 296 210 b 311 229 301 210 308 215 l 315 249 b 307 251 314 250 311 251 b 285 222 294 251 285 238 b 296 210 285 214 289 210 m 382 288 b 371 274 382 279 376 274 b 360 285 364 274 360 278 b 371 296 360 290 365 296 b 382 288 378 296 382 292 m 365 194 l 343 194 l 357 265 l 378 265 m 433 235 b 433 242 433 236 433 239 b 426 250 433 247 431 250 b 408 226 421 250 411 242 l 401 194 l 382 194 l 392 242 b 394 265 393 251 393 260 l 414 265 l 411 254 l 413 254 b 438 267 419 263 426 267 b 456 247 450 267 456 261 b 453 236 456 244 454 239 l 447 194 l 425 194 m 469 240 l 507 240 l 504 225 l 465 225 m 547 251 b 539 246 543 251 539 249 b 547 238 539 242 542 240 b 564 218 556 235 564 228 b 531 193 564 201 550 193 b 510 199 521 193 514 196 l 515 213 b 532 208 518 213 525 208 b 542 214 539 208 542 213 b 533 224 542 218 540 219 b 517 242 525 228 517 235 b 549 267 517 258 531 267 b 567 263 557 267 564 265 l 563 249 b 547 251 560 250 554 251 m 600 225 b 599 215 600 222 599 218 b 606 211 599 213 600 211 b 613 211 607 211 610 211 l 610 194 b 596 193 606 193 600 193 b 578 208 583 193 578 199 b 579 221 578 213 578 215 l 585 249 l 576 249 l 578 265 l 588 265 l 592 281 l 613 286 l 608 265 l 622 265 l 619 249 l 606 249 m 669 194 l 671 207 b 644 193 663 196 654 193 b 626 213 633 193 626 199 b 628 226 626 217 628 221 l 636 265 l 656 265 l 649 228 b 647 218 649 225 647 219 b 656 210 647 213 650 210 b 672 233 664 210 671 218 l 678 265 l 701 265 l 692 218 b 688 194 690 210 688 200 m 751 194 l 753 206 b 729 193 746 196 736 193 b 706 219 717 193 706 203 b 751 267 706 244 725 267 b 763 265 756 267 758 267 l 767 297 l 788 297 l 774 222 b 769 194 772 213 771 203 m 738 210 b 756 229 744 210 753 215 l 758 249 b 750 251 757 250 754 251 b 729 222 736 251 729 238 b 738 210 729 214 733 210 m 826 288 b 813 274 826 279 819 274 b 803 285 808 274 803 278 b 814 296 803 290 808 296 b 826 288 821 296 826 292 m 808 194 l 786 194 l 800 265 l 821 265 m 857 193 b 828 222 839 193 828 206 b 869 267 828 247 844 267 b 900 238 889 267 900 254 b 857 193 900 213 882 193 m 867 251 b 849 222 856 251 849 235 b 861 210 849 214 853 210 b 879 238 872 210 879 225 b 867 251 879 244 875 251 m 918 193 b 906 206 910 193 906 199 b 919 219 906 213 911 219 b 932 207 926 219 932 214 b 918 193 932 199 925 193 m 990 250 b 967 225 976 250 967 238 b 982 210 967 214 974 210 b 996 213 986 210 992 213 l 996 196 b 976 193 990 194 985 193 b 946 222 957 193 946 204 b 992 267 946 247 964 267 b 1007 264 997 267 1003 265 l 1001 249 b 990 250 999 249 996 250 m 1038 193 b 1008 222 1019 193 1008 206 b 1050 267 1008 247 1025 267 b 1081 238 1068 267 1081 254 b 1038 193 1081 213 1061 193 m 1047 251 b 1029 222 1035 251 1029 235 b 1039 210 1029 214 1033 210 b 1058 238 1051 210 1058 225 b 1047 251 1058 244 1056 251 m 1176 235 b 1178 242 1178 236 1178 239 b 1172 250 1178 247 1175 250 b 1154 228 1165 250 1157 240 l 1149 194 l 1128 194 l 1136 235 b 1136 242 1136 236 1136 239 b 1129 250 1136 247 1135 250 b 1111 226 1122 250 1115 240 l 1107 194 l 1086 194 l 1096 242 b 1099 265 1097 251 1097 260 l 1117 265 l 1115 254 b 1140 267 1122 263 1132 267 b 1157 254 1151 267 1157 261 b 1182 267 1164 263 1174 267 b 1200 249 1193 267 1200 261 b 1199 236 1200 244 1199 239 l 1190 194 l 1171 194 m 99 456 b 14 522 44 457 14 485 b 42 561 14 553 32 561 b 60 528 64 561 71 538 b 26 519 60 546 26 549 b 99 468 26 488 56 468 b 165 567 154 468 165 525 b 125 657 165 596 167 657 b 119 642 124 657 119 656 l 119 597 b 119 596 119 597 119 596 l 119 521 b 129 504 119 504 129 504 l 129 499 l 68 499 l 68 504 b 78 518 68 504 76 504 b 78 518 78 518 78 518 l 78 644 b 63 664 78 656 76 664 b 49 656 54 664 49 658 b 61 646 49 644 61 646 b 44 628 61 631 50 628 b 25 646 26 628 25 643 b 63 674 25 664 47 674 b 125 664 88 674 96 664 b 206 567 168 664 206 642 b 99 456 206 514 174 453 m 282 499 l 219 499 l 219 504 b 231 518 219 504 229 504 l 231 585 b 219 600 229 600 219 600 l 219 604 l 269 614 l 269 521 b 282 504 269 504 282 504 m 251 660 b 269 642 263 660 269 651 b 251 622 269 631 263 622 b 233 642 240 622 233 631 b 251 660 233 651 240 660 m 346 600 b 379 615 351 606 363 615 b 414 579 397 615 414 603 b 414 521 414 579 414 521 b 424 504 414 506 421 504 l 424 499 l 363 499 l 363 504 b 372 518 363 504 371 504 l 372 583 b 346 579 372 603 346 600 l 346 521 b 357 504 346 504 357 504 l 357 499 l 296 499 l 296 504 b 306 518 296 504 304 504 l 306 585 b 296 600 304 600 296 600 l 296 604 l 346 614 l 346 600 m 535 622 b 596 664 535 622 535 664 b 644 660 626 664 632 651 b 653 663 647 661 649 663 b 653 621 653 656 653 621 l 647 619 b 596 654 647 619 642 654 b 576 611 567 654 557 619 b 672 539 601 600 674 597 b 603 499 671 515 647 499 b 547 499 560 499 556 510 b 542 499 547 499 543 499 l 542 542 l 547 542 b 601 511 547 524 576 511 b 613 560 646 511 644 550 b 535 622 583 568 535 578 m 742 608 b 731 597 742 608 733 610 l 731 518 b 742 504 732 504 742 504 l 742 499 l 725 499 b 690 531 711 499 690 499 l 690 596 b 678 608 689 610 678 608 l 678 614 b 731 629 707 614 714 629 l 731 614 l 742 614 l 742 608 m 753 615 l 813 615 l 813 608 b 804 596 813 608 804 610 l 804 535 b 831 535 804 507 831 517 l 831 593 b 821 608 831 610 821 608 l 821 615 l 882 615 l 882 608 b 869 596 882 608 871 610 l 869 518 b 882 504 871 504 882 504 l 882 499 l 853 499 b 831 517 839 499 831 510 b 801 499 826 510 818 499 b 764 535 785 499 764 510 b 764 593 764 535 764 593 b 753 608 764 608 754 608 m 1054 472 b 1032 456 1054 463 1047 456 b 967 503 1018 456 974 460 b 947 499 960 500 954 499 b 890 557 917 499 890 525 b 947 615 890 589 917 615 b 965 611 954 615 960 613 l 965 664 l 1017 656 l 1017 650 b 1006 635 1017 650 1007 651 b 1006 514 1006 635 1006 515 b 1033 463 1007 479 1017 465 b 1029 472 1031 465 1029 469 b 1042 485 1029 479 1033 485 b 1054 472 1049 485 1054 479 m 947 508 b 965 557 963 508 965 531 b 947 607 965 585 963 607 b 929 557 932 607 929 585 b 947 508 929 531 932 508 m 1085 499 l 1024 499 l 1024 504 b 1033 518 1024 504 1033 504 l 1033 585 b 1024 600 1033 600 1024 600 l 1024 604 l 1075 614 l 1075 521 b 1085 504 1075 504 1085 504 m 1036 642 b 1056 660 1036 651 1044 660 b 1074 642 1065 660 1074 651 b 1056 622 1074 631 1065 622 b 1036 642 1044 622 1036 631 m 1201 557 b 1143 499 1201 525 1175 499 b 1086 557 1111 499 1086 525 b 1143 614 1086 589 1111 614 b 1201 557 1175 614 1201 589 m 1143 508 b 1161 557 1160 508 1161 531 b 1143 606 1161 585 1160 606 b 1126 557 1128 606 1126 585 b 1143 508 1126 531 1128 508 m 22 238 l 236 238 l 236 210 l 22 210 m 496 840 l 593 964 l 725 964 l 625 840 m 1079 840 l 1178 964 l 1203 964 l 1203 840 m 106 840 l 206 964 l 336 964 l 236 840 m 690 840 l 789 964 l 919 964 l 819 840 m 42 840 l 22 840 l 22 964 l 142 964 m 301 840 l 400 964 l 531 964 l 431 840 m 885 840 l 985 964 l 1113 964 l 1015 840 m 725 157 l 625 32 l 496 32 l 593 157 m 1178 157 l 1203 157 l 1203 32 l 1079 32 m 336 157 l 236 32 l 106 32 l 206 157 m 919 157 l 819 32 l 690 32 l 789 157 m 142 157 l 42 32 l 22 32 l 22 157 m 531 157 l 431 32 l 301 32 l 400 157 m 1113 157 l 1015 32 l 885 32 l 985 157 "}}}
